<svg id="Grupo_946498" data-name="Grupo 946498" xmlns="http://www.w3.org/2000/svg" xmlns:xlink="http://www.w3.org/1999/xlink" width="132.334" height="163.985" viewBox="0 0 132.334 163.985">
  <defs>
    <clipPath id="clip-path">
      <rect id="Rectángulo_340962" data-name="Rectángulo 340962" width="132.334" height="163.985" fill="none"/>
    </clipPath>
  </defs>
  <g id="Grupo_946486" data-name="Grupo 946486" clip-path="url(#clip-path)">
    <path id="Trazado_632115" data-name="Trazado 632115" d="M125.016,161.912l-86.37-49.866c-4.042-2.333-7.319-8.594-7.319-13.984V34.842c0-5.39,3.277-7.867,7.319-5.533l86.37,49.865c4.042,2.334,7.319,8.595,7.319,13.985v63.22c0,5.39-3.277,7.867-7.319,5.533" fill="#e98a00"/>
    <path id="Trazado_632116" data-name="Trazado 632116" d="M118.188,138.271,50.322,99.089V0l67.866,39.182Z" fill="#cce7ff"/>
    <path id="Trazado_632117" data-name="Trazado 632117" d="M111.535,52.47,55.311,20.009v-3.9l56.224,32.461Z" fill="#00337d"/>
    <path id="Trazado_632118" data-name="Trazado 632118" d="M111.535,63.687,55.311,31.226v-3.9l56.224,32.461Z" fill="#00337d"/>
    <path id="Trazado_632119" data-name="Trazado 632119" d="M111.535,74.9,55.311,42.443v-3.9L111.535,71Z" fill="#00337d"/>
    <path id="Trazado_632120" data-name="Trazado 632120" d="M111.535,86.121,55.311,53.66v-3.9l56.224,32.461Z" fill="#00337d"/>
    <path id="Trazado_632121" data-name="Trazado 632121" d="M111.535,97.338,55.311,64.877v-3.9l56.224,32.461Z" fill="#00337d"/>
    <path id="Trazado_632122" data-name="Trazado 632122" d="M125.943,104.819l5.89,56.512c.277,2.654-1.845,3.451-4.74,1.78L36.568,110.846c-2.9-1.671-5.465-5.178-5.742-7.832L25.755,54.367c-.276-2.654,1.846-3.451,4.74-1.78L84.3,83.653c2.131,1.231,3.926,1.155,4.542-.19l.639-1.4c.615-1.346,2.41-1.421,4.541-.191L120.2,96.987c2.894,1.671,5.465,5.178,5.742,7.832" fill="#ffb600"/>
    <path id="Trazado_632123" data-name="Trazado 632123" d="M88.267,105.189,13.168,61.83c-2.1-1.214-4.009-1.2-5.414-.211l-.005,0L2.563,64.61l2.879,1.662a12.4,12.4,0,0,0-.093,1.469c0,5.757,3.5,12.445,7.819,14.938L84.16,123.667l-2.5,1.443,6.985,4.032,4.344-2.508a3.871,3.871,0,0,0,.83-.48l.01,0h0c1.395-1.078,2.257-3.165,2.257-6.021,0-5.757-3.5-12.445-7.817-14.938" fill="#79aeff"/>
    <path id="Trazado_632124" data-name="Trazado 632124" d="M82.918,129.139,7.819,85.78C3.5,83.287,0,76.6,0,70.842s3.5-8.4,7.819-5.91l75.1,43.358c4.318,2.493,7.818,9.181,7.818,14.938h0c0,5.757-3.5,8.4-7.818,5.91" fill="#fff"/>
    <path id="Trazado_632125" data-name="Trazado 632125" d="M19.694,82.115l-.652-2.679-2.184-.447V76.281l-2.109-1.218V77.7L12.5,75.565l-.652,1.926,2.184,2.075-1.387,1.391,1.706,2.408,1.35-1.352L17.091,85l1.707-.437-1.349-2.911Z" fill="#002984"/>
    <path id="Trazado_632126" data-name="Trazado 632126" d="M31.479,88.919l-.652-2.679-2.184-.447V83.085l-2.11-1.218V84.5l-2.244-2.133-.652,1.926,2.184,2.075-1.387,1.39,1.706,2.409,1.35-1.352,1.387,2.991,1.707-.437-1.35-2.911Z" fill="#002984"/>
    <path id="Trazado_632127" data-name="Trazado 632127" d="M43.264,95.723l-.652-2.679L40.428,92.6V89.889l-2.11-1.218v2.635l-2.244-2.133L35.422,91.1l2.184,2.075-1.388,1.39,1.707,2.409,1.35-1.353,1.387,2.992,1.707-.437-1.35-2.911Z" fill="#002984"/>
    <path id="Trazado_632128" data-name="Trazado 632128" d="M55.049,102.527,54.4,99.848,52.213,99.4V96.693L50.1,95.475V98.11l-2.245-2.133L47.207,97.9l2.184,2.075L48,101.368l1.706,2.409,1.35-1.352,1.387,2.991,1.707-.437L52.8,102.068Z" fill="#002984"/>
    <path id="Trazado_632129" data-name="Trazado 632129" d="M67.1,109.484l-.652-2.679-2.184-.447V103.65l-2.11-1.218v2.635l-2.244-2.133-.652,1.926,2.184,2.075-1.387,1.391,1.706,2.408,1.35-1.352,1.387,2.991,1.707-.437-1.35-2.911Z" fill="#002984"/>
    <path id="Trazado_632130" data-name="Trazado 632130" d="M78.884,116.288l-.652-2.679-2.184-.447v-2.708l-2.11-1.218v2.635l-2.244-2.133-.652,1.926,2.184,2.075-1.388,1.391,1.707,2.408,1.35-1.352,1.387,2.991,1.707-.437-1.35-2.911Z" fill="#002984"/>
  </g>
</svg>
