<svg xmlns="http://www.w3.org/2000/svg" xmlns:xlink="http://www.w3.org/1999/xlink" width="164.94" height="218.912" viewBox="0 0 164.94 218.912">
  <defs>
    <linearGradient id="linear-gradient" x1="-0.003" y1="0.508" x2="1.001" y2="0.508" gradientUnits="objectBoundingBox">
      <stop offset="0" stop-color="#dffeff"/>
      <stop offset="1" stop-color="#01b0f9"/>
    </linearGradient>
    <linearGradient id="linear-gradient-2" x1="0.001" y1="0.046" x2="1.261" y2="1.192" xlink:href="#linear-gradient"/>
    <linearGradient id="linear-gradient-3" x1="1.049" y1="-0.634" x2="0.37" y2="0.825" xlink:href="#linear-gradient"/>
    <linearGradient id="linear-gradient-4" x1="0.003" y1="-0.266" x2="0.819" y2="1.202" xlink:href="#linear-gradient"/>
    <linearGradient id="linear-gradient-5" x1="0.102" y1="0.025" x2="1.001" y2="1.098" xlink:href="#linear-gradient"/>
    <linearGradient id="linear-gradient-6" x1="0.5" y1="-0.2" x2="0.5" y2="0.798" xlink:href="#linear-gradient"/>
    <linearGradient id="linear-gradient-7" x1="0" y1="0.5" x2="1" y2="0.5" xlink:href="#linear-gradient"/>
    <radialGradient id="radial-gradient" cx="-0.49" cy="1.285" r="1.8" gradientTransform="translate(-0.698) scale(2.396 1)" gradientUnits="objectBoundingBox">
      <stop offset="0" stop-color="#cca27e"/>
      <stop offset="0.526" stop-color="#b46649"/>
      <stop offset="1" stop-color="#985840"/>
    </radialGradient>
    <linearGradient id="linear-gradient-8" x1="0.499" y1="-0.012" x2="0.499" y2="1.112" gradientUnits="objectBoundingBox">
      <stop offset="0" stop-color="#f2f2f2"/>
      <stop offset="1" stop-color="#d6d6d6"/>
    </linearGradient>
  </defs>
  <g id="Grupo_946499" data-name="Grupo 946499" transform="translate(-86.463)">
    <g id="Grupo_881544" data-name="Grupo 881544" transform="translate(86.463)">
      <g id="Grupo_881543" data-name="Grupo 881543" transform="translate(0.126)">
        <path id="Trazado_603546" data-name="Trazado 603546" d="M151.372,74.805,167.134,65.6c-.5.252-1.009.5-1.639.757-.126.126-.378.126-.5.252a8.69,8.69,0,0,0-1.009.378l-1.513.378a5.461,5.461,0,0,0-.63.126c-.252,0-.631.126-.883.126-.378,0-.757.126-1.135.126h-2.648c-.631,0-1.261-.126-1.892-.126h-.126c-.63-.126-1.387-.252-2.144-.378-.126,0-.252-.126-.378-.126a15.249,15.249,0,0,1-2.27-.631h0L134.6,75.688c.126,0,.252.126.378.126.5.126.883.252,1.387.378a.463.463,0,0,1,.378.126c.126,0,.252.126.378.126.252,0,.378.126.631.126.5.126,1.009.126,1.513.252h.126c.5,0,1.009.126,1.387.126h3.4c.252,0,.631-.126.883-.126s.631-.126.883-.126h.252c.126,0,.378-.126.5-.126l1.513-.378a.463.463,0,0,0,.378-.126,1.792,1.792,0,0,1,.757-.252c.126-.126.378-.126.5-.252Z" transform="translate(-134.6 -34.327)" fill="url(#linear-gradient)"/>
        <path id="Trazado_603547" data-name="Trazado 603547" d="M171.063,40.8,155.3,50.005l48.423,6.431,15.763-9.205Z" transform="translate(-129.197 -40.8)" fill="url(#linear-gradient-2)"/>
        <path id="Trazado_603548" data-name="Trazado 603548" d="M276.459,143.679c.252-1.261.5-2.522.757-3.909a5.463,5.463,0,0,1,.126-.63h0l.757-4.54-15.763,9.205-.757,4.54c0,.252-.126.5-.126.757-.252,1.261-.5,2.648-.757,3.909l-.378,1.513c-.252,1.009-.378,1.891-.631,2.9l-.378,1.513c-.252,1.009-.5,2.018-.757,2.9-.126.5-.252,1.135-.378,1.639-.252.883-.5,1.892-.757,2.774l-.378,1.513c-.378,1.387-.883,2.9-1.261,4.161,0,.126,0,.126-.126.252l-1.513,4.161c-.252.757-.5,1.387-.757,2.018a1.793,1.793,0,0,0-.252.757,20.13,20.13,0,0,1-1.261,2.9c-.126.252-.126.378-.252.631-.378.757-.631,1.513-1.009,2.27a6.152,6.152,0,0,1-.378.883c-.252.5-.5,1.135-.757,1.639l-.757,1.513c-.252.5-.5.883-.757,1.387l-.757,1.513a11.081,11.081,0,0,1-.757,1.261,5.207,5.207,0,0,1-.883,1.387c-.252.378-.5.883-.757,1.261a8.485,8.485,0,0,1-.883,1.387,11.089,11.089,0,0,0-.757,1.261,7.652,7.652,0,0,1-.883,1.261l-.757,1.135c-.252.378-.63.883-.883,1.261l-.757,1.135c-.252.378-.631.757-.883,1.135a6.994,6.994,0,0,1-.757,1.009c-.252.378-.631.757-.883,1.135s-.5.63-.757,1.009a7.206,7.206,0,0,1-.883,1.009,5.482,5.482,0,0,1-.757.883c-.252.378-.631.631-.883,1.009a5.828,5.828,0,0,1-.883.883c-.252.378-.63.63-.883,1.009a5.824,5.824,0,0,1-.883.883,6.316,6.316,0,0,1-1.009.883,5.487,5.487,0,0,1-.883.757c-.378.252-.63.63-1.009.883a5.488,5.488,0,0,1-.883.757,6.316,6.316,0,0,0-1.009.883l-.757.757c-.378.252-.631.5-1.009.757a3.345,3.345,0,0,1-.757.63c-.378.252-.631.5-1.009.757-.252.252-.5.378-.757.63-.378.252-.631.5-1.009.757-.252.126-.5.378-.757.5a6.989,6.989,0,0,0-1.009.757c-.252.126-.5.378-.757.5-.378.252-.883.5-1.261.757-.126.126-.378.252-.5.378a12.6,12.6,0,0,1-1.765,1.009l15.763-9.205c.631-.378,1.135-.63,1.765-1.009.126-.126.378-.252.5-.378a11.094,11.094,0,0,1,1.261-.757c.252-.126.5-.378.757-.5a6.991,6.991,0,0,0,1.009-.757c.252-.126.5-.378.757-.5.378-.252.63-.5,1.009-.757.252-.252.5-.378.757-.631.378-.252.63-.5,1.009-.757.252-.252.5-.378.757-.631.378-.252.631-.5,1.009-.757l.757-.757a6.315,6.315,0,0,0,1.009-.883,5.488,5.488,0,0,1,.883-.757c.378-.252.631-.631,1.009-.883a5.484,5.484,0,0,1,.883-.757c.378-.252.631-.63,1.009-.883l.883-.883c.252-.378.63-.631.883-1.009a5.825,5.825,0,0,1,.883-.883c.252-.378.63-.631.883-1.009.252-.252.5-.631.883-1.009a7.208,7.208,0,0,1,.883-1.009c.252-.378.5-.631.757-1.009s.63-.757.883-1.135A6.994,6.994,0,0,1,254.9,195c.252-.378.63-.757.883-1.135l.757-1.135a10.91,10.91,0,0,0,.883-1.261l.757-1.135a7.651,7.651,0,0,1,.883-1.261c.126-.126.126-.252.252-.378.126-.252.378-.5.5-.757a8.483,8.483,0,0,1,.883-1.387c.252-.378.5-.883.757-1.261a5.207,5.207,0,0,1,.883-1.387,13.742,13.742,0,0,0,.757-1.387l.757-1.513c.252-.5.5-.883.757-1.387l.757-1.513a2.756,2.756,0,0,1,.378-.631,3.775,3.775,0,0,1,.5-1.009c.126-.252.252-.631.378-.883.378-.757.63-1.513,1.009-2.27.126-.252.126-.378.252-.63a28.844,28.844,0,0,1,1.261-2.9,1.792,1.792,0,0,0,.252-.757c.252-.5.378-1.135.63-1.639,0-.126.126-.252.126-.5l1.513-4.161c0-.126,0-.126.126-.252.5-1.387.883-2.774,1.261-4.161,0-.126.126-.378.126-.5.126-.252.126-.631.252-1.009.252-.883.5-1.765.757-2.774.126-.5.252-1.135.378-1.639l.757-3.026c.126-.378.126-.757.252-1.135,0-.126.126-.378.126-.5.252-.883.378-1.891.63-2.9C276.207,144.814,276.333,144.31,276.459,143.679Z" transform="translate(-113.536 -16.317)" fill="url(#linear-gradient-3)"/>
        <path id="Trazado_603549" data-name="Trazado 603549" d="M271.248,145.072c-.126-.126-.252-.126-.252-.252-.883-.757-1.639-1.639-2.4-2.4l-.378-.378c-.757-.883-1.513-1.639-2.27-2.522l-.378-.378c-.757-.883-1.387-1.765-2.144-2.648a2.214,2.214,0,0,0-.5-.63c-.5-.63-1.009-1.387-1.513-2.018-.252-.378-.631-.883-.883-1.261a7.654,7.654,0,0,0-.883-1.261,22.194,22.194,0,0,1-1.765-2.9c-.378-.5-.631-1.135-1.009-1.639-.252-.378-.5-.883-.757-1.261-.5-1.009-1.009-1.892-1.513-2.9h0c-.63-1.135-1.135-2.4-1.639-3.531a.124.124,0,0,0-.126-.126c-.5-1.135-1.009-2.27-1.387-3.4,0-.126-.126-.252-.126-.378-.378-1.135-.757-2.144-1.135-3.279,0-.126-.126-.252-.126-.378-.378-1.135-.631-2.144-1.009-3.279,0-.126-.126-.252-.126-.5-.252-1.135-.5-2.144-.757-3.279a.463.463,0,0,0-.126-.378,29.446,29.446,0,0,1-.5-3.279v-.378c-.126-1.135-.252-2.144-.378-3.279V96.9a30.715,30.715,0,0,1-.126-3.4V90.975c0-.5.126-.883.126-1.387a1.137,1.137,0,0,1,.126-.631c0-.378.126-.883.126-1.261a1.137,1.137,0,0,1,.126-.631c.126-.631.252-1.261.378-1.765l-15.763,8.953c-.126.5-.252,1.009-.378,1.639v.126a1.137,1.137,0,0,1-.126.631c0,.252-.126.631-.126.883v.378a1.137,1.137,0,0,1-.126.631v5.422a7.19,7.19,0,0,0,.126,1.639v.5a3.49,3.49,0,0,0,.126,1.135c0,.5.126,1.135.126,1.639a.953.953,0,0,0,.126.5v.378c0,.252.126.63.126.883a8.515,8.515,0,0,1,.252,1.765c0,.252.126.378.126.631a.463.463,0,0,0,.126.378c0,.252.126.5.126.757.126.631.252,1.261.378,1.765,0,.252.126.5.126.757,0,.126.126.252.126.5a5.46,5.46,0,0,0,.126.631c.126.631.378,1.261.5,1.892.126.252.126.5.252.757,0,.126.126.252.126.378.126.252.126.378.252.63.252.63.378,1.135.631,1.765.126.252.252.631.378.883,0,.126.126.252.126.378s.126.252.126.378a8.764,8.764,0,0,1,.631,1.639c.126.378.378.883.5,1.261,0,.126,0,.126.126.252a.123.123,0,0,0,.126.126c.252.631.5,1.135.757,1.765.252.5.5,1.135.757,1.639h0c.378.757.757,1.387,1.135,2.144a2.637,2.637,0,0,0,.5.757c.252.378.5.883.757,1.261.126.252.378.63.5.883a2.638,2.638,0,0,0,.5.757c.63,1.009,1.135,1.892,1.765,2.9.126.252.378.5.5.757a1.741,1.741,0,0,1,.378.5,10.911,10.911,0,0,0,.883,1.261c.252.378.5.757.883,1.261.252.252.378.5.631.757a2.215,2.215,0,0,0,.5.631c.126.126.252.378.378.5.5.5.883,1.135,1.387,1.639l.378.378.378.378c.252.252.378.5.63.757.5.5.883,1.009,1.387,1.513l.378.378.378.378.757.757,1.513,1.513.252.252.252.252c.378.252.63.63,1.009.883.5.5,1.009.883,1.513,1.387l.126.126,15.763-9.205A12.837,12.837,0,0,1,271.248,145.072Z" transform="translate(-109.334 -29.185)" fill="url(#linear-gradient-4)"/>
        <path id="Trazado_603550" data-name="Trazado 603550" d="M193.7,55.105,209.463,45.9l48.3,49.432L242,104.537Z" transform="translate(-119.174 -39.469)" fill="url(#linear-gradient-5)"/>
      </g>
      <path id="Trazado_603551" data-name="Trazado 603551" d="M209.152,54.557l48.3,49.432a41.864,41.864,0,0,0-.883,8.2c0,18.789,11.349,41.235,26.733,54.224-12.232,81.336-63.3,90.415-74.778,91.424a344.926,344.926,0,0,1-32.03-48.927c-15.637-28.751-35.308-73.9-41.992-128.5,15.511,4.918,26.986-4.414,26.986-23.2A60.3,60.3,0,0,0,160.729,48Z" transform="translate(-134.5 -38.921)" fill="url(#linear-gradient-6)"/>
      <path id="Trazado_603552" data-name="Trazado 603552" d="M207.4,248.505a341.328,341.328,0,0,1-27.742-43.127c-14.123-25.977-32.534-67.59-39.722-117.905,15.637,2.144,26.229-9.079,26.229-28.247,0-1.387,0-2.9-.126-4.54l41.992,5.548L249.9,103.11c-.126,1.387-.252,2.774-.252,4.287,0,19.167,10.34,42.622,25.977,58.511-12.232,68.725-54.854,80.579-68.221,82.6m.631-189.531L164.9,53.3v.5c.126,1.639.252,3.279.252,4.792,0,18.789-10.466,29.886-25.977,27.49H138.8l.126.5c7.188,50.945,25.725,92.937,40.1,119.292a344.392,344.392,0,0,0,28.247,43.757l.252.378h.252c13.115-1.892,56.746-13.619,68.978-83.732l.126-.5-.378-.378c-15.384-15.51-25.725-38.461-25.725-57.376,0-1.513.126-3.153.252-4.54v-.5L208.282,59.227l-.252-.252" transform="translate(-133.378 -37.537)" fill="url(#linear-gradient-7)"/>
    </g>
    <g id="Grupo_881546" data-name="Grupo 881546" transform="translate(108.153 43.127)">
      <path id="Trazado_603553" data-name="Trazado 603553" d="M237.132,145.531v-1.009h0v-.5c0-.126,0-.252-.126-.252,0-.126,0-.252-.126-.252,0-.126,0-.126-.126-.252h0c0-.126,0-.252-.126-.252a.44.44,0,0,0-.126-.252c0-.126-.126-.126-.126-.252s-.126-.126-.126-.252,0-.126-.126-.252h0c0-.126-.126-.126-.126-.252a.44.44,0,0,0-.126-.252c0-.126-.126-.252-.126-.378-.126-.126-.126-.252-.252-.378v-.252a2.758,2.758,0,0,0-.378-.631c-.126-.126-.252-.378-.378-.5h0c-.126-.126-.126-.252-.252-.378l-.252-.252-.252-.252-.252-.252h0l-.126-.126-.252-.252-.252-.252-.252-.252-.126-.126h0a.124.124,0,0,1-.126-.126l-.252-.252c-.126,0-.126-.126-.252-.126s-.126-.126-.252-.126-.126-.126-.252-.126h0l-58.385-33.8-.126-.126c-.126,0-.126-.126-.252-.126s-.126-.126-.252-.126-.126-.126-.252-.126-.126,0-.252-.126h-.126c-.126,0-.126,0-.252-.126h-1.639a.463.463,0,0,0-.378.126.956.956,0,0,0-.5.252L153.4,111.484a6.147,6.147,0,0,1,.883-.378h0a2.691,2.691,0,0,1,1.009,0h0a2.376,2.376,0,0,1,1.009.252h0a4.479,4.479,0,0,1,1.135.5l58.385,33.8,1.135.757h0a3.838,3.838,0,0,1,1.009,1.009h0a16.777,16.777,0,0,1,1.765,2.4h0a4.662,4.662,0,0,1,.63,1.387h0a6.145,6.145,0,0,1,.5,1.387h0c.126.5.252,1.009.378,1.387h0a5.171,5.171,0,0,1,.126,1.387l-1.028,45.523a3.887,3.887,0,0,1-.126,1.261h0c-.126.378-.126.757-.378,1.009h0a2.757,2.757,0,0,1-.378.631c0,.126-.126.126-.126.252-.252.252.484-.036.231.09l-.105.119-1.231.326h1.1l16.034-9.236c.252-.126.378-.378.631-.5a.44.44,0,0,0,.126-.252l.252-.252c.126-.126.126-.252.252-.378h0a1294.746,1294.746,0,0,0,.252-.5c0-.126,0-.252.126-.252v-.126h0v-1.135h0l.126-45.523C237.132,145.657,237.132,145.657,237.132,145.531Z" transform="translate(-151.256 -67.979)" fill="#ddad37"/>
      <path id="Trazado_603554" data-name="Trazado 603554" d="M216.012,143.264a12.939,12.939,0,0,1,5.8,9.962l-.126,45.523c0,3.657-2.648,5.17-5.8,3.279l-58.385-33.8a12.939,12.939,0,0,1-5.8-9.962l.126-45.523c0-3.657,2.648-5.17,5.8-3.279Z" transform="translate(-151.7 -66.216)" fill="#fbc642"/>
      <path id="Trazado_603555" data-name="Trazado 603555" d="M180.218,131.725a17.064,17.064,0,0,1,7.692,13.367c0,2.774-1.135,4.54-2.774,5.17v14c0,3.153-2.27,4.414-5.044,2.9a10.9,10.9,0,0,1-4.918-8.575v-14a16.756,16.756,0,0,1-2.774-8.323C172.526,131.22,175.931,129.2,180.218,131.725Z" transform="translate(-146.297 -60.477)" fill="url(#radial-gradient)"/>
      <g id="Grupo_881545" data-name="Grupo 881545" transform="translate(14.376)">
        <path id="Trazado_603556" data-name="Trazado 603556" d="M177.423,91.562v-.252c.126-.5.252-.883.378-1.387,0-.126,0-.126.126-.252a4.478,4.478,0,0,1,.5-1.135v-.126c.252-.378.378-.757.63-1.135l.126-.126c.252-.252.378-.631.63-.883l.252-.252.63-.631.252-.252a2.746,2.746,0,0,1,1.009-.631l-6.809,3.909c-.378.252-.631.378-1.009.631l-.252.252c-.252.126-.378.378-.63.631l-.252.252a5.337,5.337,0,0,0-.631.883l-.126.126h0c-.252.378-.378.757-.63,1.135h0v.126l-.378.757c0,.126-.126.252-.126.378s0,.126-.126.252c0,.126,0,.126-.126.252a8.043,8.043,0,0,0-.252.883v.757c0,.252-.126.5-.126.757v2.27h0v19.294a2.777,2.777,0,0,1-.126,1.009h0a1.792,1.792,0,0,1-.252.757h0a1.74,1.74,0,0,1-.378.5l-.126.126a1.741,1.741,0,0,1-.5.378l6.81-3.909c.126-.126.378-.252.5-.378l.126-.126c0-.126.126-.126.126-.252a.44.44,0,0,1,.126-.252h0c0-.126.126-.126.126-.252s0-.126.126-.252v-.378h0v-1.135h0V94.588a7.755,7.755,0,0,1,.126-1.765V92.7A5.194,5.194,0,0,0,177.423,91.562Z" transform="translate(-161.534 -72.52)" fill="#d6d6d6"/>
        <path id="Trazado_603557" data-name="Trazado 603557" d="M218.5,120.4V118c0-.378-.126-.757-.126-1.261,0-.378-.126-.883-.126-1.261h0a3.682,3.682,0,0,0-.252-1.135c-.126-.378-.126-.883-.252-1.261,0-.126-.126-.378-.126-.5s0-.126-.126-.252c0-.126-.126-.378-.126-.5-.126-.5-.252-.883-.378-1.387a2.968,2.968,0,0,1-.252-1.009v-.252c-.126-.378-.252-.883-.378-1.261a5.268,5.268,0,0,0-.5-1.261c0-.126,0-.126-.126-.252,0-.126,0-.126-.126-.252a1.792,1.792,0,0,1-.252-.757,13.069,13.069,0,0,1-.5-1.261c-.126-.252-.252-.631-.378-.883v-.126a.123.123,0,0,0-.126-.126,13.068,13.068,0,0,1-.5-1.261c-.252-.5-.378-.883-.63-1.387,0-.126-.126-.126-.126-.252s-.126-.126-.126-.252a7.491,7.491,0,0,0-.5-1.009c-.252-.378-.5-.883-.757-1.261-.126-.252-.252-.378-.378-.631,0-.126-.126-.126-.126-.252a5.11,5.11,0,0,1-.63-1.135c-.378-.5-.631-1.135-1.009-1.639,0-.126-.126-.126-.126-.252l-1.513-2.27h0l-1.135-1.513c-.252-.378-.63-.757-.883-1.135h0c-.378-.378-.631-.757-1.009-1.135s-.631-.757-1.009-1.135l-.126-.126-.126-.126-.757-.757-1.009-1.009c-.126-.126-.252-.252-.378-.252l-.252-.252-.5-.5c-.378-.378-.757-.631-1.135-1.009-.126-.126-.378-.252-.5-.378l-.252-.252c-.126-.126-.252-.252-.378-.252-.378-.252-.757-.631-1.135-.883a2.638,2.638,0,0,0-.757-.5l-.126-.126-.126-.126a7,7,0,0,1-1.009-.757,7.037,7.037,0,0,1-1.009-.631c-.126,0-.126-.126-.252-.126a2.638,2.638,0,0,1-.757-.5.44.44,0,0,1-.252-.126c-.126-.126-.252-.126-.378-.252a.44.44,0,0,1-.252-.126c-.126-.126-.378-.126-.5-.252-.126,0-.252-.126-.378-.126a.123.123,0,0,1-.126-.126c-.378-.126-.631-.252-1.009-.378h0c-.378-.126-.631-.252-1.009-.378h-.126c-.126,0-.252-.126-.378-.126s-.378-.126-.5-.126-.126,0-.252-.126c-.126,0-.252-.126-.5-.126-.126,0-.252-.126-.378-.126a.463.463,0,0,1-.378-.126c-.126,0-.252-.126-.5-.126h-.252a.463.463,0,0,1-.378-.126.758.758,0,0,1-.5-.126h-3.657c-.378,0-.757.126-1.135.126h-.126c-.5.126-1.135.252-1.639.378H178.4c-.252.126-.5.126-.631.252-.126,0-.252.126-.378.126a2.032,2.032,0,0,0-.883.5L169.7,80.3c.252-.126.63-.378.883-.5.126,0,.252-.126.378-.126.252-.126.378-.126.631-.252.126,0,.126,0,.252-.126a6.257,6.257,0,0,1,1.639-.378h.126a3.491,3.491,0,0,1,1.135-.126h3.279a1.137,1.137,0,0,1,.631.126.758.758,0,0,1,.5.126c.252,0,.378.126.631.126.126,0,.252.126.5.126a5.462,5.462,0,0,1,.631.126c.126,0,.252.126.5.126.252.126.5.126.757.252.126,0,.252.126.378.126l1.135.378v.9c.378.126.757.378,1.135.5.126,0,.252.126.378.126a6.149,6.149,0,0,0,.883.378c.126.126.252.126.378.252.378.252.757.378,1.135.631a28.535,28.535,0,0,1,2.522,1.639l.126-.776a27.7,27.7,0,0,1,2.27,1.765l.252.252c.757.631,1.387,1.261,2.144,1.892l.252.252c.757.631,1.387,1.387,2.144,2.144l.126.126c.757.757,1.387,1.639,2.144,2.4h0c.757.883,1.387,1.765,2.018,2.648v.126c.63.757,1.135,1.639,1.765,2.522.378.5.631,1.135,1.009,1.639a8.48,8.48,0,0,0,.883,1.387c.126.252.252.378.378.63.378.757.883,1.513,1.261,2.4,0,.126.126.126.126.252.5,1.009.883,1.892,1.387,2.9v.126c.378,1.009.757,1.892,1.135,2.9,0,.126,0,.126.126.252a28.38,28.38,0,0,1,1.009,3.026v.126c.252,1.009.5,1.892.757,2.9,0,.126,0,.126.126.252.252,1.009.378,2.018.63,2.9h0c.126,1.009.252,2.018.378,2.9v.252a22.323,22.323,0,0,1,.126,2.9v19.294a2.776,2.776,0,0,1-.126,1.009h0a1.793,1.793,0,0,1-.252.757h0a1.742,1.742,0,0,1-.378.5l-.126.126a1.741,1.741,0,0,1-.5.378l6.809-3.909c.126-.126.378-.252.5-.378l.126-.126c0-.126.126-.126.126-.252a.44.44,0,0,1,.126-.252h0c0-.126.126-.126.126-.252s0-.126.126-.252v-.378h0v-1.135h0l-.63-19.02C218.517,120.628,218.5,120.775,218.5,120.4Z" transform="translate(-161.377 -75)" fill="#d6d6d6"/>
        <path id="Trazado_603558" data-name="Trazado 603558" d="M188.917,81.321c14.2,7.944,25.688,27.49,25.688,43.379v19.294c0,2.774-2.065,3.909-4.518,2.522a9.718,9.718,0,0,1-4.518-7.566V119.656c0-10.34-7.487-23.077-16.652-28.247-9.294-5.17-16.781-1.009-16.781,9.332v19.294c0,2.774-2.065,3.909-4.518,2.522a9.717,9.717,0,0,1-4.518-7.566V95.7C163.1,79.682,174.718,73.25,188.917,81.321Z" transform="translate(-163.1 -74.259)" fill="url(#linear-gradient-8)"/>
      </g>
    </g>
  </g>
</svg>
