<svg id="Grupo_946497" data-name="Grupo 946497" xmlns="http://www.w3.org/2000/svg" xmlns:xlink="http://www.w3.org/1999/xlink" width="128.162" height="122.325" viewBox="0 0 128.162 122.325">
  <defs>
    <clipPath id="clip-path">
      <rect id="Rectángulo_340961" data-name="Rectángulo 340961" width="128.162" height="122.325" fill="none"/>
    </clipPath>
  </defs>
  <g id="Grupo_946484" data-name="Grupo 946484" transform="translate(0 0)" clip-path="url(#clip-path)">
    <path id="Trazado_632091" data-name="Trazado 632091" d="M124.122,66.707v6.351a1.478,1.478,0,0,1-.684,1.454l.011.012L48.96,118.172a1.6,1.6,0,0,0,.532-1.357v-6.372Z" transform="translate(2.923 3.982)" fill="#598ce5"/>
    <path id="Trazado_632092" data-name="Trazado 632092" d="M127,68.5l-74.63,43.736a4.308,4.308,0,0,0-.456-1.834,3.513,3.513,0,0,0-1.292-1.509l-7.338-4.233L18.592,90.4,9.658,85.238,1.712,80.657a1.173,1.173,0,0,0-1.02-.163L75.115,36.867a.91.91,0,0,1,.532-.174,1.422,1.422,0,0,1,.7.217l12.5,7.219,36.4,21.016A4.194,4.194,0,0,1,127,68.5" transform="translate(0.041 2.19)" fill="#aed9ff"/>
    <path id="Trazado_632093" data-name="Trazado 632093" d="M52.416,109.773v6.363a1.626,1.626,0,0,1-.529,1.367.193.193,0,0,1-.057.035,1.1,1.1,0,0,1-1.166-.081L1.752,89.223A4.2,4.2,0,0,1,0,85.874V79.51A1.526,1.526,0,0,1,.621,78.1l-.006,0L.7,78.046a.088.088,0,0,0,.029-.012,1.177,1.177,0,0,1,1.022.155l7.95,4.59,8.931,5.158,24.7,14.261,7.329,4.227a3.56,3.56,0,0,1,1.3,1.516,4.3,4.3,0,0,1,.454,1.832" transform="translate(0 4.655)" fill="#79aeff"/>
    <path id="Trazado_632094" data-name="Trazado 632094" d="M44.594,108.278c0-.748.529-1.05,1.182-.673a2.6,2.6,0,0,1,1.182,2.037c0,.749-.53,1.05-1.182.674a2.6,2.6,0,0,1-1.182-2.038" transform="translate(2.662 6.414)" fill="#aed9ff"/>
    <path id="Trazado_632095" data-name="Trazado 632095" d="M11.97,90.111,3.639,85.3V83.946l8.331,4.81Z" transform="translate(0.217 5.011)" fill="#aed9ff"/>
    <path id="Trazado_632096" data-name="Trazado 632096" d="M124.122,53.311v6.35a1.479,1.479,0,0,1-.684,1.455l.011.012L48.96,104.776a1.6,1.6,0,0,0,.532-1.357V97.047Z" transform="translate(2.923 3.182)" fill="#598ce5"/>
    <path id="Trazado_632097" data-name="Trazado 632097" d="M127,55.1,52.373,98.838A4.308,4.308,0,0,0,51.918,97,3.507,3.507,0,0,0,50.626,95.5l-7.338-4.233-24.7-14.253L9.658,71.842,1.712,67.261A1.173,1.173,0,0,0,.692,67.1L75.115,23.471a.91.91,0,0,1,.532-.174,1.422,1.422,0,0,1,.7.217l12.5,7.219,36.4,21.016A4.194,4.194,0,0,1,127,55.1" transform="translate(0.041 1.391)" fill="#aed9ff"/>
    <path id="Trazado_632098" data-name="Trazado 632098" d="M52.416,96.376v6.363a1.626,1.626,0,0,1-.529,1.367.193.193,0,0,1-.057.035,1.1,1.1,0,0,1-1.166-.081L1.752,75.826A4.2,4.2,0,0,1,0,72.477V66.113A1.526,1.526,0,0,1,.621,64.7l-.006,0L.7,64.649a.088.088,0,0,0,.029-.012,1.177,1.177,0,0,1,1.022.155l7.95,4.59,8.931,5.158L43.335,88.8l7.329,4.227a3.56,3.56,0,0,1,1.3,1.516,4.3,4.3,0,0,1,.454,1.832" transform="translate(0 3.855)" fill="#79aeff"/>
    <path id="Trazado_632099" data-name="Trazado 632099" d="M44.594,94.881c0-.749.529-1.05,1.182-.674a2.607,2.607,0,0,1,1.182,2.038c0,.749-.53,1.05-1.182.674a2.6,2.6,0,0,1-1.182-2.038" transform="translate(2.662 5.614)" fill="#aed9ff"/>
    <path id="Trazado_632100" data-name="Trazado 632100" d="M11.97,76.715,3.639,71.9V70.55l8.331,4.81Z" transform="translate(0.217 4.212)" fill="#aed9ff"/>
    <path id="Trazado_632101" data-name="Trazado 632101" d="M125.176,39.747V46.1a1.478,1.478,0,0,1-.684,1.454l.011.012L50.014,91.212a1.6,1.6,0,0,0,.532-1.357V83.483Z" transform="translate(2.986 2.373)" fill="#598ce5"/>
    <path id="Trazado_632102" data-name="Trazado 632102" d="M128.057,41.539,53.427,85.274a4.324,4.324,0,0,0-.456-1.834,3.513,3.513,0,0,0-1.292-1.509L44.342,77.7l-24.7-14.253-8.934-5.167L2.766,53.7a1.173,1.173,0,0,0-1.02-.163L76.169,9.907a.91.91,0,0,1,.532-.174,1.426,1.426,0,0,1,.694.217L89.9,17.169l36.4,21.016a4.194,4.194,0,0,1,1.759,3.354" transform="translate(0.104 0.581)" fill="#aed9ff"/>
    <path id="Trazado_632103" data-name="Trazado 632103" d="M53.469,82.813v6.363a1.626,1.626,0,0,1-.529,1.367.193.193,0,0,1-.057.035,1.1,1.1,0,0,1-1.166-.081L2.8,62.263a4.2,4.2,0,0,1-1.752-3.349V52.55a1.526,1.526,0,0,1,.621-1.409l-.006,0,.087-.052a.077.077,0,0,0,.028-.012,1.179,1.179,0,0,1,1.023.155l7.95,4.59,8.931,5.158,24.7,14.261,7.329,4.227a3.56,3.56,0,0,1,1.3,1.516,4.3,4.3,0,0,1,.454,1.832" transform="translate(0.063 3.045)" fill="#79aeff"/>
    <path id="Trazado_632104" data-name="Trazado 632104" d="M45.647,81.318c0-.748.529-1.05,1.182-.673a2.6,2.6,0,0,1,1.182,2.037c0,.749-.53,1.05-1.182.674a2.6,2.6,0,0,1-1.182-2.038" transform="translate(2.725 4.804)" fill="#aed9ff"/>
    <path id="Trazado_632105" data-name="Trazado 632105" d="M13.023,63.152l-8.331-4.81V56.986l8.331,4.81Z" transform="translate(0.28 3.402)" fill="#aed9ff"/>
    <path id="Trazado_632106" data-name="Trazado 632106" d="M72.109,59.225l-8.972-5.18,8.972-5.18,8.972,5.18Z" transform="translate(3.769 2.917)" fill="#ffe300"/>
    <path id="Trazado_632107" data-name="Trazado 632107" d="M81.931,56.413,48.9,37.344V9.193l33.03,19.069Z" transform="translate(2.919 0.549)" fill="#ff7f00"/>
    <path id="Trazado_632108" data-name="Trazado 632108" d="M71.679,32.368l8.892-5.18V55.339l-8.892,5.18Z" transform="translate(4.279 1.623)" fill="#ddad37"/>
    <path id="Trazado_632109" data-name="Trazado 632109" d="M40.511,14.373,49.4,9.193,82.431,28.262l-8.891,5.18Z" transform="translate(2.418 0.549)" fill="#ddad37"/>
    <path id="Trazado_632110" data-name="Trazado 632110" d="M75.171,20.546v7.881l-.033-.011a1.972,1.972,0,0,1-1.052,1.292,5.447,5.447,0,0,1-.511.249,5.867,5.867,0,0,1-4.765-.249,1.7,1.7,0,0,1-1.053-1.726l-.021-.011V20.764c0-4.863-1.346-8.891-5.993-11.8-.152-.087-.3-.174-.445-.25-2.214-1.129-4.548-.5-4.548,2.345v6.535a1.858,1.858,0,0,1-1.1,1.52,4.363,4.363,0,0,1-1.542.52,5.744,5.744,0,0,1-3.724-.52,1.858,1.858,0,0,1-1.1-1.52V10.125c0-5.633,3.669-12.473,12.234-9.336A21.987,21.987,0,0,1,67.17,3.83a20.565,20.565,0,0,1,8,16.717" transform="translate(2.943 0)" fill="#eaeaea"/>
    <path id="Trazado_632111" data-name="Trazado 632111" d="M74.164,20.331v7.881l-.033-.011a1.972,1.972,0,0,1-1.052,1.292,5.447,5.447,0,0,1-.511.249c0-13.775.847-19.453-6.4-26.128a20.565,20.565,0,0,1,8,16.717" transform="translate(3.95 0.216)" fill="#d6d6d6"/>
    <path id="Trazado_632112" data-name="Trazado 632112" d="M61.027,8.308c-2.215-1.129-4.548-.5-4.548,2.345v6.534a1.858,1.858,0,0,1-1.1,1.521,4.407,4.407,0,0,1-1.541.52v-6.61c0-6.394,2.311-6.991,7.186-4.31" transform="translate(3.214 0.406)" fill="#d6d6d6"/>
    <path id="Trazado_632113" data-name="Trazado 632113" d="M73.54,61.3,40.51,42.232V14.081L73.54,33.15Z" transform="translate(2.418 0.841)" fill="#fbc642"/>
    <path id="Trazado_632114" data-name="Trazado 632114" d="M60.18,35.233c0-2.792-2.248-6.28-4.779-7.077A2.076,2.076,0,0,0,52.547,29.8c-.43,1.954.568,4.533,2.134,6.278v5.687l3.263,1.884V37.961c1.319.055,2.236-.947,2.236-2.728" transform="translate(3.131 1.673)" fill="#ac6246"/>
  </g>
</svg>
