<svg xmlns="http://www.w3.org/2000/svg" width="89" height="89" viewBox="0 0 89 89">
  <g id="Grupo_946847" data-name="Grupo 946847" transform="translate(-537 -2108)">
    <g id="Elipse_7779" data-name="Elipse 7779" transform="translate(537 2108)" fill="#fff" stroke="#ff8900" stroke-width="3">
      <circle cx="44.5" cy="44.5" r="44.5" stroke="none"/>
      <circle cx="44.5" cy="44.5" r="43" fill="none"/>
    </g>
    <g id="Grupo_714139" data-name="Grupo 714139" transform="translate(-404.016 -4489.478)">
      <path id="Trazado_175375" data-name="Trazado 175375" d="M-7143.263-5573.848s6.135-1.209,6.694-6.507-2.325-11.9-5.95-13.663-5.391-1.767-5.391-1.767l4.647-2.694s3.532-4.647,2.324-9.2a38.665,38.665,0,0,0-3.811-8.83s-5.3-12.176-11.991-11.248-10.224,3.9-11.339,8.552-5.484,10.968-5.484,10.968-1.767,6.971,3.067,9.76,4.09,2.694,4.09,2.694-7.529,1.487-8.458,3.812-3.624,7.993-2.974,9.853.464,5.205,2.974,6.32a12.057,12.057,0,0,1,3.346,1.953s-.278,2.6,1.859,3.253,23.153.558,23.153.558l2.5-.558Z" transform="translate(8136.957 12238.356)" fill="#fff"/>
      <g id="hacker" transform="translate(963.715 6609.354)">
        <path id="Trazado_175371" data-name="Trazado 175371" d="M64.57,51.368,64.062,48.3A12.673,12.673,0,0,0,54.1,37.938l1.731-.976a9.364,9.364,0,0,0,2.378-14.4L53.276,11.892a11.275,11.275,0,0,0-20.475,0L27.863,22.559a9.364,9.364,0,0,0,2.38,14.4l1.731.979A12.675,12.675,0,0,0,22.016,48.3l-.508,3.07a8.48,8.48,0,0,0,6.965,9.759v1.249a2.571,2.571,0,0,0,2.568,2.568H55.035A2.571,2.571,0,0,0,57.6,62.376V61.127a8.485,8.485,0,0,0,6.966-9.758ZM34.416,12.64a9.5,9.5,0,0,1,17.246,0l3.27,7.062L53.2,18.271a15.913,15.913,0,0,0-1.282-.948.852.852,0,0,0-.1-.06,15.97,15.97,0,0,0-17.575.008.81.81,0,0,0-.075.047,16,16,0,0,0-1.293.953L31.143,19.7Zm1.16,5.894a14.114,14.114,0,0,1,14.926,0v6.027a7.879,7.879,0,0,1-2.54,5.786A7.252,7.252,0,0,1,42.4,32.282a7.5,7.5,0,0,1-6.82-7.436ZM27.285,29.47a7.489,7.489,0,0,1,2.727-6.523L33.8,19.818v5.03a9.292,9.292,0,0,0,8.446,9.206q.389.033.775.033a9.023,9.023,0,0,0,6.144-2.43,9.659,9.659,0,0,0,3.117-7.1V19.819l3.786,3.127a7.847,7.847,0,0,1,.724.683l.011.013a7.59,7.59,0,0,1-1.84,11.768l-1.973,1.113a20.358,20.358,0,0,1-19.9,0l-1.973-1.113a7.49,7.49,0,0,1-3.831-5.941ZM55.826,62.376a.791.791,0,0,1-.791.79H31.042a.791.791,0,0,1-.79-.79V46.849a.792.792,0,0,1,.79-.791H55.035a.792.792,0,0,1,.791.791Zm5.628-5.447a6.706,6.706,0,0,1-3.85,2.383V46.849a2.572,2.572,0,0,0-2.569-2.569H31.042a2.571,2.571,0,0,0-2.568,2.569V59.31a6.706,6.706,0,0,1-3.854-2.388,6.621,6.621,0,0,1-1.356-5.264l.508-3.07a10.914,10.914,0,0,1,10.8-9.145h.578a22.086,22.086,0,0,0,15.776,0h.58a10.913,10.913,0,0,1,10.8,9.145l.508,3.071a6.635,6.635,0,0,1-1.361,5.268Z" transform="translate(-21.391 -5.342)" fill="#294ddc"/>
        <path id="Trazado_175372" data-name="Trazado 175372" d="M60.529,95.265a3.584,3.584,0,1,0,3.583,3.584,3.584,3.584,0,0,0-3.583-3.584Zm0,5.389a1.806,1.806,0,1,1,1.805-1.805A1.806,1.806,0,0,1,60.529,100.654Z" transform="translate(-38.881 -49.578)" fill="#294ddc"/>
      </g>
    </g>
  </g>
</svg>
