<svg xmlns="http://www.w3.org/2000/svg" width="400" height="248.264" viewBox="0 0 400 248.264">
  <g id="Grupo_922682" data-name="Grupo 922682" transform="translate(-4298.945 -1100.379)">
    <g id="Grupo_880742" data-name="Grupo 880742" transform="translate(4298.945 1100.379)">
      <g id="Grupo_879178" data-name="Grupo 879178" transform="translate(0.505 5.274)" opacity="0.8">
        <g id="Grupo_879171" data-name="Grupo 879171" transform="translate(349.454 30.856)">
          <g id="Grupo_879170" data-name="Grupo 879170" transform="translate(0)">
            <g id="Grupo_879169" data-name="Grupo 879169">
              <g id="Grupo_879168" data-name="Grupo 879168">
                <path id="Trazado_601884" data-name="Trazado 601884" d="M140.019,94.789a3.68,3.68,0,0,0-4.116,2.3c-1.045,2.835,1.693,6.009,5.379,4.586h0C144.46,99.325,143.076,95.351,140.019,94.789Z" transform="translate(-135.677 -94.728)" fill="#fff4d6"/>
              </g>
            </g>
          </g>
        </g>
        <g id="Grupo_879173" data-name="Grupo 879173" transform="translate(0 7.377)">
          <g id="Grupo_879172" data-name="Grupo 879172" transform="translate(0 0)">
            <ellipse id="Elipse_4706" data-name="Elipse 4706" cx="7.393" cy="7.393" rx="7.393" ry="7.393" transform="translate(2.376 16.97) rotate(-99.248)" fill="#fff4d6"/>
          </g>
        </g>
        <g id="Grupo_879175" data-name="Grupo 879175" transform="translate(329.872 18.4)">
          <g id="Grupo_879174" data-name="Grupo 879174" transform="translate(0 0)">
            <ellipse id="Elipse_4707" data-name="Elipse 4707" cx="7.469" cy="7.469" rx="7.469" ry="7.469" transform="matrix(-0.182, -0.983, 0.983, -0.182, 2.72, 17.408)" fill="#fff4d6"/>
          </g>
        </g>
        <g id="Grupo_879177" data-name="Grupo 879177" transform="translate(17.865)">
          <g id="Grupo_879176" data-name="Grupo 879176" transform="translate(0)">
            <path id="Trazado_601885" data-name="Trazado 601885" d="M610.291,54.885a4.548,4.548,0,1,0,4.548-4.548A4.548,4.548,0,0,0,610.291,54.885Z" transform="translate(-610.291 -50.337)" fill="#fff4d6"/>
          </g>
        </g>
      </g>
      <g id="Grupo_879179" data-name="Grupo 879179" transform="translate(0 0)">
        <path id="Trazado_601886" data-name="Trazado 601886" d="M74.353,130.795c.006-40.631,33.836-85.153,75.94-87.843q1.109-.071,2.242-.124c60.36-2.813,64.959,70.806,119.571,79.109s96.317-33.613,161.665-6.266c58.689,24.562,74.586,162.58-97.855,168.115C197.949,288.216,74.335,252.018,74.353,130.795Z" transform="translate(-74.353 -42.75)" fill="#fff4d6"/>
      </g>
    </g>
    <g id="Grupo_880483" data-name="Grupo 880483" transform="translate(4298.945 1341.442)">
      <g id="Grupo_880482" data-name="Grupo 880482">
        <path id="Trazado_602942" data-name="Trazado 602942" d="M4696.56,1804.423H4301.331c-1.317,0-2.386-1.612-2.386-3.6s1.068-3.6,2.386-3.6H4696.56c1.317,0,2.385,1.612,2.385,3.6S4697.877,1804.423,4696.56,1804.423Z" transform="translate(-4298.945 -1797.222)" fill="#12263f"/>
      </g>
    </g>
    <g id="Grupo_880516" data-name="Grupo 880516" transform="translate(4456.125 1296.52)">
      <g id="Grupo_880486" data-name="Grupo 880486" transform="translate(1.305 1.454)">
        <g id="Grupo_880485" data-name="Grupo 880485">
          <g id="Grupo_880484" data-name="Grupo 880484">
            <path id="Trazado_602943" data-name="Trazado 602943" d="M4768.141,1710.071s13.589-17.529,0-41.535l104.011,1.142,6.795,6.859,2.352,17.911-5.487,12.956-10.193,3.429S4767.618,1710.832,4768.141,1710.071Z" transform="translate(-4768.139 -1668.535)" fill="#fff"/>
          </g>
        </g>
      </g>
      <g id="Grupo_880488" data-name="Grupo 880488" transform="translate(53.015 23.223)">
        <g id="Grupo_880487" data-name="Grupo 880487">
          <rect id="Rectángulo_298532" data-name="Rectángulo 298532" width="53.974" height="2.963" rx="0.357" fill="#c0e7fd"/>
        </g>
      </g>
      <g id="Grupo_880490" data-name="Grupo 880490" transform="translate(72.864 32.111)">
        <g id="Grupo_880489" data-name="Grupo 880489">
          <rect id="Rectángulo_298533" data-name="Rectángulo 298533" width="34.3" height="2.963" rx="0.324" fill="#c0e7fd"/>
        </g>
      </g>
      <g id="Grupo_880492" data-name="Grupo 880492" transform="translate(19.847 32.111)">
        <g id="Grupo_880491" data-name="Grupo 880491">
          <rect id="Rectángulo_298534" data-name="Rectángulo 298534" width="34.3" height="2.963" rx="0.324" fill="#c0e7fd"/>
        </g>
      </g>
      <g id="Grupo_880494" data-name="Grupo 880494" transform="translate(26.115 13.652)">
        <g id="Grupo_880493" data-name="Grupo 880493">
          <rect id="Rectángulo_298535" data-name="Rectángulo 298535" width="80.875" height="2.963" rx="0.357" fill="#c0e7fd"/>
        </g>
      </g>
      <g id="Grupo_880497" data-name="Grupo 880497" transform="translate(104.33 6.216)">
        <g id="Grupo_880496" data-name="Grupo 880496">
          <g id="Grupo_880495" data-name="Grupo 880495">
            <path id="Trazado_602944" data-name="Trazado 602944" d="M5075.7,1715.406s-5.75-17.34,0-32.772l11.236,9.146-4.572,16.194Z" transform="translate(-5073.145 -1682.634)" fill="#3c251d"/>
          </g>
        </g>
      </g>
      <g id="Grupo_880500" data-name="Grupo 880500" transform="translate(0)">
        <g id="Grupo_880499" data-name="Grupo 880499">
          <g id="Grupo_880498" data-name="Grupo 880498">
            <path id="Trazado_602945" data-name="Trazado 602945" d="M4954.983,1709.387H4764.276v-3.429h97.8c7.253,0,13.132-8.572,13.132-19.147s-5.879-19.149-13.132-19.149h-97.8v-3.429h190.708c8.553,0,15.485,10.109,15.485,22.579S4963.536,1709.387,4954.983,1709.387Z" transform="translate(-4764.276 -1664.231)" fill="#294ddc"/>
          </g>
        </g>
      </g>
      <g id="Grupo_880503" data-name="Grupo 880503" transform="translate(186.004 0.096)">
        <g id="Grupo_880502" data-name="Grupo 880502">
          <g id="Grupo_880501" data-name="Grupo 880501">
            <path id="Trazado_602946" data-name="Trazado 602946" d="M5315.625,1709.672l-.686-.09c.494-.205,8.723-5.288,8.723-21.322,0-13.305-3.417-20.485-6.174-23.744h1.959a11.082,11.082,0,0,1,4.669,1.158c2.359,5.3,4.283,12.633,4.283,22.585,0,9.156-2.7,16.066-6.115,20.995a10.833,10.833,0,0,1-2.837.417Z" transform="translate(-5314.938 -1664.516)" fill="#f9edae"/>
          </g>
        </g>
      </g>
      <g id="Grupo_880506" data-name="Grupo 880506" transform="translate(114.138 0.096)">
        <g id="Grupo_880505" data-name="Grupo 880505">
          <g id="Grupo_880504" data-name="Grupo 880504">
            <path id="Trazado_602947" data-name="Trazado 602947" d="M5102.864,1709.672l-.686-.09c.494-.205,8.722-5.288,8.722-21.322,0-13.305-3.417-20.485-6.174-23.744h1.96a11.079,11.079,0,0,1,4.669,1.158c2.358,5.3,4.283,12.633,4.283,22.585,0,9.156-2.7,16.066-6.115,20.995a10.833,10.833,0,0,1-2.837.417Z" transform="translate(-5102.179 -1664.516)" fill="#f9edae"/>
          </g>
        </g>
      </g>
      <g id="Grupo_880509" data-name="Grupo 880509" transform="translate(0)" opacity="0.19">
        <g id="Grupo_880508" data-name="Grupo 880508">
          <g id="Grupo_880507" data-name="Grupo 880507">
            <path id="Trazado_602948" data-name="Trazado 602948" d="M4879,1686.81c0,12.47-6.933,22.579-15.484,22.579h-99.242v-3.43h97.8c7.253,0,13.132-8.574,13.132-19.149s-5.879-19.149-13.132-19.149h-97.8v-3.429h99.242C4872.069,1664.231,4879,1674.34,4879,1686.81Z" transform="translate(-4764.276 -1664.231)" fill="#fff"/>
          </g>
        </g>
      </g>
      <g id="Grupo_880512" data-name="Grupo 880512" transform="translate(137.722 33.463)">
        <g id="Grupo_880511" data-name="Grupo 880511">
          <g id="Grupo_880510" data-name="Grupo 880510">
            <path id="Trazado_602949" data-name="Trazado 602949" d="M5214.041,1763.3h-40.958c-.594,0-1.081.71-1.081,1.576v.468c0,.866.487,1.576,1.081,1.576h40.958c.6,0,1.08-.71,1.08-1.576v-.468C5215.121,1764.007,5214.636,1763.3,5214.041,1763.3Z" transform="translate(-5172.001 -1763.297)" fill="#f9edae"/>
          </g>
        </g>
      </g>
      <g id="Grupo_880515" data-name="Grupo 880515" transform="translate(149.222 25.842)">
        <g id="Grupo_880514" data-name="Grupo 880514">
          <g id="Grupo_880513" data-name="Grupo 880513">
            <path id="Trazado_602950" data-name="Trazado 602950" d="M5227.7,1740.735h-20.574c-.594,0-1.081.708-1.081,1.576v.468c0,.866.487,1.576,1.081,1.576H5227.7c.6,0,1.081-.71,1.081-1.576v-.468C5228.78,1741.443,5228.295,1740.735,5227.7,1740.735Z" transform="translate(-5206.044 -1740.735)" fill="#f9edae"/>
          </g>
        </g>
      </g>
    </g>
    <g id="Grupo_880549" data-name="Grupo 880549" transform="translate(4484.478 1263.194)">
      <g id="Grupo_880519" data-name="Grupo 880519" transform="translate(0.974 1.085)">
        <g id="Grupo_880518" data-name="Grupo 880518">
          <g id="Grupo_880517" data-name="Grupo 880517">
            <path id="Trazado_602951" data-name="Trazado 602951" d="M4851.1,1599.782s10.142-13.082,0-31l77.625.852,5.071,5.119,1.755,13.367-4.1,9.669-7.606,2.559S4850.708,1600.351,4851.1,1599.782Z" transform="translate(-4851.096 -1568.784)" fill="#fff"/>
          </g>
        </g>
      </g>
      <g id="Grupo_880521" data-name="Grupo 880521" transform="translate(39.566 17.331)">
        <g id="Grupo_880520" data-name="Grupo 880520">
          <rect id="Rectángulo_298536" data-name="Rectángulo 298536" width="40.282" height="2.211" rx="0.351" fill="#c0e7fd"/>
        </g>
      </g>
      <g id="Grupo_880523" data-name="Grupo 880523" transform="translate(54.379 23.965)">
        <g id="Grupo_880522" data-name="Grupo 880522">
          <rect id="Rectángulo_298537" data-name="Rectángulo 298537" width="25.599" height="2.211" rx="0.324" fill="#c0e7fd"/>
        </g>
      </g>
      <g id="Grupo_880525" data-name="Grupo 880525" transform="translate(14.812 23.965)">
        <g id="Grupo_880524" data-name="Grupo 880524">
          <rect id="Rectángulo_298538" data-name="Rectángulo 298538" width="25.598" height="2.211" rx="0.324" fill="#c0e7fd"/>
        </g>
      </g>
      <g id="Grupo_880527" data-name="Grupo 880527" transform="translate(19.49 10.188)">
        <g id="Grupo_880526" data-name="Grupo 880526">
          <rect id="Rectángulo_298539" data-name="Rectángulo 298539" width="60.358" height="2.211" rx="0.351" fill="#c0e7fd"/>
        </g>
      </g>
      <g id="Grupo_880530" data-name="Grupo 880530" transform="translate(77.863 4.639)">
        <g id="Grupo_880529" data-name="Grupo 880529">
          <g id="Grupo_880528" data-name="Grupo 880528">
            <path id="Trazado_602952" data-name="Trazado 602952" d="M5080.633,1603.765s-4.292-12.941,0-24.458l8.386,6.826-3.412,12.086Z" transform="translate(-5078.726 -1579.306)" fill="#3c251d"/>
          </g>
        </g>
      </g>
      <g id="Grupo_880533" data-name="Grupo 880533" transform="translate(0 0)">
        <g id="Grupo_880532" data-name="Grupo 880532">
          <g id="Grupo_880531" data-name="Grupo 880531">
            <path id="Trazado_602953" data-name="Trazado 602953" d="M4990.541,1599.272H4848.213v-2.559h72.992c5.414,0,9.8-6.4,9.8-14.29s-4.388-14.291-9.8-14.291h-72.992v-2.559h142.328c6.382,0,11.556,7.544,11.556,16.851S4996.923,1599.272,4990.541,1599.272Z" transform="translate(-4848.213 -1565.572)" fill="#fc8a5e"/>
          </g>
        </g>
      </g>
      <g id="Grupo_880536" data-name="Grupo 880536" transform="translate(138.817 0.072)">
        <g id="Grupo_880535" data-name="Grupo 880535">
          <g id="Grupo_880534" data-name="Grupo 880534">
            <path id="Trazado_602954" data-name="Trazado 602954" d="M5259.691,1599.485l-.512-.067c.368-.154,6.51-3.947,6.51-15.913,0-9.93-2.55-15.289-4.607-17.72h1.462a8.271,8.271,0,0,1,3.485.865,40.987,40.987,0,0,1,3.2,16.856,26.987,26.987,0,0,1-4.563,15.668,8.087,8.087,0,0,1-2.118.312Z" transform="translate(-5259.179 -1565.784)" fill="#f9edae"/>
          </g>
        </g>
      </g>
      <g id="Grupo_880539" data-name="Grupo 880539" transform="translate(85.182 0.072)">
        <g id="Grupo_880538" data-name="Grupo 880538">
          <g id="Grupo_880537" data-name="Grupo 880537">
            <path id="Trazado_602955" data-name="Trazado 602955" d="M5100.905,1599.485l-.512-.067c.368-.154,6.509-3.947,6.509-15.913,0-9.93-2.549-15.289-4.607-17.72h1.463a8.269,8.269,0,0,1,3.484.865,40.987,40.987,0,0,1,3.2,16.856,26.987,26.987,0,0,1-4.562,15.668,8.09,8.09,0,0,1-2.118.312Z" transform="translate(-5100.394 -1565.784)" fill="#f9edae"/>
          </g>
        </g>
      </g>
      <g id="Grupo_880542" data-name="Grupo 880542" transform="translate(0 0)" opacity="0.19">
        <g id="Grupo_880541" data-name="Grupo 880541">
          <g id="Grupo_880540" data-name="Grupo 880540">
            <path id="Trazado_602956" data-name="Trazado 602956" d="M4933.834,1582.423c0,9.307-5.174,16.851-11.556,16.851h-74.065v-2.559h72.992c5.414,0,9.8-6.4,9.8-14.292s-4.388-14.291-9.8-14.291h-72.992v-2.559h74.065C4928.661,1565.572,4933.834,1573.116,4933.834,1582.423Z" transform="translate(-4848.213 -1565.572)" fill="#fff"/>
          </g>
        </g>
      </g>
      <g id="Grupo_880545" data-name="Grupo 880545" transform="translate(102.784 24.974)">
        <g id="Grupo_880544" data-name="Grupo 880544">
          <g id="Grupo_880543" data-name="Grupo 880543">
            <path id="Trazado_602957" data-name="Trazado 602957" d="M5183.878,1639.506h-30.567c-.443,0-.807.53-.807,1.176v.35c0,.646.364,1.176.807,1.176h30.567c.444,0,.806-.53.806-1.176v-.35C5184.685,1640.036,5184.323,1639.506,5183.878,1639.506Z" transform="translate(-5152.504 -1639.506)" fill="#f9edae"/>
          </g>
        </g>
      </g>
      <g id="Grupo_880548" data-name="Grupo 880548" transform="translate(111.366 19.286)">
        <g id="Grupo_880547" data-name="Grupo 880547">
          <g id="Grupo_880546" data-name="Grupo 880546">
            <path id="Trazado_602958" data-name="Trazado 602958" d="M5194.072,1622.668h-15.355c-.443,0-.806.528-.806,1.176v.35c0,.646.363,1.176.806,1.176h15.355c.444,0,.807-.53.807-1.176v-.35C5194.878,1623.2,5194.516,1622.668,5194.072,1622.668Z" transform="translate(-5177.911 -1622.668)" fill="#f9edae"/>
          </g>
        </g>
      </g>
    </g>
    <g id="Grupo_880711" data-name="Grupo 880711" transform="translate(4306.593 1124.27)">
      <g id="Grupo_880551" data-name="Grupo 880551" transform="translate(106.291 76.666)">
        <g id="Grupo_880550" data-name="Grupo 880550">
          <path id="Trazado_602959" data-name="Trazado 602959" d="M4693.635,1459.628a24.982,24.982,0,0,0,3.769-.288c25.009-3.787,21.136-40.187,18.871-72.976l-23.5-3.009c0,14.667.012,29.96-2.068,38.924-4.777-4.915-12.428-11.758-24.726-34.349-1.491-2.738-2.744-5.033-3.7-6.675l-26.016,15.107c.849,1.463,1.961,3.511,3.291,5.953C4656.016,1432.56,4672.582,1459.628,4693.635,1459.628Z" transform="translate(-4636.263 -1381.255)" fill="#f49d8b"/>
        </g>
      </g>
      <g id="Grupo_880553" data-name="Grupo 880553" transform="translate(26.328 0)">
        <g id="Grupo_880552" data-name="Grupo 880552">
          <path id="Trazado_602960" data-name="Trazado 602960" d="M4444.847,1158.755c-8.038-.753-11.458,3.009-13.852,10.875s1.71,13.337-3.078,20.519-13.68,8.892-15.39,14.364.684,7.865-.684,11.627-12.312,9.576-12.312,11.969,2.052,5.472,2.052,5.472l81.05-12.311,7.523-4.788s5.472-6.839-.684-10.6-11.286-2.736-12.312-14.021,0-23.939-5.129-30.779-19.493-8.208-23.255-5.472S4444.847,1158.755,4444.847,1158.755Z" transform="translate(-4399.533 -1154.288)" fill="#12263f"/>
        </g>
      </g>
      <g id="Grupo_880555" data-name="Grupo 880555" transform="translate(94.305 24.96)">
        <g id="Grupo_880554" data-name="Grupo 880554">
          <path id="Trazado_602961" data-name="Trazado 602961" d="M4601.11,1231.429s4.049-4.232,7.506-3.035,4,8.617.32,10.1-8.161-1.361-8.161-1.361Z" transform="translate(-4600.776 -1228.181)" fill="#f49d8b"/>
        </g>
      </g>
      <g id="Grupo_880557" data-name="Grupo 880557" transform="translate(97.689 27.31)">
        <g id="Grupo_880556" data-name="Grupo 880556">
          <path id="Trazado_602962" data-name="Trazado 602962" d="M4614.508,1241.469a.151.151,0,0,0,.044-.012,3.614,3.614,0,0,0,.25-6.035c-.839-.449-1.969-.367-3.9.281a.151.151,0,0,0,.1.287c1.821-.611,2.916-.7,3.663-.3a2.932,2.932,0,0,1,1.278,1.991,2.878,2.878,0,0,1-1.507,3.5.151.151,0,0,0,.079.289Z" transform="translate(-4610.797 -1235.139)" fill="none" stroke="#12263f" stroke-width="1"/>
        </g>
      </g>
      <g id="Grupo_880559" data-name="Grupo 880559" transform="translate(96.59 34.245)">
        <g id="Grupo_880558" data-name="Grupo 880558">
          <path id="Trazado_602963" data-name="Trazado 602963" d="M4612.006,1255.77c-.137-1.034,5.653,6.342-.965,6.342s-1.819-4.882-1.819-4.882l.716.263s-.827,3.1,1.172,3.1.621-4.687.621-4.687Z" transform="translate(-4607.541 -1255.671)" fill="#edbc2c"/>
        </g>
      </g>
      <g id="Grupo_880561" data-name="Grupo 880561" transform="translate(1.961 103.623)">
        <g id="Grupo_880560" data-name="Grupo 880560">
          <path id="Trazado_602964" data-name="Trazado 602964" d="M4367.988,1478.328l-11.727-8.622,11.711,8.645-11.711-8.645-11.71-8.645c-2.9,3.929-12.889,18.287-17.158,34.783,10.214.867,20.428,2.92,30.641,3.278A61.369,61.369,0,0,1,4367.988,1478.328Z" transform="translate(-4327.393 -1461.061)" fill="#f49d8b"/>
        </g>
      </g>
      <g id="Grupo_880563" data-name="Grupo 880563" transform="translate(9.542 108.75)">
        <g id="Grupo_880562" data-name="Grupo 880562">
          <path id="Trazado_602965" data-name="Trazado 602965" d="M4367.03,1498.184c7.523,2.052-3.486-20.791-3.486-20.791l-8.794-1.152c-1.417,2.382-3.512,7.959-4.912,10.128C4353.076,1489.632,4360.828,1496.493,4367.03,1498.184Z" transform="translate(-4349.837 -1476.241)" fill="#12263f"/>
        </g>
      </g>
      <g id="Grupo_880565" data-name="Grupo 880565" transform="translate(121.473 104.248)">
        <g id="Grupo_880564" data-name="Grupo 880564">
          <path id="Trazado_602966" data-name="Trazado 602966" d="M4706.188,1467.207a9.424,9.424,0,0,0,.754-1.736c-.758-.824-1.515-1.675-2.267-2.56-6.467.439-23.467,10.351-23.467,10.351s.724-1.228.73.936c2.046,2.641,4.6,8.783,7.386,11.661A53.814,53.814,0,0,0,4706.188,1467.207Z" transform="translate(-4681.209 -1462.911)" fill="#12263f"/>
        </g>
      </g>
      <g id="Grupo_880567" data-name="Grupo 880567" transform="translate(17.957 165.804)">
        <g id="Grupo_880566" data-name="Grupo 880566">
          <path id="Trazado_602967" data-name="Trazado 602967" d="M4405.187,1645.491s-16.757,12.654-30.437,50.956h132.861s-13.166-39.157-29.068-51.3Z" transform="translate(-4374.75 -1645.149)" fill="#6aceae"/>
        </g>
      </g>
      <g id="Grupo_880569" data-name="Grupo 880569" transform="translate(7.013 58.801)">
        <g id="Grupo_880568" data-name="Grupo 880568">
          <path id="Trazado_602968" data-name="Trazado 602968" d="M4402.993,1328.434c-16.867,2.288-28.152,8.1-33.966,12.89s-22.571,33.514-26.675,35.909c0,0,10.6,20.519,22.229,24.281l11.627,3.762,4.446-9.576s2.052,31.007,5.7,35.111c0,0,48.791,12.767,69.31,1.6,0,0,1.823-.228,4.1-5.016s2.28-27.245,2.28-27.245a25.821,25.821,0,0,0,5.814-13.68s15.49-5.791,23.1-16.959c0,0-5.891-10.742-13.187-16.9s-16.187-19.379-23.027-22.115-25.763-2.052-25.763-2.052Z" transform="translate(-4342.352 -1328.367)" fill="#f3c035"/>
        </g>
      </g>
      <g id="Grupo_880571" data-name="Grupo 880571" transform="translate(67.654 43.492)">
        <g id="Grupo_880570" data-name="Grupo 880570">
          <path id="Trazado_602969" data-name="Trazado 602969" d="M4527.588,1283.045s1.373,10.448-.37,12.527-5.34,2.85-5.34,2.85,8.7,15.436,23.651,13.916c13.469-1.369,6.221-14.021,6.221-14.021s-5.3-.6-6.555-1.767-1.375-11.042-1.375-11.042Z" transform="translate(-4521.878 -1283.045)" fill="#f49d8b"/>
        </g>
      </g>
      <g id="Grupo_880573" data-name="Grupo 880573" transform="translate(74.612 44.054)">
        <g id="Grupo_880572" data-name="Grupo 880572">
          <path id="Trazado_602970" data-name="Trazado 602970" d="M4542.477,1284.709l6.434.6,8.568,1.3a54.008,54.008,0,0,0,.328,6.686A17.977,17.977,0,0,1,4542.477,1284.709Z" transform="translate(-4542.477 -1284.709)" fill="#12263f"/>
        </g>
      </g>
      <g id="Grupo_880575" data-name="Grupo 880575" transform="translate(64.493 3.73)">
        <g id="Grupo_880574" data-name="Grupo 880574">
          <path id="Trazado_602971" data-name="Trazado 602971" d="M4545.9,1176.586c1.106,2.787.044,7.063,1.055,12.881s1.446,17.519-6.809,19.826a22.589,22.589,0,0,1-15.522-1.178,15.163,15.163,0,0,1-7.732-9.37l-3.75-13.05a15.72,15.72,0,0,1,11.1-19.637q.3-.075.6-.14C4541.67,1162.3,4545.9,1176.586,4545.9,1176.586Z" transform="translate(-4512.521 -1165.331)" fill="#f49d8b"/>
        </g>
      </g>
      <g id="Grupo_880577" data-name="Grupo 880577" transform="translate(80.555 27.412)">
        <g id="Grupo_880576" data-name="Grupo 880576">
          <path id="Trazado_602972" data-name="Trazado 602972" d="M4560.086,1237.234c-.081-.957.169-1.76.558-1.793s.769.717.849,1.674-.169,1.76-.557,1.793S4560.167,1238.191,4560.086,1237.234Z" transform="translate(-4560.071 -1235.44)" fill="#12263f"/>
        </g>
      </g>
      <g id="Grupo_880579" data-name="Grupo 880579" transform="translate(93.29 26.026)">
        <g id="Grupo_880578" data-name="Grupo 880578">
          <path id="Trazado_602973" data-name="Trazado 602973" d="M4597.787,1233.13c-.08-.958.169-1.76.558-1.793s.769.717.849,1.674-.169,1.76-.558,1.793S4597.867,1234.087,4597.787,1233.13Z" transform="translate(-4597.771 -1231.336)" fill="#12263f"/>
        </g>
      </g>
      <g id="Grupo_880581" data-name="Grupo 880581" transform="translate(88.128 28.706)">
        <g id="Grupo_880580" data-name="Grupo 880580">
          <path id="Trazado_602974" data-name="Trazado 602974" d="M4583.852,1246.564a.2.2,0,0,1-.115-.054.2.2,0,0,1-.01-.285,5.748,5.748,0,0,0,1.353-2.847c.094-.761-.407-1.181-1.042-1.712a3.805,3.805,0,0,1-1.542-2.15.2.2,0,0,1,.4-.083,3.434,3.434,0,0,0,1.406,1.923c.642.537,1.306,1.092,1.183,2.071a6.061,6.061,0,0,1-1.458,3.073A.2.2,0,0,1,4583.852,1246.564Z" transform="translate(-4582.49 -1239.273)" fill="none" stroke="#12263f" stroke-width="1"/>
        </g>
      </g>
      <g id="Grupo_880583" data-name="Grupo 880583" transform="translate(78.204 24.324)">
        <g id="Grupo_880582" data-name="Grupo 880582">
          <path id="Trazado_602975" data-name="Trazado 602975" d="M4553.738,1228.591a.605.605,0,0,0,.4-.169,4.371,4.371,0,0,1,3.563-.854.605.605,0,1,0,.172-1.2,5.553,5.553,0,0,0-4.577,1.182.605.605,0,0,0,.443,1.038Z" transform="translate(-4553.112 -1226.299)" fill="#12263f"/>
        </g>
      </g>
      <g id="Grupo_880585" data-name="Grupo 880585" transform="translate(91.144 23.228)">
        <g id="Grupo_880584" data-name="Grupo 880584">
          <path id="Trazado_602976" data-name="Trazado 602976" d="M4591.846,1224.522a.6.6,0,0,0,.432-.028,4.37,4.37,0,0,1,3.645.365.605.605,0,1,0,.556-1.075,5.556,5.556,0,0,0-4.711-.387.605.605,0,0,0,.078,1.126Z" transform="translate(-4591.419 -1223.053)" fill="#12263f"/>
        </g>
      </g>
      <g id="Grupo_880587" data-name="Grupo 880587" transform="translate(62.069 3.269)">
        <g id="Grupo_880586" data-name="Grupo 880586">
          <path id="Trazado_602977" data-name="Trazado 602977" d="M4513.183,1191.9a58.193,58.193,0,0,0,8.747-17.616,47.3,47.3,0,0,0,9.4,2.875c4.772.843,7.273-.173,9.83,3.673s1.341-2.065,1.341-2.065-2.72-20.089-25.094-13.455-6.755,29.1-6.755,29.1Z" transform="translate(-4505.345 -1163.964)" fill="#12263f"/>
        </g>
      </g>
      <g id="Grupo_880595" data-name="Grupo 880595" transform="translate(81.642 37.032)">
        <g id="Grupo_880594" data-name="Grupo 880594">
          <path id="Trazado_602981" data-name="Trazado 602981" d="M4570.568,1265.026c.8.159,1.611.193,2.417.311.858.127,1.506.666,1.3,1.58-.846,3.683-5.994,3.281-8.679,2.231a4,4,0,0,1-1.677-1.12c-.826-1-.941-2.866.208-3.689.98-.7,2.373-.366,3.446-.105.921.224,1.822.524,2.746.739C4570.405,1264.992,4570.486,1265.01,4570.568,1265.026Z" transform="translate(-4563.288 -1263.921)" fill="none" stroke="#12263f" stroke-width="1"/>
        </g>
      </g>
      <g id="Grupo_880601" data-name="Grupo 880601" transform="translate(61.137 27.694)">
        <g id="Grupo_880600" data-name="Grupo 880600">
          <path id="Trazado_602984" data-name="Trazado 602984" d="M4512.939,1239.525s-4.049-4.232-7.506-3.035-4,8.617-.32,10.1,8.16-1.361,8.16-1.361Z" transform="translate(-4502.585 -1236.277)" fill="#f49d8b"/>
        </g>
      </g>
      <g id="Grupo_880603" data-name="Grupo 880603" transform="translate(62.867 30.045)">
        <g id="Grupo_880602" data-name="Grupo 880602">
          <path id="Trazado_602985" data-name="Trazado 602985" d="M4509.567,1249.565a.158.158,0,0,1-.045-.012,3.614,3.614,0,0,1-.249-6.035c.838-.449,1.97-.367,3.9.281a.151.151,0,0,1-.1.287c-1.821-.611-2.917-.7-3.664-.3a2.93,2.93,0,0,0-1.277,1.991,2.876,2.876,0,0,0,1.507,3.5.151.151,0,0,1-.079.289Z" transform="translate(-4507.705 -1243.235)" fill="none" stroke="#12263f" stroke-width="1"/>
        </g>
      </g>
      <g id="Grupo_880609" data-name="Grupo 880609" transform="translate(48.394 159.82)">
        <g id="Grupo_880608" data-name="Grupo 880608">
          <path id="Trazado_602988" data-name="Trazado 602988" d="M4538.9,1628.8a225.4,225.4,0,0,1-72.843-1.368l-1.2,6.327s52.495,11.457,74.04.513Z" transform="translate(-4464.858 -1627.431)" fill="#3c251d"/>
        </g>
      </g>
      <g id="Grupo_880611" data-name="Grupo 880611" transform="translate(124.193 95.119)">
        <g id="Grupo_880610" data-name="Grupo 880610">
          <path id="Trazado_602989" data-name="Trazado 602989" d="M4697.588,1457.9a.238.238,0,0,1-.237-.237c0-14.193-7.929-21.3-8.012-21.367a.237.237,0,0,1,.313-.357c.081.072,8.172,7.307,8.172,21.724A.238.238,0,0,1,4697.588,1457.9Z" transform="translate(-4689.26 -1435.885)" fill="none" stroke="#12263f" stroke-width="1"/>
        </g>
      </g>
      <g id="Grupo_880613" data-name="Grupo 880613" transform="translate(45.081 107.886)">
        <g id="Grupo_880612" data-name="Grupo 880612">
          <path id="Trazado_602990" data-name="Trazado 602990" d="M4455.286,1492.168a.227.227,0,0,1-.077-.014.239.239,0,0,1-.148-.3c2.931-8.574,7.034-17.937,7.078-18.03a.235.235,0,1,1,.431.191c-.04.094-4.134,9.438-7.059,17.993A.24.24,0,0,1,4455.286,1492.168Z" transform="translate(-4455.049 -1473.683)" fill="none" stroke="#12263f" stroke-width="1"/>
        </g>
      </g>
      <g id="Grupo_880615" data-name="Grupo 880615" transform="translate(49.185 111.079)">
        <g id="Grupo_880614" data-name="Grupo 880614">
          <path id="Trazado_602991" data-name="Trazado 602991" d="M4467.436,1487.711a.235.235,0,0,1-.182-.087.238.238,0,0,1,.031-.333l5.017-4.1a.235.235,0,0,1,.332.034.238.238,0,0,1-.031.332l-5.017,4.1A.247.247,0,0,1,4467.436,1487.711Z" transform="translate(-4467.2 -1483.134)" fill="none" stroke="#12263f" stroke-width="1"/>
        </g>
      </g>
      <g id="Grupo_880617" data-name="Grupo 880617" transform="translate(63.32 119.057)">
        <g id="Grupo_880616" data-name="Grupo 880616">
          <path id="Trazado_602992" data-name="Trazado 602992" d="M4523.532,1514.035a39.468,39.468,0,0,1-14.336-2.947.236.236,0,1,1,.172-.44c21.229,8.266,31.317-3.686,31.419-3.806a.238.238,0,0,1,.335-.034.241.241,0,0,1,.034.332C4541.08,1507.233,4535.356,1514.035,4523.532,1514.035Z" transform="translate(-4509.045 -1506.755)" fill="none" stroke="#12263f" stroke-width="1"/>
        </g>
      </g>
      <g id="Grupo_880619" data-name="Grupo 880619" transform="translate(75.857 66.619)">
        <g id="Grupo_880618" data-name="Grupo 880618">
          <path id="Trazado_602993" data-name="Trazado 602993" d="M4562.285,1361.45c-7.542,0-15.6-5.349-16.018-5.63a.236.236,0,1,1,.264-.391c.126.083,12.534,8.316,20.746,4.54,3.266-1.5,5.256-3.26,5.912-5.233a3.871,3.871,0,0,0-.092-2.873.236.236,0,1,1,.413-.228,4.266,4.266,0,0,1,.135,3.236c-.7,2.107-2.771,3.966-6.17,5.528A12.346,12.346,0,0,1,4562.285,1361.45Z" transform="translate(-4546.164 -1351.512)" fill="none" stroke="#12263f" stroke-width="1"/>
        </g>
      </g>
      <g id="Grupo_880621" data-name="Grupo 880621" transform="translate(91.754 161.4)">
        <g id="Grupo_880620" data-name="Grupo 880620">
          <path id="Trazado_602994" data-name="Trazado 602994" d="M4593.225,1642.329v-8.664a1.553,1.553,0,0,1,1.555-1.555h14.591a1.554,1.554,0,0,1,1.555,1.555v8.664a1.554,1.554,0,0,1-1.555,1.555H4594.78A1.554,1.554,0,0,1,4593.225,1642.329Zm14.591-7.109h-11.481v5.554h11.481Z" transform="translate(-4593.225 -1632.11)" fill="#edbc2c"/>
        </g>
      </g>
      <g id="Grupo_880623" data-name="Grupo 880623" transform="translate(71.991 162.384)">
        <g id="Grupo_880622" data-name="Grupo 880622">
          <path id="Trazado_602995" data-name="Trazado 602995" d="M4539.732,1643.688l-.228-8.436-4.788-.228v9.348Z" transform="translate(-4534.717 -1635.024)" fill="#47486c"/>
        </g>
      </g>
      <g id="Grupo_880625" data-name="Grupo 880625" transform="translate(52.612 160.219)">
        <g id="Grupo_880624" data-name="Grupo 880624">
          <path id="Trazado_602996" data-name="Trazado 602996" d="M4481.791,1636.82l.912-7.41-4.218-.8-1.14,7.638Z" transform="translate(-4477.345 -1628.612)" fill="#de5a4c"/>
        </g>
      </g>
      <g id="Grupo_880627" data-name="Grupo 880627" transform="translate(0 138.406)">
        <g id="Grupo_880626" data-name="Grupo 880626">
          <path id="Trazado_602997" data-name="Trazado 602997" d="M4397.614,1565.781c-22.663,7.846-36.274,11.866-44.348,9.595-.5-2.823.071-4.5.924-8.063-10.213-.357-20.427-2.411-30.641-3.277-2.479,9.585-3.034,19.889.87,29.293,5.163,12.434,11.751,13.4,27.329,13.4,19.242,0,45.591-11.4,56.75-18.917Z" transform="translate(-4321.589 -1564.035)" fill="#f49d8b"/>
        </g>
      </g>
      <g id="Grupo_880631" data-name="Grupo 880631" transform="translate(91.199 160.41)">
        <g id="Grupo_880630" data-name="Grupo 880630">
          <path id="Trazado_602999" data-name="Trazado 602999" d="M4591.974,1630.982a.393.393,0,0,1-.083-.778l4.678-1.018a.393.393,0,0,1,.166.769l-4.678,1.018A.392.392,0,0,1,4591.974,1630.982Z" transform="translate(-4591.581 -1629.178)" fill="#edbc2c"/>
        </g>
      </g>
      <g id="Grupo_880633" data-name="Grupo 880633" transform="translate(96.549 139.099)">
        <g id="Grupo_880632" data-name="Grupo 880632">
          <path id="Trazado_603000" data-name="Trazado 603000" d="M4608.052,1580.208a.512.512,0,0,1-.231-.055c-.535-.275-.5-1.243-.1-5.624a75.506,75.506,0,0,0,.455-8.037.4.4,0,0,1,.385-.4h.009a.394.394,0,0,1,.394.383,77.115,77.115,0,0,1-.458,8.131c-.16,1.733-.335,3.654-.3,4.52,1.093-1.55,3.334-7.059,3.394-9.778a.4.4,0,0,1,.393-.384h.01a.393.393,0,0,1,.384.4c-.064,2.908-2.672,9.586-3.94,10.682A.6.6,0,0,1,4608.052,1580.208Z" transform="translate(-4607.419 -1566.087)" fill="#3c251d"/>
        </g>
      </g>
      <g id="Grupo_880635" data-name="Grupo 880635" transform="translate(96.156 140.92)">
        <g id="Grupo_880634" data-name="Grupo 880634">
          <path id="Trazado_603001" data-name="Trazado 603001" d="M4613.881,1571.9h-.01l-6.945.808a.218.218,0,0,1-.209-.1l-.429-.72a.215.215,0,0,1,.37-.221l.357.6,6.8-.79a.215.215,0,0,1,.064.425Z" transform="translate(-4606.257 -1571.478)" fill="#3c251d"/>
        </g>
      </g>
      <g id="Grupo_880640" data-name="Grupo 880640" transform="translate(88.239 146.684)">
        <g id="Grupo_880637" data-name="Grupo 880637" transform="translate(0 0.212)">
          <g id="Grupo_880636" data-name="Grupo 880636">
            <path id="Trazado_603002" data-name="Trazado 603002" d="M4585.41,1590.719a.181.181,0,0,1-.026.112.178.178,0,0,1-.245.058l-2.235-1.386a.179.179,0,0,1,.188-.3l2.235,1.386A.179.179,0,0,1,4585.41,1590.719Z" transform="translate(-4582.819 -1589.172)" fill="#3c251d"/>
          </g>
        </g>
        <g id="Grupo_880639" data-name="Grupo 880639" transform="translate(0.164)">
          <g id="Grupo_880638" data-name="Grupo 880638">
            <path id="Trazado_603003" data-name="Trazado 603003" d="M4583.3,1590.551a.173.173,0,0,0,.048.1.178.178,0,0,0,.252.007l1.907-1.81a.179.179,0,0,0-.245-.26l-1.907,1.811A.177.177,0,0,0,4583.3,1590.551Z" transform="translate(-4583.304 -1588.544)" fill="#3c251d"/>
          </g>
        </g>
      </g>
      <g id="Grupo_880645" data-name="Grupo 880645" transform="translate(88.834 153.558)">
        <g id="Grupo_880642" data-name="Grupo 880642" transform="translate(0 0.212)">
          <g id="Grupo_880641" data-name="Grupo 880641">
            <path id="Trazado_603004" data-name="Trazado 603004" d="M4587.172,1611.067a.175.175,0,0,1-.026.112.178.178,0,0,1-.245.058l-2.235-1.386a.178.178,0,0,1,.188-.3l2.235,1.386A.179.179,0,0,1,4587.172,1611.067Z" transform="translate(-4584.581 -1609.521)" fill="#3c251d"/>
          </g>
        </g>
        <g id="Grupo_880644" data-name="Grupo 880644" transform="translate(0.164)">
          <g id="Grupo_880643" data-name="Grupo 880643">
            <path id="Trazado_603005" data-name="Trazado 603005" d="M4585.066,1610.9a.175.175,0,0,0,.049.1.178.178,0,0,0,.252.007l1.907-1.81a.179.179,0,0,0-.246-.259l-1.907,1.81A.18.18,0,0,0,4585.066,1610.9Z" transform="translate(-4585.065 -1608.893)" fill="#3c251d"/>
          </g>
        </g>
      </g>
      <g id="Grupo_880681" data-name="Grupo 880681" transform="translate(65.763 120.084)">
        <g id="Grupo_880647" data-name="Grupo 880647" transform="translate(3.235)">
          <g id="Grupo_880646" data-name="Grupo 880646">
            <path id="Trazado_603006" data-name="Trazado 603006" d="M4525.856,1533.362c4.3-4.393,6.621-6.986,7.5-8.642s9.293-9.029,12.356-12.726c2.837-3.423,7.108-3.036,6.347,2.459-.712,5.132-9.986,10.88-8.442,10.8,4.766-.252,6.508-.292,6.508-.292l.35,20.761-2.661,4.006-10.144.3Z" transform="translate(-4525.856 -1509.794)" fill="#f49d8b"/>
          </g>
        </g>
        <g id="Grupo_880649" data-name="Grupo 880649" transform="translate(15.872 35.96)">
          <g id="Grupo_880648" data-name="Grupo 880648">
            <path id="Trazado_603007" data-name="Trazado 603007" d="M4587.608,1622.505a3.216,3.216,0,0,1-1.486.35l-19.613-.094a3.254,3.254,0,1,1,.032-6.508l19.614.094a3.254,3.254,0,0,1,1.453,6.158Z" transform="translate(-4563.268 -1616.253)" fill="#f49d8b"/>
          </g>
        </g>
        <g id="Grupo_880651" data-name="Grupo 880651" transform="translate(22.073 12.67)">
          <g id="Grupo_880650" data-name="Grupo 880650">
            <path id="Trazado_603008" data-name="Trazado 603008" d="M4608.76,1555.816a4.378,4.378,0,0,1-.687.14l-19.61,2.326a4.343,4.343,0,0,1-4.823-3.8c-.282-2.384-6.244-4.64,3.8-4.823l19.609-2.326a4.341,4.341,0,0,1,1.712,8.482Z" transform="translate(-4581.628 -1547.304)" fill="#f49d8b"/>
          </g>
        </g>
        <g id="Grupo_880653" data-name="Grupo 880653" transform="translate(0 19.578)">
          <g id="Grupo_880652" data-name="Grupo 880652">
            <path id="Trazado_603009" data-name="Trazado 603009" d="M4516.28,1574.448s7.832-6.755,10.98-6.692c8.937.178,12.645,1.573,12.645,1.573s9.944,18.315,5.664,19.855c-4.027,1.449-26.667,3.808-26.667,3.808Z" transform="translate(-4516.28 -1567.755)" fill="#f49d8b"/>
          </g>
        </g>
        <g id="Grupo_880658" data-name="Grupo 880658" transform="translate(22.942 18.946)">
          <g id="Grupo_880655" data-name="Grupo 880655" transform="translate(0 0.212)">
            <g id="Grupo_880654" data-name="Grupo 880654">
              <path id="Trazado_603010" data-name="Trazado 603010" d="M4586.791,1568.057a.18.18,0,0,1-.026.112.178.178,0,0,1-.245.058l-2.235-1.386a.178.178,0,1,1,.187-.3l2.235,1.386A.181.181,0,0,1,4586.791,1568.057Z" transform="translate(-4584.2 -1566.51)" fill="none" stroke="#12263f" stroke-width="1"/>
            </g>
          </g>
          <g id="Grupo_880657" data-name="Grupo 880657" transform="translate(0.164)">
            <g id="Grupo_880656" data-name="Grupo 880656">
              <path id="Trazado_603011" data-name="Trazado 603011" d="M4584.686,1567.889a.17.17,0,0,0,.048.1.178.178,0,0,0,.251.007l1.907-1.811a.178.178,0,0,0-.245-.259l-1.908,1.811A.176.176,0,0,0,4584.686,1567.889Z" transform="translate(-4584.685 -1565.882)" fill="none" stroke="#12263f" stroke-width="1"/>
            </g>
          </g>
        </g>
        <g id="Grupo_880660" data-name="Grupo 880660" transform="translate(44.983 15.256)">
          <g id="Grupo_880659" data-name="Grupo 880659">
            <path id="Trazado_603012" data-name="Trazado 603012" d="M4654.682,1559.268a.171.171,0,0,1-.16-.033.176.176,0,0,1-.021-.245c1.232-1.477-.066-3.284-.371-3.672l-4.1.566c-.652,1.17.239,3.865.25,3.892a.173.173,0,0,1-.109.221l-.008,0a.173.173,0,0,1-.213-.111c-.042-.12-.988-2.993-.171-4.259a.187.187,0,0,1,.123-.079l4.275-.59a.171.171,0,0,1,.154.061c.019.021,1.981,2.338.434,4.192A.162.162,0,0,1,4654.682,1559.268Z" transform="translate(-4649.45 -1554.958)" fill="none" stroke="#12263f" stroke-width="1"/>
          </g>
        </g>
        <g id="Grupo_880662" data-name="Grupo 880662" transform="translate(21.437 21.172)">
          <g id="Grupo_880661" data-name="Grupo 880661">
            <path id="Trazado_603013" data-name="Trazado 603013" d="M4584.4,1582.092c.114,0,.228,0,.343-.011l14.674-.989a4.439,4.439,0,0,0,4.313-4.617,4.587,4.587,0,0,0-4.991-3.991l-14.673.989a4.44,4.44,0,0,0-4.313,4.618A4.534,4.534,0,0,0,4584.4,1582.092Z" transform="translate(-4579.743 -1572.474)" fill="#f49d8b"/>
          </g>
        </g>
        <g id="Grupo_880664" data-name="Grupo 880664" transform="translate(21.437 27.877)">
          <g id="Grupo_880663" data-name="Grupo 880663">
            <path id="Trazado_603014" data-name="Trazado 603014" d="M4584.4,1601.942c.114,0,.228,0,.343-.011l14.674-.989a4.44,4.44,0,0,0,4.313-4.617,4.587,4.587,0,0,0-4.991-3.991l-14.673.989a4.44,4.44,0,0,0-4.313,4.618A4.534,4.534,0,0,0,4584.4,1601.942Z" transform="translate(-4579.743 -1592.325)" fill="#f49d8b"/>
          </g>
        </g>
        <g id="Grupo_880666" data-name="Grupo 880666" transform="translate(31.307 21.711)">
          <g id="Grupo_880665" data-name="Grupo 880665">
            <path id="Trazado_603015" data-name="Trazado 603015" d="M4609.2,1575.513a.237.237,0,0,1,0-.474c.274,0,7.926-.636,11.934-.97a.262.262,0,0,1,.255.215.237.237,0,0,1-.218.255C4619.978,1574.64,4609.492,1575.513,4609.2,1575.513Z" transform="translate(-4608.963 -1574.069)" fill="none" stroke="#12263f" stroke-width="1"/>
          </g>
        </g>
        <g id="Grupo_880668" data-name="Grupo 880668" transform="translate(35.095 28.708)">
          <g id="Grupo_880667" data-name="Grupo 880667">
            <path id="Trazado_603016" data-name="Trazado 603016" d="M4620.417,1595.936a.236.236,0,0,1-.019-.472l8.456-.68a.248.248,0,0,1,.255.217.238.238,0,0,1-.218.254l-8.456.68Z" transform="translate(-4620.18 -1594.784)" fill="none" stroke="#12263f" stroke-width="1"/>
          </g>
        </g>
        <g id="Grupo_880670" data-name="Grupo 880670" transform="translate(34.124 36.384)">
          <g id="Grupo_880669" data-name="Grupo 880669">
            <path id="Trazado_603017" data-name="Trazado 603017" d="M4623.662,1617.982h-6.121a.237.237,0,0,1,0-.474h6.121a.237.237,0,1,1,0,.474Z" transform="translate(-4617.305 -1617.508)" fill="none" stroke="#12263f" stroke-width="1"/>
          </g>
        </g>
        <g id="Grupo_880675" data-name="Grupo 880675" transform="translate(23.234 25.651)">
          <g id="Grupo_880672" data-name="Grupo 880672" transform="translate(0 0.212)">
            <g id="Grupo_880671" data-name="Grupo 880671">
              <path id="Trazado_603018" data-name="Trazado 603018" d="M4587.654,1587.907a.179.179,0,0,1-.271.17l-2.235-1.386a.178.178,0,0,1,.188-.3l2.235,1.386A.18.18,0,0,1,4587.654,1587.907Z" transform="translate(-4585.063 -1586.36)" fill="none" stroke="#12263f" stroke-width="1"/>
            </g>
          </g>
          <g id="Grupo_880674" data-name="Grupo 880674" transform="translate(0.164)">
            <g id="Grupo_880673" data-name="Grupo 880673">
              <path id="Trazado_603019" data-name="Trazado 603019" d="M4585.549,1587.74a.173.173,0,0,0,.048.1.178.178,0,0,0,.252.007l1.907-1.81a.179.179,0,0,0-.246-.26l-1.907,1.81A.179.179,0,0,0,4585.549,1587.74Z" transform="translate(-4585.548 -1585.733)" fill="none" stroke="#12263f" stroke-width="1"/>
            </g>
          </g>
        </g>
        <g id="Grupo_880680" data-name="Grupo 880680" transform="translate(23.72 31.87)">
          <g id="Grupo_880677" data-name="Grupo 880677" transform="translate(0 0.212)">
            <g id="Grupo_880676" data-name="Grupo 880676">
              <path id="Trazado_603020" data-name="Trazado 603020" d="M4589.092,1606.318a.174.174,0,0,1-.026.112.178.178,0,0,1-.245.058l-2.234-1.386a.178.178,0,1,1,.188-.3l2.234,1.386A.18.18,0,0,1,4589.092,1606.318Z" transform="translate(-4586.501 -1604.772)" fill="none" stroke="#12263f" stroke-width="1"/>
            </g>
          </g>
          <g id="Grupo_880679" data-name="Grupo 880679" transform="translate(0.163)">
            <g id="Grupo_880678" data-name="Grupo 880678">
              <path id="Trazado_603021" data-name="Trazado 603021" d="M4586.986,1606.151a.181.181,0,0,0,.049.1.178.178,0,0,0,.251.007l1.908-1.81a.179.179,0,0,0-.246-.259l-1.907,1.81A.179.179,0,0,0,4586.986,1606.151Z" transform="translate(-4586.985 -1604.144)" fill="none" stroke="#12263f" stroke-width="1"/>
            </g>
          </g>
        </g>
      </g>
      <g id="Grupo_880683" data-name="Grupo 880683" transform="translate(61.984 36.451)">
        <g id="Grupo_880682" data-name="Grupo 880682">
          <path id="Trazado_603022" data-name="Trazado 603022" d="M4509.557,1262.3c-.137-1.034,5.653,6.342-.965,6.342s-1.819-4.882-1.819-4.882l.716.263s-.827,3.1,1.172,3.1.621-4.688.621-4.688Z" transform="translate(-4505.092 -1262.202)" fill="#edbc2c"/>
        </g>
      </g>
      <g id="Grupo_880706" data-name="Grupo 880706" transform="translate(162.048 38.925)">
        <g id="Grupo_880685" data-name="Grupo 880685" transform="translate(0 15.036)">
          <g id="Grupo_880684" data-name="Grupo 880684">
            <path id="Trazado_603023" data-name="Trazado 603023" d="M4802.239,1340.253s-3.33-9.981,2.751-17.717c3.563-4.534,12.373-8.5,12.373-8.5s18.169,13.02,16.847,17.951-15.127,20.635-15.127,20.635Z" transform="translate(-4801.329 -1314.038)" fill="#f49d8b"/>
          </g>
        </g>
        <g id="Grupo_880687" data-name="Grupo 880687" transform="translate(1.641 6.28)">
          <g id="Grupo_880686" data-name="Grupo 880686">
            <path id="Trazado_603024" data-name="Trazado 603024" d="M4807.844,1316.848a3.457,3.457,0,0,1-1.628-3.4c1.105-8.469,1.953-18.9,1.4-20.979a3.457,3.457,0,0,1,6.679-1.79c1.167,4.359-.638,19.215-1.218,23.663a3.459,3.459,0,0,1-5.228,2.506Z" transform="translate(-4806.186 -1288.116)" fill="#f49d8b"/>
          </g>
        </g>
        <g id="Grupo_880689" data-name="Grupo 880689" transform="translate(9.227)">
          <g id="Grupo_880688" data-name="Grupo 880688">
            <path id="Trazado_603025" data-name="Trazado 603025" d="M4831.433,1301.677a3.459,3.459,0,0,1-2.4-4.975c.064-.124,6.409-12.458,8.911-18.627l2.589-6.387a3.456,3.456,0,1,1,6.406,2.6l-2.589,6.388c-2.618,6.458-8.905,18.677-9.171,19.195A3.459,3.459,0,0,1,4831.433,1301.677Z" transform="translate(-4828.646 -1269.523)" fill="#f49d8b"/>
          </g>
        </g>
        <g id="Grupo_880691" data-name="Grupo 880691" transform="translate(15.809 1.125)">
          <g id="Grupo_880690" data-name="Grupo 880690">
            <path id="Trazado_603026" data-name="Trazado 603026" d="M4850.917,1304.014a3.46,3.46,0,0,1-2.3-5.164c4.334-7.261,11.572-20.057,12.547-23.484a3.457,3.457,0,1,1,6.65,1.889c-1.542,5.424-12.065,23.137-13.26,25.139A3.459,3.459,0,0,1,4850.917,1304.014Z" transform="translate(-4848.132 -1272.854)" fill="#f49d8b"/>
          </g>
        </g>
        <g id="Grupo_880693" data-name="Grupo 880693" transform="translate(21.828 7.504)">
          <g id="Grupo_880692" data-name="Grupo 880692">
            <path id="Trazado_603027" data-name="Trazado 603027" d="M4868.731,1317.273a3.459,3.459,0,0,1-2.106-5.444c.1-.128,9.484-12.873,12.046-18.146a3.457,3.457,0,0,1,6.22,3.02c-2.838,5.845-12.3,18.688-12.7,19.232A3.459,3.459,0,0,1,4868.731,1317.273Z" transform="translate(-4865.949 -1291.737)" fill="#f49d8b"/>
          </g>
        </g>
        <g id="Grupo_880695" data-name="Grupo 880695" transform="translate(24.941 16.028)">
          <g id="Grupo_880694" data-name="Grupo 880694">
            <path id="Trazado_603028" data-name="Trazado 603028" d="M4877.945,1337.538a3.458,3.458,0,0,1-1.764-5.838c.1-.1,9.616-9.6,12.765-13.456a3.457,3.457,0,1,1,5.357,4.37c-3.372,4.134-12.839,13.582-13.241,13.981A3.452,3.452,0,0,1,4877.945,1337.538Z" transform="translate(-4875.166 -1316.973)" fill="#f49d8b"/>
          </g>
        </g>
        <g id="Grupo_880697" data-name="Grupo 880697" transform="translate(11.598 25.133)">
          <g id="Grupo_880696" data-name="Grupo 880696">
            <path id="Trazado_603029" data-name="Trazado 603029" d="M4836,1361.287a.283.283,0,0,1-.035-.025.288.288,0,0,1-.036-.405c7.292-8.744.132-16.126-.176-16.436a.288.288,0,0,1,.407-.407c.079.08,7.845,8.059.21,17.213A.288.288,0,0,1,4836,1361.287Z" transform="translate(-4835.666 -1343.93)" fill="none" stroke="#12263f" stroke-width="1"/>
          </g>
        </g>
        <g id="Grupo_880699" data-name="Grupo 880699" transform="translate(16.392 18.856)">
          <g id="Grupo_880698" data-name="Grupo 880698">
            <path id="Trazado_603030" data-name="Trazado 603030" d="M4864.813,1337.356a.311.311,0,0,1-.073-.044c-.107-.087-10.657-8.7-14.755-11.44a.288.288,0,1,1,.321-.479c4.12,2.755,14.692,11.385,14.8,11.472a.288.288,0,0,1-.291.49Z" transform="translate(-4849.856 -1325.345)" fill="none" stroke="#12263f" stroke-width="1"/>
          </g>
        </g>
        <g id="Grupo_880701" data-name="Grupo 880701" transform="translate(28.316 20.522)">
          <g id="Grupo_880700" data-name="Grupo 880700">
            <path id="Trazado_603031" data-name="Trazado 603031" d="M4885.349,1338.293a.236.236,0,0,1-.119-.059.232.232,0,0,1-.008-.327l7.241-7.557a.231.231,0,0,1,.334.319l-7.241,7.557A.234.234,0,0,1,4885.349,1338.293Z" transform="translate(-4885.158 -1330.278)" fill="none" stroke="#12263f" stroke-width="1"/>
          </g>
        </g>
        <g id="Grupo_880703" data-name="Grupo 880703" transform="translate(23.746 16.109)">
          <g id="Grupo_880702" data-name="Grupo 880702">
            <path id="Trazado_603032" data-name="Trazado 603032" d="M4871.818,1325.518a.242.242,0,0,1-.1-.046.233.233,0,0,1-.037-.325l6.212-7.845a.231.231,0,1,1,.361.288l-6.212,7.845A.229.229,0,0,1,4871.818,1325.518Z" transform="translate(-4871.628 -1317.215)" fill="none" stroke="#12263f" stroke-width="1"/>
          </g>
        </g>
        <g id="Grupo_880705" data-name="Grupo 880705" transform="translate(19.006 15.052)">
          <g id="Grupo_880704" data-name="Grupo 880704">
            <path id="Trazado_603033" data-name="Trazado 603033" d="M4857.784,1319.973a.22.22,0,0,1-.093-.04.228.228,0,0,1-.053-.32l3.9-5.433a.229.229,0,0,1,.319-.052.226.226,0,0,1,.053.32l-3.9,5.433A.229.229,0,0,1,4857.784,1319.973Z" transform="translate(-4857.595 -1314.084)" fill="none" stroke="#12263f" stroke-width="1"/>
          </g>
        </g>
      </g>
      <g id="Grupo_880708" data-name="Grupo 880708" transform="translate(157.485 117.451)">
        <g id="Grupo_880707" data-name="Grupo 880707">
          <path id="Trazado_603034" data-name="Trazado 603034" d="M4788.057,1514.886a.34.34,0,0,1-.055-.006.24.24,0,0,1-.176-.284c.016-.064,1.523-6.464,3.008-12.414a.228.228,0,0,1,.289-.172.237.237,0,0,1,.172.286c-1.489,5.947-2.992,12.345-3.008,12.408A.238.238,0,0,1,4788.057,1514.886Z" transform="translate(-4787.82 -1502)" fill="none" stroke="#12263f" stroke-width="1"/>
        </g>
      </g>
    </g>
    <g id="Grupo_880724" data-name="Grupo 880724" transform="translate(4542.649 1230.739)">
      <g id="Grupo_880713" data-name="Grupo 880713" transform="translate(0 2.911)">
        <g id="Grupo_880712" data-name="Grupo 880712">
          <path id="Trazado_603036" data-name="Trazado 603036" d="M5029.52,1486.472l-5.7,2.228v.037l5.7,2.228v2.443l-9.093-3.557v-2.265l9.093-3.557Z" transform="translate(-5020.427 -1484.029)" fill="#12263f"/>
        </g>
      </g>
      <g id="Grupo_880715" data-name="Grupo 880715" transform="translate(11.142 0)">
        <g id="Grupo_880714" data-name="Grupo 880714">
          <path id="Trazado_603037" data-name="Trazado 603037" d="M5062.417,1479.04a2.767,2.767,0,0,0-1.015-.774,3.378,3.378,0,0,0-1.393-.268,3.49,3.49,0,0,0-2.633,1.159,3.974,3.974,0,0,0-.772,1.3,4.953,4.953,0,0,0,0,3.28,4.092,4.092,0,0,0,.763,1.294,3.45,3.45,0,0,0,1.142.854,3.3,3.3,0,0,0,1.41.305,3.171,3.171,0,0,0,1.528-.359,3.068,3.068,0,0,0,1.1-1.006l2.335,1.743a4.866,4.866,0,0,1-2.049,1.672,6.354,6.354,0,0,1-2.552.538,7.848,7.848,0,0,1-2.75-.466,6.283,6.283,0,0,1-2.174-1.339,6.081,6.081,0,0,1-1.429-2.112,7.731,7.731,0,0,1,0-5.535,6.08,6.08,0,0,1,1.429-2.113,6.32,6.32,0,0,1,2.174-1.339,7.851,7.851,0,0,1,2.75-.466,6.9,6.9,0,0,1,1.124.1,6.075,6.075,0,0,1,1.15.315,5.038,5.038,0,0,1,1.087.576,4.334,4.334,0,0,1,.935.879Z" transform="translate(-5053.413 -1475.41)" fill="#12263f"/>
        </g>
      </g>
      <g id="Grupo_880717" data-name="Grupo 880717" transform="translate(23.453 0)">
        <g id="Grupo_880716" data-name="Grupo 880716">
          <path id="Trazado_603038" data-name="Trazado 603038" d="M5089.858,1482.094a7.191,7.191,0,0,1,.512-2.766,6.081,6.081,0,0,1,1.429-2.113,6.32,6.32,0,0,1,2.174-1.339,8.349,8.349,0,0,1,5.5,0,6.333,6.333,0,0,1,2.175,1.339,6.091,6.091,0,0,1,1.428,2.113,7.731,7.731,0,0,1,0,5.535,6.092,6.092,0,0,1-1.428,2.112,6.3,6.3,0,0,1-2.175,1.339,8.349,8.349,0,0,1-5.5,0,6.283,6.283,0,0,1-2.174-1.339,6.082,6.082,0,0,1-1.429-2.112A7.192,7.192,0,0,1,5089.858,1482.094Zm2.912,0a4.657,4.657,0,0,0,.279,1.645,3.757,3.757,0,0,0,.8,1.294,3.64,3.64,0,0,0,1.25.854,4.484,4.484,0,0,0,3.252,0,3.642,3.642,0,0,0,1.249-.854,3.757,3.757,0,0,0,.8-1.294,4.97,4.97,0,0,0,0-3.28,3.738,3.738,0,0,0-.8-1.3,3.634,3.634,0,0,0-1.249-.854,4.477,4.477,0,0,0-3.252,0,3.631,3.631,0,0,0-1.25.854,3.738,3.738,0,0,0-.8,1.3A4.7,4.7,0,0,0,5092.77,1482.094Z" transform="translate(-5089.858 -1475.41)" fill="#12263f"/>
        </g>
      </g>
      <g id="Grupo_880719" data-name="Grupo 880719" transform="translate(39.088 0.323)">
        <g id="Grupo_880718" data-name="Grupo 880718">
          <path id="Trazado_603039" data-name="Trazado 603039" d="M5136.146,1476.366h4.205a12.043,12.043,0,0,1,2.9.341,6.68,6.68,0,0,1,2.4,1.106,5.42,5.42,0,0,1,1.626,1.985,6.659,6.659,0,0,1,.6,2.966,6.065,6.065,0,0,1-.583,2.723,5.861,5.861,0,0,1-1.574,1.975,6.922,6.922,0,0,1-2.282,1.214,8.855,8.855,0,0,1-2.714.413h-4.583Zm2.8,10.136h1.455a7.767,7.767,0,0,0,1.806-.2,3.852,3.852,0,0,0,1.447-.656,3.154,3.154,0,0,0,.961-1.2,4.265,4.265,0,0,0,.351-1.825,3.546,3.546,0,0,0-.351-1.625,3.248,3.248,0,0,0-.943-1.141,4.11,4.11,0,0,0-1.393-.674,6.148,6.148,0,0,0-1.68-.225h-1.653Z" transform="translate(-5136.146 -1476.366)" fill="#12263f"/>
        </g>
      </g>
      <g id="Grupo_880721" data-name="Grupo 880721" transform="translate(52.835 0.323)">
        <g id="Grupo_880720" data-name="Grupo 880720">
          <path id="Trazado_603040" data-name="Trazado 603040" d="M5176.846,1476.366h8.645v2.589h-5.841v2.371h5.517v2.588h-5.517v2.589h6.163v2.588h-8.967Z" transform="translate(-5176.846 -1476.366)" fill="#12263f"/>
        </g>
      </g>
      <g id="Grupo_880723" data-name="Grupo 880723" transform="translate(64.194 2.911)">
        <g id="Grupo_880722" data-name="Grupo 880722">
          <path id="Trazado_603041" data-name="Trazado 603041" d="M5210.472,1490.965l5.7-2.228v-.037l-5.7-2.228v-2.443l9.093,3.557v2.265l-9.093,3.557Z" transform="translate(-5210.472 -1484.029)" fill="#12263f"/>
        </g>
      </g>
    </g>
    <g id="Grupo_880729" data-name="Grupo 880729" transform="translate(4494.894 1108.958)">
      <g id="Grupo_880726" data-name="Grupo 880726" transform="translate(0)">
        <g id="Grupo_880725" data-name="Grupo 880725">
          <path id="Trazado_603042" data-name="Trazado 603042" d="M4947.365,1150.844a32.667,32.667,0,0,0-1.065-9.867l7.664-7.018-4.548-8.3-9.472,3c-.157-.188-.291-.389-.453-.574a30.748,30.748,0,0,0-7.571-6.266l.916-10.025-8.8-2.839-4.9,8.837a29.172,29.172,0,0,0-10.182,1.016l-6.042-7.307-8.083,4.58,2.544,9.117c-.178.158-.366.293-.54.457a30.449,30.449,0,0,0-5.986,7.84l-9.694-.121-2.11,9.29,8.1,3.938a32.656,32.656,0,0,0,1.158,10.842l-7.361,7.1,4.659,8.234,9.168-3.175c.073.085.133.177.207.262a30.726,30.726,0,0,0,7.431,6.189l-.086,11.04,8.978,2.149,4.07-9.081a29.169,29.169,0,0,0,10.327-1.078l6.889,7.551,7.912-4.891-3.072-9.279c.065-.06.136-.109.2-.17a30.453,30.453,0,0,0,6.139-8.143l9.619.768,2.587-9.16Zm-29.854,15.466a17.209,17.209,0,1,1,17.209-17.209A17.21,17.21,0,0,1,4917.512,1166.31Z" transform="translate(-4879.049 -1108.958)" fill="#294ddc"/>
        </g>
      </g>
      <g id="Grupo_880728" data-name="Grupo 880728" transform="translate(13.46 15.14)">
        <g id="Grupo_880727" data-name="Grupo 880727">
          <path id="Trazado_603043" data-name="Trazado 603043" d="M4943.9,1203.783a25,25,0,1,1,25-25A25.03,25.03,0,0,1,4943.9,1203.783Zm0-48.055a23.054,23.054,0,1,0,23.055,23.054A23.081,23.081,0,0,0,4943.9,1155.728Z" transform="translate(-4918.896 -1153.78)" fill="#fff"/>
        </g>
      </g>
    </g>
    <g id="Grupo_880735" data-name="Grupo 880735" transform="translate(4443.451 1150.17)">
      <g id="Grupo_880732" data-name="Grupo 880732" transform="translate(0 0)">
        <g id="Grupo_880731" data-name="Grupo 880731">
          <g id="Grupo_880730" data-name="Grupo 880730">
            <path id="Trazado_603044" data-name="Trazado 603044" d="M4771.167,1258.2a21.225,21.225,0,0,0-.693-6.415l4.982-4.562-2.956-5.4-6.157,1.952c-.1-.122-.19-.253-.295-.373a19.991,19.991,0,0,0-4.923-4.074l.6-6.517-5.719-1.846-3.185,5.746a18.971,18.971,0,0,0-6.619.661l-3.928-4.751-5.255,2.978,1.653,5.927c-.115.1-.237.191-.351.3a19.827,19.827,0,0,0-3.892,5.1l-6.3-.079-1.372,6.04,5.266,2.56a21.209,21.209,0,0,0,.753,7.049l-4.787,4.613,3.03,5.353,5.96-2.064c.048.055.087.115.135.17a19.983,19.983,0,0,0,4.831,4.024l-.056,7.177,5.836,1.4,2.646-5.9a18.98,18.98,0,0,0,6.714-.7l4.479,4.909,5.143-3.18-2-6.033c.043-.039.089-.071.132-.11a19.808,19.808,0,0,0,3.99-5.294l6.254.5,1.682-5.955Zm-19.409,10.055a11.189,11.189,0,1,1,11.188-11.189A11.188,11.188,0,0,1,4751.758,1268.251Z" transform="translate(-4726.752 -1230.965)" fill="#6aceae"/>
          </g>
        </g>
      </g>
      <g id="Grupo_880734" data-name="Grupo 880734" transform="translate(8.751 9.843)">
        <g id="Grupo_880733" data-name="Grupo 880733">
          <path id="Trazado_603045" data-name="Trazado 603045" d="M4768.913,1292.615a16.254,16.254,0,1,1,16.255-16.254A16.273,16.273,0,0,1,4768.913,1292.615Zm0-31.242a14.988,14.988,0,1,0,14.989,14.988A15.005,15.005,0,0,0,4768.913,1261.373Z" transform="translate(-4752.658 -1260.106)" fill="#fff"/>
        </g>
      </g>
    </g>
    <g id="Grupo_880741" data-name="Grupo 880741" transform="translate(4493.057 1193.154)">
      <g id="Grupo_880738" data-name="Grupo 880738" transform="translate(0 0)">
        <g id="Grupo_880737" data-name="Grupo 880737">
          <g id="Grupo_880736" data-name="Grupo 880736">
            <path id="Trazado_603046" data-name="Trazado 603046" d="M4908.584,1379.662a16.658,16.658,0,0,0-.546-5.052l3.924-3.592-2.328-4.25-4.849,1.537c-.08-.1-.149-.2-.232-.294a15.712,15.712,0,0,0-3.876-3.208l.47-5.132-4.5-1.453-2.508,4.524a14.94,14.94,0,0,0-5.213.52l-3.093-3.741-4.139,2.345,1.3,4.668c-.091.081-.187.15-.276.234a15.607,15.607,0,0,0-3.064,4.013l-4.963-.062-1.08,4.756,4.146,2.016a16.727,16.727,0,0,0,.593,5.55l-3.769,3.633,2.386,4.215,4.693-1.625c.037.044.067.091.106.134a15.71,15.71,0,0,0,3.8,3.169l-.044,5.652,4.6,1.1,2.084-4.649a14.932,14.932,0,0,0,5.287-.552l3.526,3.866,4.05-2.5-1.572-4.75c.033-.031.07-.056.1-.087a15.6,15.6,0,0,0,3.143-4.169l4.924.393,1.325-4.689Zm-15.283,7.918a8.81,8.81,0,1,1,8.81-8.81A8.81,8.81,0,0,1,4893.3,1387.58Z" transform="translate(-4873.61 -1358.219)" fill="#6aceae"/>
          </g>
        </g>
      </g>
      <g id="Grupo_880740" data-name="Grupo 880740" transform="translate(6.891 7.751)">
        <g id="Grupo_880739" data-name="Grupo 880739">
          <path id="Trazado_603047" data-name="Trazado 603047" d="M4906.809,1406.764a12.8,12.8,0,1,1,12.8-12.8A12.814,12.814,0,0,1,4906.809,1406.764Zm0-24.6a11.8,11.8,0,1,0,11.8,11.8A11.816,11.816,0,0,0,4906.809,1382.163Z" transform="translate(-4894.01 -1381.165)" fill="#fff"/>
        </g>
      </g>
    </g>
  </g>
</svg>
