<svg xmlns="http://www.w3.org/2000/svg" xmlns:xlink="http://www.w3.org/1999/xlink" width="1057.164" height="394.665" viewBox="0 0 1057.164 394.665">
  <defs>
    <clipPath id="clip-path">
      <path id="Trazado_633625" data-name="Trazado 633625" d="M0,0H1057.164L917.328,393.665H0Z" transform="translate(180 395.699)" fill="#e5fdf3"/>
    </clipPath>
  </defs>
  <g id="Grupo_946847" data-name="Grupo 946847" transform="translate(-180 -537)">
    <path id="Trazado_132145" data-name="Trazado 132145" d="M0,0H1057.164L917.328,393.665H0Z" transform="translate(180 538)" fill="#ffeedf"/>
    <g id="Grupo_946738" data-name="Grupo 946738" transform="translate(0 141.301)">
      <g id="Enmascarar_grupo_700492" data-name="Enmascarar grupo 700492" clip-path="url(#clip-path)">
        <g id="Grupo_879158" data-name="Grupo 879158" transform="translate(142.382 751.656) rotate(-45)">
          <path id="Trazado_597847" data-name="Trazado 597847" d="M0,10.411A10.411,10.411,0,1,0,10.411,0,10.412,10.412,0,0,0,0,10.411" transform="translate(117.826 0)" fill="#ffd7ad"/>
          <path id="Trazado_599892" data-name="Trazado 599892" d="M0,10.411A10.411,10.411,0,1,0,10.411,0,10.412,10.412,0,0,0,0,10.411" transform="translate(93.987 42.221)" fill="#ffd7ad"/>
          <path id="Trazado_597848" data-name="Trazado 597848" d="M0,10.411A10.411,10.411,0,1,0,10.411,0,10.412,10.412,0,0,0,0,10.411" transform="translate(70.832 0)" fill="#ffd7ad"/>
          <path id="Trazado_599891" data-name="Trazado 599891" d="M0,10.411A10.411,10.411,0,1,0,10.411,0,10.412,10.412,0,0,0,0,10.411" transform="translate(46.993 42.221)" fill="#ffd7ad"/>
          <path id="Trazado_599886" data-name="Trazado 599886" d="M0,10.411A10.411,10.411,0,1,0,10.411,0,10.412,10.412,0,0,0,0,10.411" transform="translate(23.84 0.001)" fill="#ffd7ad"/>
          <path id="Trazado_599890" data-name="Trazado 599890" d="M0,10.411A10.411,10.411,0,1,0,10.411,0,10.412,10.412,0,0,0,0,10.411" transform="translate(0 42.222)" fill="#ffd7ad"/>
        </g>
      </g>
    </g>
  </g>
</svg>
