<svg xmlns="http://www.w3.org/2000/svg" xmlns:xlink="http://www.w3.org/1999/xlink" width="89" height="89" viewBox="0 0 89 89">
  <defs>
    <clipPath id="clip-path">
      <rect id="Rect치ngulo_341005" data-name="Rect치ngulo 341005" width="50.771" height="46.416" fill="#fff"/>
    </clipPath>
    <clipPath id="clip-path-2">
      <rect id="Rect치ngulo_341005-2" data-name="Rect치ngulo 341005" width="50.771" height="46.416" fill="none"/>
    </clipPath>
  </defs>
  <g id="Grupo_946848" data-name="Grupo 946848" transform="translate(-964 -2108)">
    <g id="Elipse_7780" data-name="Elipse 7780" transform="translate(964 2108)" fill="#fff" stroke="#ff8900" stroke-width="3">
      <circle cx="44.5" cy="44.5" r="44.5" stroke="none"/>
      <circle cx="44.5" cy="44.5" r="43" fill="none"/>
    </g>
    <g id="Grupo_946840" data-name="Grupo 946840" transform="translate(339.799 -65.76)">
      <g id="Grupo_946839" data-name="Grupo 946839" transform="translate(638 2194.978)">
        <g id="Grupo_946837" data-name="Grupo 946837" clip-path="url(#clip-path)">
          <path id="Trazado_633757" data-name="Trazado 633757" d="M0,41.955a1.852,1.852,0,0,1,1.64-1.287c.129-.005.171-.065.168-.184s0-.264,0-.4q0-13.086,0-26.171a1.814,1.814,0,0,1,1.234-1.926,1.847,1.847,0,0,1,.633-.072c1.619,0,3.239-.023,4.857.012.46.01.523-.137.521-.547-.017-3.09.017-6.18-.023-9.269A1.923,1.923,0,0,1,11.114,0c2.51.065,9.429.021,11.941.015a.767.767,0,0,1,.794.459.7.7,0,0,1-.159.816.869.869,0,0,1-.73.217c-2.462,0-9.331.009-11.793-.012-.457,0-.6.124-.592.587.03,1.156.026,2.313,0,3.469-.008.362.107.423.441.423q14.374-.014,28.748,0c.3,0,.424-.052.417-.395-.024-1.173-.026-2.346,0-3.519.01-.437-.131-.563-.565-.562q-8.575.019-17.15.008a1.012,1.012,0,0,1-.666-.12.727.727,0,0,1-.293-.827.679.679,0,0,1,.631-.536,3.439,3.439,0,0,1,.347,0h17.3a1.767,1.767,0,0,1,1.929,1.938c0,3.156.011,6.312-.01,9.467,0,.423.113.508.515.5,1.619-.025,3.238-.012,4.857-.01a1.754,1.754,0,0,1,1.875,1.843c0,.132,0,.264,0,.4q0,12.986-.007,25.973c0,.353.019.525.459.581a1.707,1.707,0,0,1,1.359,1.657,3.742,3.742,0,0,1-3.027,3.991,3.96,3.96,0,0,1-.688.057q-21.66,0-43.321,0A3.685,3.685,0,0,1,.1,43.563a1.417,1.417,0,0,0-.1-.221V41.955" transform="translate(0 0)" fill="#fff"/>
          <path id="Trazado_633758" data-name="Trazado 633758" d="M251.493,29.033c-4,0-7.993.013-11.989-.005-2.186-.01-3.618-1.308-3.623-3.215S237.313,22.6,239.5,22.6q11.988-.021,23.977,0c2.185,0,3.626,1.312,3.626,3.211s-1.44,3.212-3.619,3.222c-4,.019-7.992.005-11.989.005" transform="translate(-225.945 -22.133)" fill="#fff"/>
          <path id="Trazado_633759" data-name="Trazado 633759" d="M92.5,23.33a.76.76,0,0,1-.755.751.743.743,0,1,1-.016-1.486.758.758,0,0,1,.77.735" transform="translate(-78.926 -19.601)" fill="#fff"/>
          <path id="Trazado_633760" data-name="Trazado 633760" d="M114.171,22.595a.744.744,0,1,1,.024,1.487.743.743,0,1,1-.024-1.487" transform="translate(-98.402 -19.601)" fill="#fff"/>
          <path id="Trazado_633761" data-name="Trazado 633761" d="M137.4,23.358a.76.76,0,0,1-.785.72.744.744,0,1,1,.046-1.486.758.758,0,0,1,.738.766" transform="translate(-117.883 -19.598)" fill="#fff"/>
          <path id="Trazado_633762" data-name="Trazado 633762" d="M35,93.674q-10.707,0-21.413,0a2.276,2.276,0,0,1-2.448-2.024c-.088-.65,0-.751.658-.751H46.1c.347,0,.694.007,1.041,0a.743.743,0,1,0-.02-1.484c-.231-.006-.463,0-.694,0q-16.457,0-32.913.01c-.426,0-.538-.087-.537-.529q.024-11.624,0-23.248c0-.434.1-.543.533-.534q2.354.045,4.708,0c.4-.007.481.121.474.492-.023,1.189-.006,2.379-.01,3.569a.867.867,0,0,0,.474.9.734.734,0,0,0,1-.44A1.668,1.668,0,0,0,20.222,69c0-4.114.005-8.229-.008-12.343,0-.358.066-.465.45-.464q14.35.019,28.7,0c.374,0,.456.092.455.459q-.017,14.6,0,29.2c0,.5-.167.6-.628.6q-14.177-.017-28.353,0c-.518,0-.63-.165-.628-.652.018-4.114.01-8.228.01-12.342,0-.1,0-.2,0-.3,0-.672-.287-1.063-.77-1.063s-.771.39-.771,1.061c0,4.263.013,8.526-.009,12.789a1.9,1.9,0,0,0,1.995,2q14.349-.044,28.7,0a1.894,1.894,0,0,0,1.992-2c-.016-6.758,0-13.516-.019-20.274,0-.453.115-.564.561-.556q2.329.044,4.659,0c.432-.009.5.126.5.52q-.018,11.624,0,23.248c0,.408-.059.555-.52.547-1.916-.032-3.833-.015-5.75-.013-.587,0-.9.262-.9.742s.313.743.9.743q3.767,0,7.534,0c.554,0,.625.081.583.637a2.262,2.262,0,0,1-2.194,2.134c-.28.014-.562,0-.843,0H35" transform="translate(-9.637 -48.745)" fill="#fff"/>
          <path id="Trazado_633763" data-name="Trazado 633763" d="M28.1,102.6c-.84,0-1.681-.012-2.521.007-.284.006-.358-.079-.351-.357.031-1.351-.163-1.122,1.113-1.134,1.368-.012,2.735.008,4.1-.01.357,0,.511.046.5.465-.033,1.029-.008,1.03-1.062,1.03H28.1" transform="translate(-21.881 -87.707)" fill="#fff"/>
          <path id="Trazado_633764" data-name="Trazado 633764" d="M317.6,102.606c-.84,0-1.681-.008-2.521.005-.247,0-.332-.052-.338-.321-.027-1.172-.037-1.171,1.114-1.171,1.368,0,2.735.009,4.1-.006.359,0,.493.105.494.478,0,1.015.018,1.015-.974,1.015H317.6" transform="translate(-273.031 -87.717)" fill="#fff"/>
          <path id="Trazado_633765" data-name="Trazado 633765" d="M104.039,108.276H91.7c-.728,0-.99-.249-.991-.971q0-8.2,0-16.407c0-.7.264-.961.95-.961h24.833c.658,0,.933.263.935.927q.009,4.238,0,8.476c0,.594-.3.96-.768.961s-.768-.367-.769-.959c0-2.495-.008-4.99.006-7.485,0-.332-.06-.443-.421-.442q-11.4.017-22.8,0c-.342,0-.435.078-.434.429q.019,7.262,0,14.523c0,.349.089.431.433.43q11.4-.016,22.8,0c.359,0,.43-.106.423-.441-.022-1.041-.012-2.082-.007-3.123,0-.595.294-.97.748-.985s.788.379.79.994q.006,2.032,0,4.065c0,.718-.266.968-.994.969H104.039" transform="translate(-78.686 -78.02)" fill="#fff"/>
          <path id="Trazado_633766" data-name="Trazado 633766" d="M104.167,240.959q-6.17,0-12.34,0c-.413,0-.754-.071-.907-.509a.738.738,0,0,1,.561-.974,2.094,2.094,0,0,1,.346-.008c8.259,0,16.519.01,24.778-.018.69,0,1.15.557.875,1.094a.81.81,0,0,1-.826.415q-4.435-.011-8.871,0h-3.618" transform="translate(-78.838 -207.728)" fill="#fff"/>
          <path id="Trazado_633767" data-name="Trazado 633767" d="M104.169,262.01q6.219,0,12.439,0c.656,0,1.026.4.871.934a.7.7,0,0,1-.673.55c-.082.005-.165,0-.248,0-8.259,0-16.519-.01-24.778.018-.7,0-1.148-.566-.876-1.095a.811.811,0,0,1,.826-.414q4.832.011,9.664,0h2.775" transform="translate(-78.791 -227.292)" fill="#fff"/>
          <path id="Trazado_633768" data-name="Trazado 633768" d="M175.856,134.769c0-.94,0-1.88,0-2.82,0-.6.278-.863.881-.867.511,0,1.022,0,1.534,0a2.851,2.851,0,0,1,2.831,1.906,4.366,4.366,0,0,1-.489,4.4,2.72,2.72,0,0,1-2.3,1.13c-.544,0-1.088.005-1.633,0a.739.739,0,0,1-.821-.827c-.009-.973,0-1.946,0-2.919" transform="translate(-152.555 -113.713)" fill="#fff"/>
          <path id="Trazado_633769" data-name="Trazado 633769" d="M124.326,137.747a.776.776,0,0,1-.493.726.7.7,0,0,1-.845-.22,1.513,1.513,0,0,1-.2-.39c-.333-.824-.331-.825-1.237-.825a2.9,2.9,0,0,1-.4,0c-.829-.115-1.486-.021-1.675,1a.684.684,0,0,1-.954.439.77.77,0,0,1-.389-1.078c.488-1.3.989-2.6,1.484-3.906.221-.582.432-1.168.663-1.746a.925.925,0,0,1,.933-.667.915.915,0,0,1,.882.666q1.077,2.852,2.144,5.708c.04.106.065.217.087.29" transform="translate(-102.415 -113.715)" fill="#fff"/>
          <path id="Trazado_633770" data-name="Trazado 633770" d="M226.972,138.482a3.331,3.331,0,0,1-2.147-1.04.73.73,0,0,1-.076-1.1.74.74,0,0,1,1.1,0,1.953,1.953,0,0,0,1.939.559.733.733,0,0,0,.605-.639c.026-.335-.238-.507-.491-.616-.526-.228-1.077-.4-1.6-.622a2.008,2.008,0,0,1-1.361-2.342,2.251,2.251,0,0,1,2.157-1.64,3.531,3.531,0,0,1,2.182.651.792.792,0,0,1,.3,1.143c-.252.359-.669.4-1.135.113a1.82,1.82,0,0,0-1.584-.332c-.236.079-.418.2-.448.464a.5.5,0,0,0,.38.518c.471.192.958.344,1.432.528a2.265,2.265,0,0,1,1.678,2.192c-.054,1.258-1.147,2.169-2.929,2.159" transform="translate(-194.787 -113.681)" fill="#fff"/>
          <path id="Trazado_633771" data-name="Trazado 633771" d="M150.822,68.975q-2.626,0-5.252,0c-.6,0-.958-.3-.939-.768.018-.453.36-.718.939-.718h10.553c.579,0,.921.265.939.718.019.469-.343.768-.94.768q-2.651,0-5.3,0" transform="translate(-125.468 -58.546)" fill="#fff"/>
          <path id="Trazado_633772" data-name="Trazado 633772" d="M187.2,144.476c0-.643.01-1.286,0-1.928-.005-.238.071-.3.306-.31,1.853-.1,2.788,1.384,2.082,3.31a1.833,1.833,0,0,1-2.229,1.161c-.2-.055-.152-.185-.152-.3,0-.643,0-1.286,0-1.928" transform="translate(-162.393 -123.389)" fill="#fff"/>
          <path id="Trazado_633773" data-name="Trazado 633773" d="M136.971,150.252c.246.665.455,1.23.662,1.8.01.027-.008.063-.015.112h-1.369l.722-1.907" transform="translate(-118.197 -130.345)" fill="#fff"/>
        </g>
      </g>
      <g id="Grupo_946838" data-name="Grupo 946838" transform="translate(641.966 2194.978)">
        <g id="Grupo_946837-2" data-name="Grupo 946837" clip-path="url(#clip-path-2)">
          <path id="Trazado_633757-2" data-name="Trazado 633757" d="M0,41.955a1.852,1.852,0,0,1,1.64-1.287c.129-.005.171-.065.168-.184s0-.264,0-.4q0-13.086,0-26.171a1.814,1.814,0,0,1,1.234-1.926,1.847,1.847,0,0,1,.633-.072c1.619,0,3.239-.023,4.857.012.46.01.523-.137.521-.547-.017-3.09.017-6.18-.023-9.269A1.923,1.923,0,0,1,11.114,0c2.51.065,5.022.021,7.534.015a.767.767,0,0,1,.794.459.7.7,0,0,1-.159.816.869.869,0,0,1-.73.217c-2.462,0-4.924.009-7.385-.012-.457,0-.6.124-.592.587.03,1.156.026,2.313,0,3.469-.008.362.107.423.441.423q14.374-.014,28.748,0c.3,0,.424-.052.417-.395-.024-1.173-.026-2.346,0-3.519.01-.437-.131-.563-.565-.562q-8.575.019-17.15.008a1.012,1.012,0,0,1-.666-.12.727.727,0,0,1-.293-.827.679.679,0,0,1,.631-.536,3.439,3.439,0,0,1,.347,0h17.3a1.767,1.767,0,0,1,1.929,1.938c0,3.156.011,6.312-.01,9.467,0,.423.113.508.515.5,1.619-.025,3.238-.012,4.857-.01a1.754,1.754,0,0,1,1.875,1.843c0,.132,0,.264,0,.4q0,12.986-.007,25.973c0,.353.019.525.459.581a1.707,1.707,0,0,1,1.359,1.657,3.742,3.742,0,0,1-3.027,3.991,3.96,3.96,0,0,1-.688.057q-21.66,0-43.321,0A3.685,3.685,0,0,1,.1,43.563a1.417,1.417,0,0,0-.1-.221V41.955" transform="translate(0 0)" fill="#294ddc"/>
          <path id="Trazado_633758-2" data-name="Trazado 633758" d="M239.624,24.073c-.958,0-1.916,0-2.874,0a.751.751,0,1,1,0-1.485q2.874,0,5.749,0a.752.752,0,1,1,0,1.485c-.958,0-1.916,0-2.874,0" transform="translate(-204.629 -19.593)" fill="#294ddc"/>
          <path id="Trazado_633759-2" data-name="Trazado 633759" d="M92.5,23.33a.76.76,0,0,1-.755.751.743.743,0,1,1-.016-1.486.758.758,0,0,1,.77.735" transform="translate(-78.926 -19.601)" fill="#294ddc"/>
          <path id="Trazado_633760-2" data-name="Trazado 633760" d="M114.171,22.595a.744.744,0,1,1,.024,1.487.743.743,0,1,1-.024-1.487" transform="translate(-98.402 -19.601)" fill="#294ddc"/>
          <path id="Trazado_633761-2" data-name="Trazado 633761" d="M137.4,23.358a.76.76,0,0,1-.785.72.744.744,0,1,1,.046-1.486.758.758,0,0,1,.738.766" transform="translate(-117.883 -19.598)" fill="#294ddc"/>
          <path id="Trazado_633762-2" data-name="Trazado 633762" d="M35,93.674q-10.707,0-21.413,0a2.276,2.276,0,0,1-2.448-2.024c-.088-.65,0-.751.658-.751H46.1c.347,0,.694.007,1.041,0a.743.743,0,1,0-.02-1.484c-.231-.006-.463,0-.694,0q-16.457,0-32.913.01c-.426,0-.538-.087-.537-.529q.024-11.624,0-23.248c0-.434.1-.543.533-.534q2.354.045,4.708,0c.4-.007.481.121.474.492-.023,1.189-.006,2.379-.01,3.569a.867.867,0,0,0,.474.9.734.734,0,0,0,1-.44A1.668,1.668,0,0,0,20.222,69c0-4.114.005-8.229-.008-12.343,0-.358.066-.465.45-.464q14.35.019,28.7,0c.374,0,.456.092.455.459q-.017,14.6,0,29.2c0,.5-.167.6-.628.6q-14.177-.017-28.353,0c-.518,0-.63-.165-.628-.652.018-4.114.01-8.228.01-12.342,0-.1,0-.2,0-.3,0-.672-.287-1.063-.77-1.063s-.771.39-.771,1.061c0,4.263.013,8.526-.009,12.789a1.9,1.9,0,0,0,1.995,2q14.349-.044,28.7,0a1.894,1.894,0,0,0,1.992-2c-.016-6.758,0-13.516-.019-20.274,0-.453.115-.564.561-.556q2.329.044,4.659,0c.432-.009.5.126.5.52q-.018,11.624,0,23.248c0,.408-.059.555-.52.547-1.916-.032-3.833-.015-5.75-.013-.587,0-.9.262-.9.742s.313.743.9.743q3.767,0,7.534,0c.554,0,.625.081.583.637a2.262,2.262,0,0,1-2.194,2.134c-.28.014-.562,0-.843,0H35" transform="translate(-9.637 -48.745)" fill="#fff"/>
          <path id="Trazado_633763-2" data-name="Trazado 633763" d="M28.1,102.6c-.84,0-1.681-.012-2.521.007-.284.006-.358-.079-.351-.357.031-1.351-.163-1.122,1.113-1.134,1.368-.012,2.735.008,4.1-.01.357,0,.511.046.5.465-.033,1.029-.008,1.03-1.062,1.03H28.1" transform="translate(-21.881 -87.707)" fill="#fff"/>
          <path id="Trazado_633764-2" data-name="Trazado 633764" d="M317.6,102.606c-.84,0-1.681-.008-2.521.005-.247,0-.332-.052-.338-.321-.027-1.172-.037-1.171,1.114-1.171,1.368,0,2.735.009,4.1-.006.359,0,.493.105.494.478,0,1.015.018,1.015-.974,1.015H317.6" transform="translate(-273.031 -87.717)" fill="#dee3f9"/>
          <path id="Trazado_633765-2" data-name="Trazado 633765" d="M104.039,108.276H91.7c-.728,0-.99-.249-.991-.971q0-8.2,0-16.407c0-.7.264-.961.95-.961h24.833c.658,0,.933.263.935.927q.009,4.238,0,8.476c0,.594-.3.96-.768.961s-.768-.367-.769-.959c0-2.495-.008-4.99.006-7.485,0-.332-.06-.443-.421-.442q-11.4.017-22.8,0c-.342,0-.435.078-.434.429q.019,7.262,0,14.523c0,.349.089.431.433.43q11.4-.016,22.8,0c.359,0,.43-.106.423-.441-.022-1.041-.012-2.082-.007-3.123,0-.595.294-.97.748-.985s.788.379.79.994q.006,2.032,0,4.065c0,.718-.266.968-.994.969H104.039" transform="translate(-78.686 -78.02)" fill="#294ddc"/>
          <path id="Trazado_633766-2" data-name="Trazado 633766" d="M104.167,240.959q-6.17,0-12.34,0c-.413,0-.754-.071-.907-.509a.738.738,0,0,1,.561-.974,2.094,2.094,0,0,1,.346-.008c8.259,0,16.519.01,24.778-.018.69,0,1.15.557.875,1.094a.81.81,0,0,1-.826.415q-4.435-.011-8.871,0h-3.618" transform="translate(-78.838 -207.728)" fill="#294ddc"/>
          <path id="Trazado_633767-2" data-name="Trazado 633767" d="M104.169,262.01q6.219,0,12.439,0c.656,0,1.026.4.871.934a.7.7,0,0,1-.673.55c-.082.005-.165,0-.248,0-8.259,0-16.519-.01-24.778.018-.7,0-1.148-.566-.876-1.095a.811.811,0,0,1,.826-.414q4.832.011,9.664,0h2.775" transform="translate(-78.791 -227.292)" fill="#294ddc"/>
          <path id="Trazado_633768-2" data-name="Trazado 633768" d="M175.856,134.769c0-.94,0-1.88,0-2.82,0-.6.278-.863.881-.867.511,0,1.022,0,1.534,0a2.851,2.851,0,0,1,2.831,1.906,4.366,4.366,0,0,1-.489,4.4,2.72,2.72,0,0,1-2.3,1.13c-.544,0-1.088.005-1.633,0a.739.739,0,0,1-.821-.827c-.009-.973,0-1.946,0-2.919" transform="translate(-152.555 -113.713)" fill="#294ddc"/>
          <path id="Trazado_633769-2" data-name="Trazado 633769" d="M124.326,137.747a.776.776,0,0,1-.493.726.7.7,0,0,1-.845-.22,1.513,1.513,0,0,1-.2-.39c-.333-.824-.331-.825-1.237-.825a2.9,2.9,0,0,1-.4,0c-.829-.115-1.486-.021-1.675,1a.684.684,0,0,1-.954.439.77.77,0,0,1-.389-1.078c.488-1.3.989-2.6,1.484-3.906.221-.582.432-1.168.663-1.746a.925.925,0,0,1,.933-.667.915.915,0,0,1,.882.666q1.077,2.852,2.144,5.708c.04.106.065.217.087.29" transform="translate(-102.415 -113.715)" fill="#294ddc"/>
          <path id="Trazado_633770-2" data-name="Trazado 633770" d="M226.972,138.482a3.331,3.331,0,0,1-2.147-1.04.73.73,0,0,1-.076-1.1.74.74,0,0,1,1.1,0,1.953,1.953,0,0,0,1.939.559.733.733,0,0,0,.605-.639c.026-.335-.238-.507-.491-.616-.526-.228-1.077-.4-1.6-.622a2.008,2.008,0,0,1-1.361-2.342,2.251,2.251,0,0,1,2.157-1.64,3.531,3.531,0,0,1,2.182.651.792.792,0,0,1,.3,1.143c-.252.359-.669.4-1.135.113a1.82,1.82,0,0,0-1.584-.332c-.236.079-.418.2-.448.464a.5.5,0,0,0,.38.518c.471.192.958.344,1.432.528a2.265,2.265,0,0,1,1.678,2.192c-.054,1.258-1.147,2.169-2.929,2.159" transform="translate(-194.787 -113.681)" fill="#294ddc"/>
          <path id="Trazado_633771-2" data-name="Trazado 633771" d="M150.822,68.975q-2.626,0-5.252,0c-.6,0-.958-.3-.939-.768.018-.453.36-.718.939-.718h10.553c.579,0,.921.265.939.718.019.469-.343.768-.94.768q-2.651,0-5.3,0" transform="translate(-125.468 -58.546)" fill="#294ddc"/>
          <path id="Trazado_633772-2" data-name="Trazado 633772" d="M187.2,144.476c0-.643.01-1.286,0-1.928-.005-.238.071-.3.306-.31,1.853-.1,2.788,1.384,2.082,3.31a1.833,1.833,0,0,1-2.229,1.161c-.2-.055-.152-.185-.152-.3,0-.643,0-1.286,0-1.928" transform="translate(-162.393 -123.389)" fill="#fffeff"/>
          <path id="Trazado_633773-2" data-name="Trazado 633773" d="M136.971,150.252c.246.665.455,1.23.662,1.8.01.027-.008.063-.015.112h-1.369l.722-1.907" transform="translate(-118.197 -130.345)" fill="#fdfdfd"/>
        </g>
      </g>
    </g>
  </g>
</svg>
