<svg xmlns="http://www.w3.org/2000/svg" width="78.482" height="79.537" viewBox="0 0 78.482 79.537">
  <g id="Grupo_946846" data-name="Grupo 946846" transform="translate(4622.433 9334.47)">
    <path id="Trazado_633775" data-name="Trazado 633775" d="M93.572,59.957a39.236,39.236,0,1,0-73.539,0Z" transform="translate(-4640 -9337.963)" fill="#e01650"/>
    <path id="Trazado_633776" data-name="Trazado 633776" d="M137.757,65.4a26.5,26.5,0,0,0-6.493,13.4h.96a3.439,3.439,0,0,1,3.435,3.435V107.6a39.344,39.344,0,0,0,14.6-18.879,111.51,111.51,0,0,0-12.5-23.314Z" transform="translate(-4696.578 -9367.017)" fill="#4b6bb2"/>
    <path id="Trazado_633777" data-name="Trazado 633777" d="M147.38,110.646s-5.351.021-7.368-3.251v7.377Z" transform="translate(-4700.931 -9387.912)" fill="#3c58a0"/>
    <path id="Trazado_633778" data-name="Trazado 633778" d="M136.819,121.117a1.2,1.2,0,0,1-.244-1.681,13.347,13.347,0,0,1,8.976-5.568,1.2,1.2,0,0,1,.185,2.395,10.964,10.964,0,0,0-7.237,4.61,1.2,1.2,0,0,1-1.681.244" transform="translate(-4699.102 -9391.132)" fill="#334d96"/>
    <path id="Trazado_633779" data-name="Trazado 633779" d="M22.254,88.719a39.345,39.345,0,0,0,14.6,18.878V82.238A3.439,3.439,0,0,1,40.289,78.8h.96a26.494,26.494,0,0,0-6.493-13.4,111.511,111.511,0,0,0-12.5,23.314Z" transform="translate(-4642.332 -9367.016)" fill="#3c58a0"/>
    <path id="Trazado_633780" data-name="Trazado 633780" d="M36.654,107.488s7.392-1.959,7.392-6.443v10.809Z" transform="translate(-4649.498 -9384.752)" fill="#334d96"/>
    <path id="Trazado_633781" data-name="Trazado 633781" d="M95.721,59.784c-2.073-2.879-5.8-4.577-9.728-5.572-1.9,3.715-6.5,7.469-9.361,9.565a19.811,19.811,0,0,0-4.466,4.548.962.962,0,0,1-1.57,0,19.8,19.8,0,0,0-4.466-4.548c-2.864-2.1-7.464-5.851-9.361-9.565-3.926,1-7.655,2.693-9.728,5.572l-.177.248a26.58,26.58,0,0,1,6.313,13.2H89.584a26.565,26.565,0,0,1,6.314-13.2c-.059-.08-.118-.166-.176-.248" transform="translate(-4654.578 -9361.447)" fill="#3c58a0"/>
    <path id="Trazado_633782" data-name="Trazado 633782" d="M58.628,73.236c-.026-.081-.052-.161-.08-.24-2.74-7.772,3.215-10.3,5.347-10.937-2.631-2.129-5.672-5-7.126-7.846-3.926,1-7.655,2.693-9.728,5.572l-.177.248a26.58,26.58,0,0,1,6.313,13.2h5.451Z" transform="translate(-4654.579 -9361.447)" fill="#2a428c"/>
    <path id="Trazado_633783" data-name="Trazado 633783" d="M71.06,14.892a13.092,13.092,0,0,1,5.892-1.381h9.985a13.092,13.092,0,0,1,5.892,1.381,11.1,11.1,0,0,1,3.192,2.338C94.188,9.984,90.208,0,82.213,0,74.3,0,70.113,9.77,68.1,16.994a11.292,11.292,0,0,1,2.964-2.1" transform="translate(-4665.144 -9334.47)" fill="#4b6bb2"/>
    <path id="Trazado_633784" data-name="Trazado 633784" d="M82.213,0C74.3,0,70.113,9.77,68.1,16.994a11.3,11.3,0,0,1,2.967-2.1,13.092,13.092,0,0,1,5.892-1.381h3.579a1.176,1.176,0,0,0-.032-.8C77.191,4.716,86.23.935,86.23.935A8.971,8.971,0,0,0,82.213,0" transform="translate(-4665.144 -9334.47)" fill="#3c58a0"/>
    <path id="Trazado_633785" data-name="Trazado 633785" d="M80.582,30.649H85.3a15.052,15.052,0,0,1,5.576,1.039c2.11.84,4.38,2.318,5.006,4.866a63.281,63.281,0,0,0-1.285-6.33,11.152,11.152,0,0,0-3.134-2.275,13.092,13.092,0,0,0-5.892-1.381H75.589a13.091,13.091,0,0,0-5.892,1.38,11.349,11.349,0,0,0-2.9,2.038,64.208,64.208,0,0,0-1.441,6.292c.716-2.38,2.9-3.782,4.931-4.592a15.062,15.062,0,0,1,5.576-1.039Z" transform="translate(-4663.779 -9347.69)" fill="#2a428c"/>
    <path id="Trazado_633786" data-name="Trazado 633786" d="M79.207,26.57H75.59A13.089,13.089,0,0,0,69.7,27.949a11.349,11.349,0,0,0-2.9,2.038,64.208,64.208,0,0,0-1.441,6.292c.716-2.38,2.9-3.782,4.931-4.592a15.052,15.052,0,0,1,5.576-1.039h3.416a1.188,1.188,0,0,0-.228-.6,2.427,2.427,0,0,1-.035-2.987,1.231,1.231,0,0,0,.194-.492" transform="translate(-4663.779 -9347.691)" fill="#1c2e7a"/>
    <path id="Trazado_633787" data-name="Trazado 633787" d="M90.636,35.406a15.052,15.052,0,0,0-5.576-1.039H75.615a15.062,15.062,0,0,0-5.576,1.039c-2.475.986-5.174,2.849-5.174,6.29,0,4.566,6.542,9.994,10.222,12.686a19.811,19.811,0,0,1,4.466,4.548.962.962,0,0,0,1.57,0,19.8,19.8,0,0,1,4.466-4.548C89.268,51.69,95.81,46.262,95.81,41.7c0-3.441-2.7-5.3-5.174-6.29Z" transform="translate(-4663.536 -9351.571)" fill="#1c2e7a"/>
    <path id="Trazado_633788" data-name="Trazado 633788" d="M91.426,64.416l-4.281.423s2.4,3.772,2.4,7.479v.163c.383.452.749.917,1.091,1.4a.962.962,0,0,0,1.57,0c.343-.484.708-.95,1.091-1.4v-.163c0-3.708,2.4-7.479,2.4-7.479Z" transform="translate(-4674.624 -9366.524)" fill="#2a428c"/>
    <path id="Trazado_633789" data-name="Trazado 633789" d="M116.087,38.866c.155-.483.5-1.134.686-1.8a12.467,12.467,0,0,0-1.7-.821c-.174-.069-.352-.133-.529-.195a5.914,5.914,0,0,1-.05.777l-.492,3.584c0,.289-.009.572-.026.851,1.2.362,1.8-.715,1.9-1.457a5.5,5.5,0,0,1,.212-.938Z" transform="translate(-4687.978 -9352.407)" fill="#fcad6d"/>
    <path id="Trazado_633790" data-name="Trazado 633790" d="M71.79,37.065c.182.669.532,1.32.686,1.8a5.506,5.506,0,0,1,.212.938,1.523,1.523,0,0,0,1.9,1.457q-.025-.417-.026-.851l-.492-3.584a5.914,5.914,0,0,1-.05-.777c-.177.062-.352.126-.529.195a12.515,12.515,0,0,0-1.7.819" transform="translate(-4666.982 -9352.409)" fill="#fd995b"/>
    <path id="Trazado_633791" data-name="Trazado 633791" d="M85.841,52a7.572,7.572,0,0,0,4.281-1.952,13.17,13.17,0,0,0,5.091-10.474l.492-3.584a5.982,5.982,0,0,0,.055-.722,15.139,15.139,0,0,0-5.2-.9H81.119a15.139,15.139,0,0,0-5.2.9,5.981,5.981,0,0,0,.055.721l.492,3.585a13.17,13.17,0,0,0,5.091,10.474A7.565,7.565,0,0,0,85.841,52" transform="translate(-4669.039 -9351.572)" fill="#f9ba8f"/>
    <path id="Trazado_633792" data-name="Trazado 633792" d="M88.544,49.967a13.712,13.712,0,0,1-5.3-10.9c-.067-.5-.126-.936-.178-1.317a3.547,3.547,0,0,1,1.465-3.378H81.12a15.139,15.139,0,0,0-5.2.9,5.98,5.98,0,0,0,.055.721l.492,3.585a13.17,13.17,0,0,0,5.091,10.474A7.564,7.564,0,0,0,85.843,52a6.475,6.475,0,0,0,3.548-1.407c-.294-.208-.578-.418-.848-.628" transform="translate(-4669.04 -9351.573)" fill="#fcad6d"/>
    <path id="Trazado_633793" data-name="Trazado 633793" d="M107.944,86.52a1.2,1.2,0,0,1-1.2-1.2V78.545a1.2,1.2,0,1,1,2.4-.049c0,.016,0,.032,0,.049v6.774a1.2,1.2,0,0,1-1.2,1.2" transform="translate(-4684.375 -9372.945)" fill="#4b6bb2"/>
    <path id="Trazado_633794" data-name="Trazado 633794" d="M81.01,86.52a1.2,1.2,0,0,1-1.2-1.2V78.545a1.2,1.2,0,0,1,2.4-.049c0,.016,0,.032,0,.049v6.774a1.2,1.2,0,0,1-1.2,1.2" transform="translate(-4670.973 -9372.945)" fill="#4b6bb2"/>
    <path id="Trazado_633795" data-name="Trazado 633795" d="M42.443,120.872a10.957,10.957,0,0,0-7.237-4.61,1.2,1.2,0,0,1,.186-2.395,13.336,13.336,0,0,1,8.976,5.568,1.2,1.2,0,0,1-1.925,1.437" transform="translate(-4648.236 -9391.132)" fill="#2a428c"/>
    <path id="Trazado_633796" data-name="Trazado 633796" d="M92.2,91.6H54.518a3.686,3.686,0,0,0-3.675,3.675v25.192a39.135,39.135,0,0,0,8.842,4.652H87.039a39.135,39.135,0,0,0,8.842-4.652V95.276A3.686,3.686,0,0,0,92.2,91.6" transform="translate(-4656.559 -9380.053)" fill="#e9efff"/>
    <path id="Trazado_633797" data-name="Trazado 633797" d="M67.674,91.6H54.518a3.686,3.686,0,0,0-3.675,3.675v25.192a39.136,39.136,0,0,0,8.842,4.652H74.539a1.4,1.4,0,0,0-.4-.795c-4.465-4.371-1.895-10.042-1.026-11.64a1.4,1.4,0,0,0,.134-.97l-1.4-6.276a1.4,1.4,0,0,0-.736-.947c-6.7-3.351-4.359-10.41-3.545-12.374a1.439,1.439,0,0,0,.108-.517Z" transform="translate(-4656.559 -9380.052)" fill="#d3dcfb"/>
    <path id="Trazado_633798" data-name="Trazado 633798" d="M87.911,120.516a3.927,3.927,0,1,1,3.365,4.417,3.926,3.926,0,0,1-3.365-4.417" transform="translate(-4674.987 -9392.749)" fill="#bec8f7"/>
    <path id="Trazado_633799" data-name="Trazado 633799" d="M95.685,122.939a1.963,1.963,0,1,0-1.963,1.963,1.964,1.964,0,0,0,1.963-1.963" transform="translate(-4676.919 -9394.67)" fill="#d3dcfb"/>
    <path id="Trazado_633800" data-name="Trazado 633800" d="M152.041,50.785a39.219,39.219,0,0,0-19.935-33.69c-1.341,1.891-2.7,4.645-1.549,7.039,1.98,4.125-1.815,7.507,7.92,11.714,9.567,4.135,3.518,15.6,13.564,14.936" transform="translate(-4696.011 -9342.977)" fill="#f72f69"/>
    <path id="Trazado_633801" data-name="Trazado 633801" d="M17.583,50.784c10.048.662,4-10.8,13.564-14.935,9.735-4.207,5.94-7.589,7.919-11.714,1.149-2.394-.208-5.149-1.549-7.039A39.218,39.218,0,0,0,17.582,50.784Z" transform="translate(-4640.007 -9342.977)" fill="#f72f69"/>
  </g>
</svg>
