<svg xmlns="http://www.w3.org/2000/svg" xmlns:xlink="http://www.w3.org/1999/xlink" width="505" height="534.284" viewBox="0 0 505 534.284">
  <defs>
    <clipPath id="clip-path">
      <rect id="Rectángulo_340964" data-name="Rectángulo 340964" width="505" height="3" fill="none"/>
    </clipPath>
    <clipPath id="clip-path-2">
      <rect id="Rectángulo_340974" data-name="Rectángulo 340974" width="120.525" height="206.045" fill="none"/>
    </clipPath>
    <clipPath id="clip-path-4">
      <rect id="Rectángulo_340972" data-name="Rectángulo 340972" width="60.999" height="42.755" fill="none"/>
    </clipPath>
    <clipPath id="clip-path-5">
      <rect id="Rectángulo_340984" data-name="Rectángulo 340984" width="89.726" height="92.339" fill="none"/>
    </clipPath>
    <clipPath id="clip-path-6">
      <rect id="Rectángulo_340986" data-name="Rectángulo 340986" width="94.688" height="70.879" transform="translate(0 0)" fill="none"/>
    </clipPath>
    <clipPath id="clip-path-7">
      <rect id="Rectángulo_340989" data-name="Rectángulo 340989" width="117.054" height="143.242" fill="none"/>
    </clipPath>
    <clipPath id="clip-path-8">
      <rect id="Rectángulo_340965" data-name="Rectángulo 340965" width="386.859" height="321.635" fill="none"/>
    </clipPath>
    <clipPath id="clip-path-9">
      <rect id="Rectángulo_340971" data-name="Rectángulo 340971" width="157.483" height="134.971" fill="none"/>
    </clipPath>
    <clipPath id="clip-path-10">
      <rect id="Rectángulo_340977" data-name="Rectángulo 340977" width="57.089" height="62.981" fill="none"/>
    </clipPath>
    <clipPath id="clip-path-11">
      <rect id="Rectángulo_340976" data-name="Rectángulo 340976" width="57.088" height="62.981" fill="none"/>
    </clipPath>
    <clipPath id="clip-path-12">
      <rect id="Rectángulo_340975" data-name="Rectángulo 340975" width="34.343" height="48.277" fill="none"/>
    </clipPath>
    <clipPath id="clip-path-13">
      <rect id="Rectángulo_340978" data-name="Rectángulo 340978" width="346.529" height="261.953" fill="none"/>
    </clipPath>
    <clipPath id="clip-path-18">
      <rect id="Rectángulo_340988" data-name="Rectángulo 340988" width="53" height="67.008" fill="none"/>
    </clipPath>
    <clipPath id="clip-path-19">
      <rect id="Rectángulo_340987" data-name="Rectángulo 340987" width="36.628" height="44.134" fill="#6aceae"/>
    </clipPath>
    <clipPath id="clip-path-20">
      <rect id="Rectángulo_340991" data-name="Rectángulo 340991" width="157.43" height="141.693" fill="none"/>
    </clipPath>
  </defs>
  <g id="Grupo_946785" data-name="Grupo 946785" transform="translate(-180 -1183.025)">
    <g id="Grupo_946740" data-name="Grupo 946740" transform="translate(180 1714)">
      <g id="Enmascarar_grupo_946739" data-name="Enmascarar grupo 946739" clip-path="url(#clip-path)">
        <path id="Trazado_633626" data-name="Trazado 633626" d="M505,2.74c0,.144-113.057.26-252.488.26C113.034,3,0,2.884,0,2.74s113.034-.26,252.512-.26C391.943,2.48,505,2.6,505,2.74" fill="#263238"/>
      </g>
    </g>
    <g id="Grupo_946751" data-name="Grupo 946751" transform="translate(384.599 1224.565)">
      <g id="Grupo_946750" data-name="Grupo 946750" clip-path="url(#clip-path-2)">
        <g id="Grupo_946749" data-name="Grupo 946749">
          <g id="Grupo_946748" data-name="Grupo 946748" clip-path="url(#clip-path-2)">
            <path id="Trazado_633648" data-name="Trazado 633648" d="M19.157,112.159c-3.7-11.238-7.362-22.562-9.075-34.271s-1.409-23.922,2.67-35.032c.618-1.683,5.9-12.985,7.686-12.816,1.276.12-1.963,10.657-1.313,11.763,6.2,10.548,7.926,23.259,6.991,35.46a160.177,160.177,0,0,1-6.958,34.9" transform="translate(0.515 1.701)" fill="#263238"/>
            <path id="Trazado_633649" data-name="Trazado 633649" d="M85.333,178.454c.054-8.358.123-14.956.186-14.956,0,0,28.666-3.014,30.428-31.437.85-13.727.3-42.133-.494-67.838A53.063,53.063,0,0,0,65.039,12.862L62.3,12.726C32.618,12.988,16.262,38.338,17.345,68l.485,103.86,20.238,23.922c16.132,19.068,47.278,7.652,47.266-17.325" transform="translate(0.98 0.721)" fill="#ffc09d"/>
            <path id="Trazado_633650" data-name="Trazado 633650" d="M83.818,156.1s-17.98.163-36.489-12.784c0,0,8,21.133,36.511,19.979Z" transform="translate(2.681 8.118)" fill="#ff9b6c"/>
            <path id="Trazado_633651" data-name="Trazado 633651" d="M99.42,84.1a4.067,4.067,0,0,1-4.12,3.9,3.89,3.89,0,0,1-4-3.87,4.068,4.068,0,0,1,4.115-3.906A3.894,3.894,0,0,1,99.42,84.1" transform="translate(5.171 4.544)" fill="#263238"/>
            <path id="Trazado_633652" data-name="Trazado 633652" d="M104.743,72.58c-.529.5-3.494-1.925-7.866-2.13-4.363-.267-7.683,1.822-8.13,1.263-.221-.247.339-1.179,1.786-2.127a11.17,11.17,0,0,1,6.542-1.666,10.722,10.722,0,0,1,6.228,2.357c1.292,1.1,1.7,2.078,1.44,2.3" transform="translate(5.024 3.846)" fill="#263238"/>
            <path id="Trazado_633653" data-name="Trazado 633653" d="M62.607,85.288a4.067,4.067,0,0,1-4.121,3.9,3.888,3.888,0,0,1-4-3.869A4.071,4.071,0,0,1,58.6,81.415a3.893,3.893,0,0,1,4.01,3.873" transform="translate(3.086 4.612)" fill="#263238"/>
            <path id="Trazado_633654" data-name="Trazado 633654" d="M66.162,72.131c-.531.505-3.5-1.924-7.868-2.129-4.363-.267-7.682,1.822-8.13,1.263-.221-.248.334-1.179,1.787-2.125a11.145,11.145,0,0,1,6.541-1.668,10.729,10.729,0,0,1,6.228,2.356c1.289,1.1,1.7,2.079,1.442,2.3" transform="translate(2.839 3.821)" fill="#263238"/>
            <path id="Trazado_633655" data-name="Trazado 633655" d="M76.559,106.472c-.008-.249,2.731-.584,7.162-.929,1.122-.06,2.189-.229,2.414-.982.3-.794-.1-2.019-.58-3.345q-1.374-4.129-2.879-8.662c-3.985-12.328-6.809-22.44-6.311-22.6s4.13,9.709,8.115,22.036q1.433,4.558,2.738,8.707c.358,1.289,1.014,2.764.361,4.409a2.8,2.8,0,0,1-1.916,1.541,7.559,7.559,0,0,1-1.908.169c-4.442.019-7.191-.1-7.2-.347" transform="translate(4.322 3.962)" fill="#263238"/>
            <path id="Trazado_633656" data-name="Trazado 633656" d="M70.245,68.2c-.922.868-4.566-1.61-9.426-3.375-4.826-1.865-9.2-2.394-9.324-3.653-.04-.594,1.109-1.266,3.123-1.537A17.407,17.407,0,0,1,68.9,64.987c1.339,1.529,1.764,2.792,1.343,3.211" transform="translate(2.917 3.372)" fill="#263238"/>
            <path id="Trazado_633657" data-name="Trazado 633657" d="M105.329,55.514c-.714,1.1-4.176.529-8.176,1.025-4.016.371-7.287,1.666-8.206.743-.409-.454-.012-1.513,1.34-2.647a12.361,12.361,0,0,1,6.418-2.517,12.234,12.234,0,0,1,6.783,1.094c1.549.82,2.15,1.771,1.842,2.3" transform="translate(5.029 2.948)" fill="#263238"/>
            <path id="Trazado_633658" data-name="Trazado 633658" d="M19.6,85.14C19.129,84.906.348,78.391.005,97.866s19.281,15.8,19.324,15.244.275-27.97.275-27.97" transform="translate(0 4.753)" fill="#ffc09d"/>
            <path id="Trazado_633659" data-name="Trazado 633659" d="M13.244,105.293c-.085-.063-.343.231-.921.484a3.394,3.394,0,0,1-2.537.008c-2.044-.791-3.718-4.089-3.752-7.6a11.221,11.221,0,0,1,1.036-4.84,3.917,3.917,0,0,1,2.6-2.559,1.727,1.727,0,0,1,1.985.965c.251.549.12.935.224.971.053.05.424-.319.281-1.126a2.165,2.165,0,0,0-.745-1.233,2.558,2.558,0,0,0-1.867-.529c-1.5.077-2.88,1.435-3.6,2.956A11.534,11.534,0,0,0,4.676,98.2c.056,3.928,2,7.635,4.8,8.5a3.637,3.637,0,0,0,3.112-.462c.612-.47.722-.9.655-.94" transform="translate(0.265 5.088)" fill="#ff9b6c"/>
            <path id="Trazado_633660" data-name="Trazado 633660" d="M103.556,32.009c3.168-1.712-6.2-12-13.919-15.585C77.976,11.009,60.126,7.582,49.3,10.548c-13.029,3.571-23.884,9.943-30.514,21.715S9.589,57.8,9.85,71.3c.079,4.121.468,8.419,2.639,11.923,2.683,4.331,7.878,7.089,7.6,13.027a8.153,8.153,0,0,0,1.972,5.963c3.53,3.824,7.921.3,9.957-3.254,4.348-7.591,4.906-16.695,5.358-25.431C37.7,67.321,38,60.978,36.3,55c-.925-3.254-2.428-6.336-3.171-9.638s-.61-7.038,1.466-9.711a12.134,12.134,0,0,1,1.6-1.587A20.31,20.31,0,0,1,56.38,30.4c10.934,3.976,29.615,9.936,34.54,6.256,7.085-5.293,8.8-8.77,8.8-8.77Z" transform="translate(0.557 0.535)" fill="#263238"/>
            <path id="Trazado_633661" data-name="Trazado 633661" d="M78.638,113.475l-.523-.24a98.759,98.759,0,0,0-11.525-4.361,3.781,3.781,0,0,0-1.861-.24,3.267,3.267,0,0,0-2.11,2.4,9.387,9.387,0,0,0,2.286,9.5,8.627,8.627,0,0,0,9.549,1.541,7.988,7.988,0,0,0,4.184-8.6" transform="translate(3.521 6.151)" fill="#ff9b6c"/>
            <path id="Trazado_633662" data-name="Trazado 633662" d="M78.652,113.488a1.706,1.706,0,0,1,.139.475,6.746,6.746,0,0,1,.125,1.419,8.215,8.215,0,0,1-1.838,4.857,7.808,7.808,0,0,1-2.891,2.222,8.438,8.438,0,0,1-4.134.651,9.161,9.161,0,0,1-4.348-1.575,8.732,8.732,0,0,1-3.062-3.9,9.877,9.877,0,0,1-.652-4.918,8.544,8.544,0,0,1,.6-2.31,3.577,3.577,0,0,1,1.517-1.8,2.905,2.905,0,0,1,2.241-.05l1.907.615c1.223.411,2.353.819,3.378,1.209,2.05.781,3.678,1.489,4.792,2,.556.257.985.464,1.271.613a1.646,1.646,0,0,1,.426.25,13.937,13.937,0,0,1-1.782-.667c-1.137-.451-2.783-1.1-4.842-1.832-1.03-.366-2.163-.75-3.387-1.141l-1.9-.583a2.435,2.435,0,0,0-1.874.034,3.1,3.1,0,0,0-1.269,1.559,8.114,8.114,0,0,0-.551,2.165,9.43,9.43,0,0,0,.627,4.644,8.245,8.245,0,0,0,2.862,3.67,8.716,8.716,0,0,0,4.086,1.512,8.035,8.035,0,0,0,3.905-.565,7.473,7.473,0,0,0,2.772-2.051,8.275,8.275,0,0,0,1.923-4.62c.073-1.208-.108-1.874-.05-1.884" transform="translate(3.507 6.138)" fill="#263238"/>
            <path id="Trazado_633663" data-name="Trazado 633663" d="M59.017,96.244c-.081.044-.492-.736-1.42-1.777a10.987,10.987,0,0,0-9.721-3.655c-1.383.172-2.207.489-2.24.4a5.141,5.141,0,0,1,2.179-.786A10.317,10.317,0,0,1,57.9,94.216a5.146,5.146,0,0,1,1.121,2.028" transform="translate(2.585 5.112)" fill="#ff9b6c"/>
            <path id="Trazado_633664" data-name="Trazado 633664" d="M100,94.567A17.716,17.716,0,0,0,94.691,91.9a17.708,17.708,0,0,0-5.938-.234,4.04,4.04,0,0,1,1.723-.529,10.981,10.981,0,0,1,8.272,2.133c.881.693,1.3,1.253,1.253,1.3" transform="translate(5.027 5.155)" fill="#ff9b6c"/>
            <path id="Trazado_633665" data-name="Trazado 633665" d="M117.146,59.76c-.86,1.047-10.636-25.74-41.623-23.3-22.578,1.78-39.566,18.918-47.42,29.02-6.044,7.774-16.031,22.609-16.031,22.609S-1.583,80.007,5.923,59.72c2.545-6.88,17.1-30.466,36.171-40.824,25.512-13.854,45.57-12.6,59.482-3.382,12.763,8.456,24.6,33.262,15.571,44.247" transform="translate(0.208 0.483)" fill="#455a64"/>
            <path id="Trazado_633666" data-name="Trazado 633666" d="M43.628.27c5.286-.709,26.906-.917,39.907,11.265L27.45,44.062,12.986,60.555S.52,33.48,23.1,10.55c0,0,6.8-8.437,20.528-10.279" transform="translate(0.541 0)" fill="#455a64"/>
            <path id="Trazado_633667" data-name="Trazado 633667" d="M88.02,9.5a1.011,1.011,0,0,1-.277,0l-.8-.049-3.085-.238c-1.338-.12-2.983-.132-4.887-.226-.953-.044-1.973,0-3.054,0L74.247,9c-.571.018-1.154.064-1.753.1A62.437,62.437,0,0,0,56,12.115,67.357,67.357,0,0,0,37.96,21.9,102.134,102.134,0,0,0,22.45,35.46,94.183,94.183,0,0,0,12.091,48.721a78.176,78.176,0,0,0-5.46,9.958c-.589,1.207-.955,2.184-1.246,2.83l-.325.738a1.07,1.07,0,0,1-.128.244.984.984,0,0,1,.076-.264c.073-.2.163-.45.275-.758.257-.659.592-1.653,1.153-2.877a72.135,72.135,0,0,1,5.327-10.079,91.735,91.735,0,0,1,10.316-13.4A100.584,100.584,0,0,1,37.637,21.458a66.971,66.971,0,0,1,18.2-9.824A61.553,61.553,0,0,1,72.475,8.708c.6-.026,1.19-.067,1.762-.078l1.674.007c1.085.018,2.109-.015,3.064.044,1.909.124,3.558.166,4.9.32l3.08.341.8.1a1.019,1.019,0,0,1,.271.054" transform="translate(0.279 0.489)" fill="#263238"/>
            <path id="Trazado_633668" data-name="Trazado 633668" d="M20.691,74.114a4.2,4.2,0,0,1-.985-.495,8.868,8.868,0,0,1-1.092-.7,14.98,14.98,0,0,1-1.368-1.038,22.024,22.024,0,0,1-3.132-3.19,23.466,23.466,0,0,1-4.639-9.844,21.952,21.952,0,0,1-.467-4.446,14.928,14.928,0,0,1,.071-1.715,8.808,8.808,0,0,1,.158-1.284,4.2,4.2,0,0,1,.245-1.075c.111.015-.175,1.562-.086,4.065a24.325,24.325,0,0,0,.573,4.347,24.627,24.627,0,0,0,4.544,9.639A24.142,24.142,0,0,0,17.5,71.592c1.872,1.663,3.249,2.427,3.19,2.522" transform="translate(0.51 2.851)" fill="#263238"/>
            <path id="Trazado_633669" data-name="Trazado 633669" d="M29.179,60.252a3.392,3.392,0,0,1-.816-.555,21.379,21.379,0,0,1-2.014-1.778,30.151,30.151,0,0,1-8.316-15.426,21.272,21.272,0,0,1-.379-2.66,3.4,3.4,0,0,1-.015-.987c.1-.011.248,1.381.773,3.563a33.875,33.875,0,0,0,8.215,15.238c1.534,1.638,2.612,2.531,2.551,2.6" transform="translate(0.998 2.2)" fill="#263238"/>
            <path id="Trazado_633670" data-name="Trazado 633670" d="M42.323,48.284a31.555,31.555,0,0,1-1.905-3.224c-1.143-2.007-2.767-4.751-4.7-7.7s-3.8-5.526-5.187-7.375a31.534,31.534,0,0,1-2.2-3.032c.029-.025.284.228.722.706s1.049,1.189,1.783,2.086a89.409,89.409,0,0,1,5.341,7.313,89.051,89.051,0,0,1,4.577,7.813c.531,1.029.94,1.873,1.2,2.466a3.62,3.62,0,0,1,.36.943" transform="translate(1.605 1.527)" fill="#263238"/>
            <path id="Trazado_633671" data-name="Trazado 633671" d="M82.841,9.261a7.29,7.29,0,0,1,1.176.847,14.524,14.524,0,0,1,1.3,1.1c.485.453,1.063.945,1.622,1.569a35.283,35.283,0,0,1,3.707,4.557A40.073,40.073,0,0,1,94.1,23.65a39.955,39.955,0,0,1,2.163,6.867,35.23,35.23,0,0,1,.724,5.831c.063.835.018,1.592.011,2.256a14.552,14.552,0,0,1-.1,1.7,7.171,7.171,0,0,1-.2,1.435c-.114-.007.123-2.064-.093-5.369a38.66,38.66,0,0,0-.831-5.744A42.361,42.361,0,0,0,93.6,23.866a42.394,42.394,0,0,0-3.373-6.246,38.7,38.7,0,0,0-3.57-4.575c-2.237-2.443-3.884-3.7-3.811-3.784" transform="translate(4.692 0.524)" fill="#263238"/>
            <path id="Trazado_633672" data-name="Trazado 633672" d="M63.084,9.031a5.14,5.14,0,0,1,.949.791c.583.538,1.413,1.332,2.418,2.334s2.185,2.21,3.451,3.6a34.389,34.389,0,0,1,3.814,4.8,28.918,28.918,0,0,1,3.641,10.483c.243,1.4.4,2.537.5,3.324a5.357,5.357,0,0,1,.1,1.231,5.259,5.259,0,0,1-.309-1.2c-.181-.89-.4-1.989-.668-3.286A31.144,31.144,0,0,0,73.249,20.85a37.049,37.049,0,0,0-3.725-4.756c-1.238-1.4-2.389-2.63-3.354-3.667L63.882,9.975a5.581,5.581,0,0,1-.8-.944" transform="translate(3.573 0.511)" fill="#263238"/>
            <path id="Trazado_633673" data-name="Trazado 633673" d="M59.319,39.713c-.088.027-.592-1.517-1.592-3.935a62.284,62.284,0,0,0-4.668-9.066,62.331,62.331,0,0,0-6.131-8.152c-1.74-1.953-2.911-3.079-2.849-3.146a4.5,4.5,0,0,1,.9.712c.558.481,1.326,1.22,2.238,2.17A51.329,51.329,0,0,1,58.088,35.635c.459,1.235.789,2.249.98,2.96a4.607,4.607,0,0,1,.251,1.118" transform="translate(2.497 0.873)" fill="#263238"/>
            <g id="Grupo_946747" data-name="Grupo 946747" transform="translate(10.739 7.922)" opacity="0.3">
              <g id="Grupo_946746" data-name="Grupo 946746">
                <g id="Grupo_946745" data-name="Grupo 946745" clip-path="url(#clip-path-4)">
                  <path id="Trazado_633674" data-name="Trazado 633674" d="M10.163,50.252a54.3,54.3,0,0,1,61-42.189c-9.529.243-19.836,4.5-27.81,9.723C32.133,25.136,23.1,32.384,10.163,50.252" transform="translate(-10.163 -7.497)"/>
                </g>
              </g>
            </g>
          </g>
        </g>
      </g>
    </g>
    <g id="Grupo_946771" data-name="Grupo 946771" transform="translate(182.274 1623.661)">
      <g id="Grupo_946770" data-name="Grupo 946770" transform="translate(0 0)" clip-path="url(#clip-path-5)">
        <path id="Trazado_633701" data-name="Trazado 633701" d="M85.736,71.3,37.519,91.814a6.556,6.556,0,0,1-8.6-3.466L.525,21.61a6.557,6.557,0,0,1,3.466-8.6L34.569,0,68.62,14.326,89.2,62.7a6.557,6.557,0,0,1-3.466,8.6" transform="translate(0 0)" fill="#ebebeb"/>
        <path id="Trazado_633702" data-name="Trazado 633702" d="M30.171,0l7.992,18.783a6.1,6.1,0,0,0,8,3.224l18.062-7.681Z" transform="translate(4.398 0)" fill="#e0e0e0"/>
        <path id="Trazado_633703" data-name="Trazado 633703" d="M36.171,17.228c.1.242-4.809,2.562-10.967,5.182s-11.237,4.55-11.34,4.309,4.807-2.562,10.968-5.183,11.235-4.549,11.339-4.308" transform="translate(2.021 2.509)" fill="#fff"/>
        <path id="Trazado_633704" data-name="Trazado 633704" d="M54.521,21.146c.1.242-8.033,3.933-18.17,8.247S17.91,37.008,17.808,36.766s8.031-3.933,18.171-8.247S54.418,20.9,54.521,21.146" transform="translate(2.596 3.081)" fill="#fff"/>
        <path id="Trazado_633705" data-name="Trazado 633705" d="M61.121,27.657c.1.242-8.773,4.25-19.823,8.951S21.2,44.926,21.1,44.685s8.771-4.247,19.825-8.951,20.091-8.317,20.194-8.077" transform="translate(3.076 4.03)" fill="#fff"/>
        <path id="Trazado_633706" data-name="Trazado 633706" d="M64.227,34.959c.1.242-8.773,4.25-19.823,8.951s-20.093,8.318-20.2,8.077,8.772-4.249,19.825-8.951,20.092-8.318,20.194-8.077" transform="translate(3.529 5.095)" fill="#fff"/>
        <path id="Trazado_633707" data-name="Trazado 633707" d="M67.334,42.261c.1.242-8.773,4.25-19.823,8.951s-20.093,8.318-20.2,8.077,8.772-4.249,19.825-8.951,20.091-8.317,20.194-8.077" transform="translate(3.981 6.159)" fill="#fff"/>
        <path id="Trazado_633708" data-name="Trazado 633708" d="M70.441,49.563c.1.242-8.773,4.25-19.823,8.951s-20.093,8.318-20.2,8.077,8.772-4.247,19.824-8.951,20.092-8.318,20.2-8.077" transform="translate(4.434 7.224)" fill="#fff"/>
      </g>
    </g>
    <g id="Grupo_946774" data-name="Grupo 946774" transform="translate(590.313 1643.121)">
      <rect id="Rectángulo_340985" data-name="Rectángulo 340985" width="58.881" height="87.356" transform="translate(-0.001 58.341) rotate(-82.238)" fill="#ebebeb"/>
      <g id="Grupo_946773" data-name="Grupo 946773">
        <g id="Grupo_946772" data-name="Grupo 946772" clip-path="url(#clip-path-6)">
          <path id="Trazado_633709" data-name="Trazado 633709" d="M94.688,12.537a6.039,6.039,0,0,1-.912.667l-2.7,1.783L81.07,21.426,47.812,42.472l-.274.173-.225-.236-.542-.568L19.33,12.89,11.08,4.054,8.866,1.624A6.17,6.17,0,0,1,8.133.74a6.165,6.165,0,0,1,.849.774L11.3,3.841,19.736,12.5l27.609,28.79.542.569-.5-.062L80.773,20.955l10.143-6.227,2.776-1.658a6.075,6.075,0,0,1,1-.533" fill="#e0e0e0"/>
          <path id="Trazado_633710" data-name="Trazado 633710" d="M.181,59.08c-.147-.162,7.452-7.272,16.97-15.879s17.357-15.453,17.5-15.291S27.2,35.181,17.683,43.789.328,59.243.181,59.08" fill="#e0e0e0"/>
          <path id="Trazado_633711" data-name="Trazado 633711" d="M63.526,31.1c.189-.11,5.538,8.7,11.947,19.687S86.925,70.768,86.736,70.878s-5.538-8.7-11.948-19.689S63.337,31.212,63.526,31.1" fill="#e0e0e0"/>
        </g>
      </g>
    </g>
    <g id="Grupo_946780" data-name="Grupo 946780" transform="translate(566.946 1281)">
      <g id="Grupo_946779" data-name="Grupo 946779" transform="translate(1 -20)" clip-path="url(#clip-path-7)">
        <path id="Trazado_633714" data-name="Trazado 633714" d="M115.387,91.733l-24.551-53.7a18.37,18.37,0,0,0-22.792-9.691L61.574,31.21,14.712,52.635l-4-9.083A25.764,25.764,0,0,1,57.554,22.08l6.456-2.9A32.84,32.84,0,0,0,4.257,46.448l4.11,9.332a18.365,18.365,0,0,0-6.7,23.026l24.551,53.7a18.374,18.374,0,0,0,24.353,9.071l55.745-25.487a18.377,18.377,0,0,0,9.072-24.354m-57.651,10.2L55.2,90.363a9.765,9.765,0,1,1,9.557-4.572c2.9,3.611,7.561,9.476,7.561,9.476Z" transform="translate(0 0)" fill="#f5f5f5"/>
      </g>
    </g>
    <g id="Grupo_946742" data-name="Grupo 946742" transform="translate(242.507 1395.675)">
      <g id="Grupo_946741" data-name="Grupo 946741" clip-path="url(#clip-path-8)">
        <path id="Trazado_633627" data-name="Trazado 633627" d="M375.491,0H11.366A11.365,11.365,0,0,0,0,11.365v257.19a11.366,11.366,0,0,0,11.366,11.367H151.117s8.89,27.49-18.668,41.714H263.123s-31.114-10.667-23.114-41.714H375.492a11.366,11.366,0,0,0,11.366-11.366V11.365A11.366,11.366,0,0,0,375.491,0" transform="translate(0 0)" fill="#0a1439"/>
        <path id="Trazado_633628" data-name="Trazado 633628" d="M182.648,231.816c4.953,7.079-2.8,14.832-9.88,9.88a2.542,2.542,0,0,1-.608-.61c-4.94-7.077,2.8-14.82,9.879-9.879a2.5,2.5,0,0,1,.609.609" transform="translate(15.643 21.057)" fill="#263238"/>
        <path id="Trazado_633629" data-name="Trazado 633629" d="M380.062,232.476H5.742V14.9A10.588,10.588,0,0,1,16.329,4.316H369.476A10.586,10.586,0,0,1,380.062,14.9Z" transform="translate(0.527 0.396)" fill="#fff"/>
        <path id="Trazado_633630" data-name="Trazado 633630" d="M380.062,23.273H5.742V14.309a9.994,9.994,0,0,1,9.993-9.994H371.857a8.206,8.206,0,0,1,8.205,8.206Z" transform="translate(0.527 0.396)" fill="#ebebeb"/>
        <path id="Trazado_633631" data-name="Trazado 633631" d="M19.513,13.584a2.629,2.629,0,1,1-2.63-2.63,2.63,2.63,0,0,1,2.63,2.63" transform="translate(1.307 1.004)" fill="#e0e0e0"/>
        <path id="Trazado_633632" data-name="Trazado 633632" d="M26.693,13.584a2.629,2.629,0,1,1-2.63-2.63,2.63,2.63,0,0,1,2.63,2.63" transform="translate(1.965 1.004)" fill="#e0e0e0"/>
        <path id="Trazado_633633" data-name="Trazado 633633" d="M33.521,13.584a2.629,2.629,0,1,1-2.63-2.63,2.63,2.63,0,0,1,2.63,2.63" transform="translate(2.591 1.004)" fill="#e0e0e0"/>
        <path id="Trazado_633634" data-name="Trazado 633634" d="M303.762,256.462c0,.121-51.815.218-115.718.218-63.925,0-115.729-.1-115.729-.218s51.8-.218,115.729-.218c63.9,0,115.718.1,115.718.218" transform="translate(6.631 23.496)" fill="#263238"/>
      </g>
    </g>
    <g id="Grupo_946744" data-name="Grupo 946744" transform="translate(250.518 1360.107)">
      <g id="Grupo_946743" data-name="Grupo 946743" transform="translate(0 0)" clip-path="url(#clip-path-9)">
        <path id="Trazado_633635" data-name="Trazado 633635" d="M69.377,11.322c-.346-4.205-3.475-7.84-7.3-9.63S53.859-.272,49.675.274,41.429,2.04,37.306,2.937C27.64,5.04,17.039,5.594,9.293,11.747,1.586,17.868-2.24,26.81,1.37,35.965l49.942-.251,16.6-11.206Z" transform="translate(0 0)" fill="#c79c24"/>
        <path id="Trazado_633636" data-name="Trazado 633636" d="M72.45,13.336a15.588,15.588,0,0,0-9.616-8.291A23.934,23.934,0,0,0,49.908,4.9C42.736,6.654,35.9,11.284,33.257,18.177a14.471,14.471,0,0,0-.676,8.662C33.3,29.693,34.59,32.7,37.2,34.05s7.992,2.106,12.287,1.432l21.2-9.9a11.629,11.629,0,0,0,1.76-12.251" transform="translate(1.824 0.231)" fill="#263238"/>
        <path id="Trazado_633637" data-name="Trazado 633637" d="M26.425,76.9l23.81,50.167a10.821,10.821,0,0,0,13.78,5.414l84.608-33.687A11.364,11.364,0,0,0,154.8,83.6L132.382,33.421a11.364,11.364,0,0,0-14.646-5.9l-85.6,34.707A10.821,10.821,0,0,0,26.425,76.9" transform="translate(1.437 1.512)" fill="#ebebeb"/>
        <path id="Trazado_633638" data-name="Trazado 633638" d="M26.428,76.913s-.138-.286-.384-.858a10.7,10.7,0,0,1-.2-7.129,11.075,11.075,0,0,1,1.214-2.6,11.8,11.8,0,0,1,2.165-2.456c1.792-1.545,4.327-2.26,6.876-3.369l8.431-3.443,20.558-8.379c15.254-6.186,33.34-13.623,53.571-21.727A11.658,11.658,0,0,1,132.748,33.6l7.111,15.9L154.8,82.954a11.834,11.834,0,0,1,.538,9.289,11.587,11.587,0,0,1-6.313,6.681l-16.776,6.693-31.715,12.611-28.7,11.4-6.625,2.63a15.936,15.936,0,0,1-3.34,1.059,10.614,10.614,0,0,1-3.453.031,11.053,11.053,0,0,1-5.957-2.88,11.309,11.309,0,0,1-2-2.55c-.53-.943-.921-1.889-1.377-2.817L32.457,89.865c-1.948-4.156-3.462-7.386-4.5-9.592l-1.156-2.5c-.258-.564-.377-.86-.377-.86s.153.279.428.836l1.206,2.477,4.589,9.548c3.969,8.315,9.7,20.322,16.785,35.16.452.916.864,1.895,1.37,2.785a10.859,10.859,0,0,0,1.933,2.451,10.645,10.645,0,0,0,5.741,2.758,10.229,10.229,0,0,0,3.318-.038,15.489,15.489,0,0,0,3.249-1.042l6.62-2.644,28.685-11.448,31.7-12.641,16.758-6.695a11.033,11.033,0,0,0,6.013-6.366,11.282,11.282,0,0,0-.523-8.877c-5.116-11.458-10.112-22.646-14.937-33.452l-7.1-15.91A11.146,11.146,0,0,0,118.8,27.434L65.23,49.036l-20.589,8.3-8.448,3.4c-2.568,1.1-5.087,1.8-6.838,3.29a11.649,11.649,0,0,0-2.143,2.394A10.968,10.968,0,0,0,26,68.976a10.541,10.541,0,0,0-.495,4.389,12.548,12.548,0,0,0,.927,3.547" transform="translate(1.434 1.499)" fill="#263238"/>
        <path id="Trazado_633639" data-name="Trazado 633639" d="M99.022,101.047,61.751,116.905a2.981,2.981,0,0,1-2.335-5.486L96.688,95.561a2.981,2.981,0,1,1,2.334,5.486" transform="translate(3.263 5.399)" fill="#455a64"/>
        <path id="Trazado_633640" data-name="Trazado 633640" d="M135.935,79.657a6.344,6.344,0,1,1-8.321-3.354,6.344,6.344,0,0,1,8.321,3.354" transform="translate(7.01 4.293)" fill="#fff"/>
        <path id="Trazado_633641" data-name="Trazado 633641" d="M129.93,82.252a6.344,6.344,0,1,1-8.321-3.354,6.345,6.345,0,0,1,8.321,3.354" transform="translate(6.669 4.44)" fill="#ff725e"/>
        <path id="Trazado_633642" data-name="Trazado 633642" d="M50.738,74.481,43.808,77.43a3.958,3.958,0,0,1-3.1-7.285L47.639,67.2a3.958,3.958,0,0,1,3.1,7.285" transform="translate(2.169 3.788)" fill="#ff725e"/>
        <rect id="Rectángulo_340966" data-name="Rectángulo 340966" width="15.446" height="5.388" transform="translate(112.935 43.349) rotate(-23.047)" fill="#e0e0e0"/>
        <rect id="Rectángulo_340967" data-name="Rectángulo 340967" width="13.002" height="9.657" transform="translate(48.841 94.391) rotate(-23.052)" fill="#e0e0e0"/>
        <rect id="Rectángulo_340968" data-name="Rectángulo 340968" width="19.393" height="9.658" transform="translate(67.429 86.93) rotate(-23.05)" fill="#fff"/>
        <rect id="Rectángulo_340969" data-name="Rectángulo 340969" width="19.393" height="9.658" transform="translate(90.379 76.717) rotate(-23.05)" fill="#fff"/>
        <rect id="Rectángulo_340970" data-name="Rectángulo 340970" width="23.172" height="9.657" transform="matrix(0.92, -0.392, 0.392, 0.92, 113.327, 66.503)" fill="#fff"/>
        <path id="Trazado_633643" data-name="Trazado 633643" d="M63.387,9.38s43.093,8.379,44.589,9.277S130.12,34.817,130.419,40.2s-7.182,29.327-7.182,29.327-7.182.9-7.481-11.971l-.3-12.868-9.576-7.182s3.891,14.065,2.992,18.255S100.8,70.455,96.908,69.543a11.377,11.377,0,0,1-5.99-3.6s-3.59,9.416-13.466,3.66c0,0-6.584,2.625-11.671-.069s-9.576-11.073-9.576-11.073a4.456,4.456,0,0,1,5.088-4.789c5.386.3,10.174,4.19,10.174,4.19l.6-5.386S65.781,44.529,59.2,40.421s-27.86-9.407-21.809-24.1l6.422-3.334Z" transform="translate(2.057 0.531)" fill="#263238"/>
        <path id="Trazado_633644" data-name="Trazado 633644" d="M80.844,42.879a3.814,3.814,0,0,1,.564.954,17,17,0,0,1,1.078,2.821A19.437,19.437,0,0,1,78.033,65.3,16.971,16.971,0,0,1,75.8,67.335a3.861,3.861,0,0,1-.934.6c-.066-.082,1.235-.985,2.88-2.886a20.2,20.2,0,0,0,4.366-18.29c-.609-2.439-1.361-3.832-1.266-3.876" transform="translate(4.24 2.429)" fill="#455a64"/>
        <path id="Trazado_633645" data-name="Trazado 633645" d="M90.2,35.86a4.867,4.867,0,0,1,.591,1.027,10.829,10.829,0,0,1,.58,1.263,18.269,18.269,0,0,1,.649,1.725,27.017,27.017,0,0,1,1.107,4.67,30.952,30.952,0,0,1,.236,5.877,30.877,30.877,0,0,1-.977,5.8A27.079,27.079,0,0,1,90.7,60.718c-.273.627-.6,1.154-.861,1.628a10.947,10.947,0,0,1-.735,1.179,4.873,4.873,0,0,1-.716.945c-.092-.059.868-1.449,1.959-3.915a30,30,0,0,0,1.552-4.462,32.923,32.923,0,0,0,.918-5.7,32.955,32.955,0,0,0-.189-5.773,30.176,30.176,0,0,0-.975-4.623c-.771-2.585-1.548-4.085-1.449-4.131" transform="translate(5.006 2.031)" fill="#455a64"/>
        <path id="Trazado_633646" data-name="Trazado 633646" d="M100.29,26.593c.041-.046.553.311,1.167,1.1a8.7,8.7,0,0,1,1.437,7.424,3.183,3.183,0,0,1-.672,1.457,13.659,13.659,0,0,0,.262-5.228,13.678,13.678,0,0,0-2.194-4.754" transform="translate(5.68 1.506)" fill="#455a64"/>
        <path id="Trazado_633647" data-name="Trazado 633647" d="M67.2,10.85a28.735,28.735,0,0,0-5.74-1.718A21.369,21.369,0,0,0,55,9.078,20.1,20.1,0,0,0,47.58,11.7a18.555,18.555,0,0,0-5.81,5.282A11.786,11.786,0,0,0,39.6,22.95a12.841,12.841,0,0,0,.508,4.307A10.281,10.281,0,0,1,40.6,28.8a8.075,8.075,0,0,1-.7-1.474,11.976,11.976,0,0,1-.694-4.4A11.922,11.922,0,0,1,41.35,16.7,18.64,18.64,0,0,1,47.3,11.229a20.074,20.074,0,0,1,7.63-2.653,20.794,20.794,0,0,1,6.6.172,18.383,18.383,0,0,1,4.242,1.325,10.676,10.676,0,0,1,1.077.546c.241.135.362.213.354.23" transform="translate(2.22 0.475)" fill="#455a64"/>
      </g>
    </g>
    <g id="Grupo_946758" data-name="Grupo 946758" transform="translate(596.939 1480.821)">
      <g id="Grupo_946757" data-name="Grupo 946757" clip-path="url(#clip-path-10)">
        <g id="Grupo_946756" data-name="Grupo 946756" transform="translate(0 0)">
          <g id="Grupo_946755" data-name="Grupo 946755" clip-path="url(#clip-path-11)">
            <g id="Grupo_946754" data-name="Grupo 946754" transform="translate(1.87 5.624)" opacity="0.3">
              <g id="Grupo_946753" data-name="Grupo 946753">
                <g id="Grupo_946752" data-name="Grupo 946752" clip-path="url(#clip-path-12)">
                  <path id="Trazado_633675" data-name="Trazado 633675" d="M30.013,5.434c3.582,11.979,1.828,27.049,5.409,39.028.536,1.79,1.064,3.755.335,5.476-.875,2.068-3.259,3.039-5.472,3.407a22.273,22.273,0,0,1-17.37-5.008,31.445,31.445,0,0,1-9.87-15.477c-1.429-4.782-1.914-10.051-.089-14.7,3.187-8.109,18.4-13.71,27.057-12.728" transform="translate(-1.77 -5.322)"/>
                </g>
              </g>
            </g>
            <path id="Trazado_633676" data-name="Trazado 633676" d="M13.55,55.968s9.608,6.358,13.755,6.941S46.193,60.3,46.193,60.3s7.342-6.4,2.465-10.224a19.093,19.093,0,0,0,4.222-2.908c2.616-2.452,3.126-3.733.483-9.919,0,0,4.109-5.267,3.7-8a11.573,11.573,0,0,0-3.116-6.206s4.17-7.6-3.088-11.16c-1.546-.757-2.787-2.539-3.689-4.312a12.893,12.893,0,0,0-7.634-6.548A26.7,26.7,0,0,0,30.271.069V10.928s-25.815.005-28.4,2.064c-5.651,4.5,3.305,9.157,3.305,9.157s-5.6,5.642.2,8.177c0,0-4.17,5.5,1.8,8.421,3.5,1.715,29.077,9.608,29.077,9.608L23.363,49.646s-8.98-4.375-10.6-1.5.79,7.817.79,7.817" transform="translate(0 0)" fill="#263238"/>
            <path id="Trazado_633677" data-name="Trazado 633677" d="M41.509,34.56a7.487,7.487,0,0,1-1.454-.2l-3.925-.719c-3.313-.614-7.892-1.437-12.967-2.244s-9.687-1.442-13.026-1.885l-3.955-.533a7.458,7.458,0,0,1-1.444-.261,7.572,7.572,0,0,1,1.467.048c.941.064,2.3.186,3.978.359,3.355.344,7.982.921,13.066,1.729s9.661,1.694,12.958,2.406c1.648.355,2.979.66,3.894.891a7.563,7.563,0,0,1,1.41.41" transform="translate(0.268 1.626)" fill="#455a64"/>
            <path id="Trazado_633678" data-name="Trazado 633678" d="M44.758,22.848a8.72,8.72,0,0,1-1.567-.167L38.946,22.1c-3.586-.471-8.557-1-14.066-1.251s-10.51-.178-14.124-.034l-4.28.2a8.594,8.594,0,0,1-1.575.024,8.632,8.632,0,0,1,1.559-.238c1.007-.122,2.468-.251,4.277-.371A130.07,130.07,0,0,1,39,21.71c1.791.284,3.234.547,4.227.76a8.649,8.649,0,0,1,1.53.378" transform="translate(0.278 1.142)" fill="#455a64"/>
          </g>
        </g>
      </g>
    </g>
    <g id="Grupo_946769" data-name="Grupo 946769" transform="translate(253.471 1378.683)">
      <g id="Grupo_946760" data-name="Grupo 946760">
        <g id="Grupo_946759" data-name="Grupo 946759" clip-path="url(#clip-path-13)">
          <path id="Trazado_633679" data-name="Trazado 633679" d="M301.232,138.919,237.075,106.1a9.017,9.017,0,0,1-3.921-12.134l45.43-88.8a9.016,9.016,0,0,1,12.134-3.921l40.688,20.815L346.3,70.632,313.366,135a9.016,9.016,0,0,1-12.134,3.921" fill="#fafafa"/>
          <path id="Trazado_633680" data-name="Trazado 633680" d="M301.232,138.919s.127.045.369.148a7.677,7.677,0,0,0,1.1.4,9.029,9.029,0,0,0,4.513.171A8.925,8.925,0,0,0,313,135.447c1.368-2.569,2.858-5.6,4.578-8.949L346.1,70.533l-.015.162L331.168,22.129l.124.149-23.482-12L295.528,3.993,292.412,2.4A23.173,23.173,0,0,0,289.265.933a8.764,8.764,0,0,0-6.679.567,8.644,8.644,0,0,0-3.458,3.239c-.788,1.4-1.505,2.9-2.258,4.343l-4.432,8.662q-4.4,8.6-8.667,16.932c-5.685,11.1-11.168,21.807-16.391,32.007l-7.637,14.9-3.659,7.139q-.9,1.758-1.787,3.487a20.7,20.7,0,0,0-1.582,3.46,8.813,8.813,0,0,0,3.435,9.621,33.561,33.561,0,0,0,3.119,1.7l12.1,6.21,36.507,18.77,9.914,5.126,2.572,1.345c.578.3.868.474.868.474s-.306-.137-.892-.427l-2.6-1.3-9.958-5.04L251.2,113.532l-12.117-6.18a33.589,33.589,0,0,1-3.17-1.722,9.148,9.148,0,0,1-2.557-2.687,9.252,9.252,0,0,1-1.06-7.389,21.1,21.1,0,0,1,1.607-3.542l1.782-3.49q1.8-3.518,3.648-7.144,3.7-7.252,7.617-14.913l16.364-32.021,8.66-16.936q2.2-4.3,4.43-8.663c.76-1.454,1.452-2.911,2.276-4.375a9.161,9.161,0,0,1,3.664-3.432,9.284,9.284,0,0,1,7.077-.6,23.6,23.6,0,0,1,3.224,1.5l3.116,1.594,12.281,6.285L331.52,21.834l.094.048.031.1L346.5,70.568l.026.085-.04.078L317.8,126.612c-1.739,3.35-3.238,6.353-4.635,8.934a9.054,9.054,0,0,1-5.922,4.225,8.952,8.952,0,0,1-4.559-.236,6.781,6.781,0,0,1-1.094-.438c-.238-.113-.355-.178-.355-.178" fill="#263238"/>
          <path id="Trazado_633681" data-name="Trazado 633681" d="M313.763,43.276c-.164.321-6.943-2.818-15.138-7.011s-14.708-7.853-14.544-8.174,6.941,2.817,15.139,7.011,14.707,7.853,14.543,8.174" fill="#263238"/>
          <path id="Trazado_633682" data-name="Trazado 633682" d="M325.7,67.214c-.164.321-11.234-5.014-24.722-11.914s-24.293-12.757-24.129-13.078,11.232,5.013,24.724,11.915S325.867,66.893,325.7,67.214" fill="#263238"/>
          <path id="Trazado_633683" data-name="Trazado 633683" d="M324.066,81.264c-.165.321-12.219-5.517-26.922-13.039s-26.493-13.882-26.329-14.2,12.216,5.516,26.924,13.04,26.491,13.881,26.327,14.2" fill="#263238"/>
          <path id="Trazado_633684" data-name="Trazado 633684" d="M318.371,92.4c-.164.322-12.219-5.517-26.921-13.038s-26.494-13.883-26.33-14.2,12.217,5.516,26.924,13.041,26.491,13.88,26.327,14.2" fill="#263238"/>
          <path id="Trazado_633685" data-name="Trazado 633685" d="M312.676,103.529c-.164.321-12.219-5.517-26.922-13.038s-26.493-13.883-26.329-14.2,12.217,5.516,26.924,13.04,26.491,13.881,26.327,14.2" fill="#263238"/>
          <path id="Trazado_633686" data-name="Trazado 633686" d="M306.981,114.662c-.164.321-12.219-5.517-26.922-13.039s-26.493-13.882-26.329-14.2,12.216,5.516,26.924,13.04,26.491,13.881,26.327,14.2" fill="#263238"/>
          <path id="Trazado_633687" data-name="Trazado 633687" d="M330.906,21.728,318.12,46.721a8.386,8.386,0,0,0,3.646,11.285L345.8,70.3Z" fill="#e0e0e0"/>
        </g>
      </g>
      <g id="Grupo_946762" data-name="Grupo 946762">
        <g id="Grupo_946761" data-name="Grupo 946761" clip-path="url(#clip-path-13)">
          <path id="Trazado_633688" data-name="Trazado 633688" d="M212.967,87.208l-31.519-.054L178.63,81.89a10.871,10.871,0,0,0-9.637-5.569l-30.809.015c-5.483,0-9.927,4.168-9.924,9.3l0,3.593.044,94.548c0,5.835,5.056,10.563,11.286,10.56l125.145-.059c6.231,0,11.279-4.736,11.276-10.571l-.042-89.317a7.215,7.215,0,0,0-7.219-7.211Z" fill="#3853bf"/>
          <rect id="Rectángulo_340979" data-name="Rectángulo 340979" width="74.48" height="31.335" transform="translate(168.731 121.752)" fill="#fff"/>
          <path id="Trazado_633689" data-name="Trazado 633689" d="M231.74,135.553c0,.277-11.457.508-25.586.514s-25.589-.213-25.59-.49,11.455-.507,25.589-.513,25.587.212,25.587.489" fill="#263238"/>
          <path id="Trazado_633690" data-name="Trazado 633690" d="M231.743,142.228c0,.277-11.457.507-25.586.514s-25.59-.213-25.59-.49,11.455-.507,25.589-.514,25.587.213,25.587.49" fill="#263238"/>
        </g>
      </g>
      <g id="Grupo_946764" data-name="Grupo 946764">
        <g id="Grupo_946763" data-name="Grupo 946763" clip-path="url(#clip-path-13)">
          <path id="Trazado_633691" data-name="Trazado 633691" d="M280,252.14a23.616,23.616,0,1,1-3.33-33.231A23.616,23.616,0,0,1,280,252.14" fill="#fff"/>
          <path id="Trazado_633692" data-name="Trazado 633692" d="M280,252.14a2.086,2.086,0,0,1,.206-.325l.645-.919.48-.672c.165-.255.321-.55.5-.86a17.259,17.259,0,0,0,1.152-2.2,22.557,22.557,0,0,0,1.92-6.5,23.406,23.406,0,0,0-15.452-25.516,21.465,21.465,0,0,0-6.592-1.278,21.37,21.37,0,0,0-6.964.715,22.623,22.623,0,0,0-6.658,2.869,23.151,23.151,0,0,0-9.333,11.409,22.631,22.631,0,0,0-1.492,7.1,21.376,21.376,0,0,0,.68,6.969,21.481,21.481,0,0,0,2.561,6.208,23.465,23.465,0,0,0,28.076,10.081,22.565,22.565,0,0,0,5.985-3.17,17.35,17.35,0,0,0,1.926-1.565c.267-.241.525-.452.743-.664s.393-.422.563-.6l.773-.814a2.077,2.077,0,0,1,.277-.267,2.05,2.05,0,0,1-.237.3l-.736.851q-.248.283-.548.624c-.213.22-.467.438-.73.687a16.794,16.794,0,0,1-1.91,1.614,22.35,22.35,0,0,1-6.007,3.281,23.771,23.771,0,0,1-19.527-1.4,23.864,23.864,0,0,1-9.06-8.707,21.857,21.857,0,0,1-2.631-6.331,21.869,21.869,0,0,1-.707-7.118,23.093,23.093,0,0,1,1.517-7.255,23.621,23.621,0,0,1,9.54-11.662,23.078,23.078,0,0,1,6.808-2.925,21.818,21.818,0,0,1,7.115-.718,21.922,21.922,0,0,1,6.727,1.322,23.875,23.875,0,0,1,10.33,7.152,23.776,23.776,0,0,1,5.251,18.86,22.348,22.348,0,0,1-2.025,6.539,16.673,16.673,0,0,1-1.2,2.192c-.191.308-.355.6-.528.852s-.351.462-.5.661l-.689.891a2.014,2.014,0,0,1-.248.292" fill="#263238"/>
          <path id="Trazado_633693" data-name="Trazado 633693" d="M276.543,240.546a1.351,1.351,0,0,1-.6,2.261l-11.848,3.617-11.88,3.193a1.832,1.832,0,0,1-1.687-2.079l3.175-11.884,3.175-11.884a1.351,1.351,0,0,1,2.26-.607l8.7,8.691Z" fill="#e0e0e0"/>
        </g>
      </g>
      <g id="Grupo_946766" data-name="Grupo 946766">
        <g id="Grupo_946765" data-name="Grupo 946765" clip-path="url(#clip-path-13)">
          <path id="Trazado_633694" data-name="Trazado 633694" d="M144.112,235.931a12.58,12.58,0,0,0,5.71-12.611c-.989-6.878-7.02-11.705-13.472-10.78s-10.875,7.249-9.886,14.128a12.562,12.562,0,0,0,9.158,10.52c-17.56,5.365-13.856,24.765-13.856,24.765l42.5-6.093s-1.954-19.876-20.156-19.929" fill="#6aceae"/>
        </g>
      </g>
      <g id="Grupo_946768" data-name="Grupo 946768">
        <g id="Grupo_946767" data-name="Grupo 946767" clip-path="url(#clip-path-13)">
          <path id="Trazado_633695" data-name="Trazado 633695" d="M92.063,210.249,15.3,225.892a4.206,4.206,0,0,1-4.961-3.281l-10-49.055a4.2,4.2,0,0,1,3.281-4.96l76.763-15.643a4.206,4.206,0,0,1,4.961,3.281l10,49.054a4.206,4.206,0,0,1-3.281,4.961" fill="#ebebeb"/>
          <path id="Trazado_633696" data-name="Trazado 633696" d="M92.063,210.249c-.006-.022.245-.05.689-.236a4.222,4.222,0,0,0,1.686-1.256,4.145,4.145,0,0,0,.865-3.223l-.961-4.659c-1.454-7.034-3.551-17.183-6.142-29.722q-.966-4.707-2.024-9.85-.531-2.563-1.084-5.227a4.006,4.006,0,0,0-3.874-2.992,22.052,22.052,0,0,0-2.76.486l-2.837.581-5.81,1.19-12.126,2.483-54,11.025a3.979,3.979,0,0,0-2.676,1.97,3.864,3.864,0,0,0-.476,1.625,5.98,5.98,0,0,0,.2,1.724q.723,3.548,1.435,7.048,1.425,7,2.8,13.781l5.294,26.052.316,1.549a3.888,3.888,0,0,0,.57,1.361,3.975,3.975,0,0,0,3.79,1.751c.472-.063.994-.193,1.487-.285l2.971-.6L30.844,222.5l20.543-4.154,29.752-5.979,8.1-1.6,2.107-.4c.476-.088.722-.12.722-.12s-.239.067-.711.172l-2.1.454-8.075,1.7-29.72,6.141-20.53,4.216-11.439,2.344-2.97.608c-.508.1-.978.219-1.522.294a4.442,4.442,0,0,1-4.243-1.951,4.361,4.361,0,0,1-.641-1.524L9.8,221.145c-1.7-8.3-3.478-17.014-5.324-26.046Q3.091,188.324,1.66,181.32q-.713-3.5-1.437-7.048a6.516,6.516,0,0,1-.211-1.864,4.375,4.375,0,0,1,.539-1.839,4.494,4.494,0,0,1,3.028-2.23l54.01-10.985,12.131-2.461,5.812-1.178,2.838-.575,1.4-.284a7.243,7.243,0,0,1,1.445-.2,4.431,4.431,0,0,1,4.279,3.32l1.074,5.251q1.038,5.14,1.991,9.857c2.523,12.552,4.564,22.713,5.979,29.754.345,1.76.671,3.312.917,4.678a4.245,4.245,0,0,1-.938,3.311,4.169,4.169,0,0,1-1.747,1.24,2.734,2.734,0,0,1-.709.186" fill="#263238"/>
          <path id="Trazado_633697" data-name="Trazado 633697" d="M.4,171.657,49.62,195.412l31.971-42.527" fill="#ebebeb"/>
          <path id="Trazado_633698" data-name="Trazado 633698" d="M81.592,152.885a1.123,1.123,0,0,1-.144.235l-.462.658-1.82,2.5-6.776,9.15-22.561,30.14-.128.171-.194-.093-.65-.314L14.543,178.688,4.17,173.59l-2.808-1.409L.637,171.8a1.12,1.12,0,0,1-.239-.145,1.14,1.14,0,0,1,.262.1l.747.332,2.851,1.322L14.7,178.356l34.38,16.508.651.314-.321.078L72.1,165.209,79,156.158l1.9-2.443.5-.627a1.1,1.1,0,0,1,.186-.2" fill="#263238"/>
          <path id="Trazado_633699" data-name="Trazado 633699" d="M31.5,186.865c.129.064-4.043,8.751-9.316,19.4S12.534,225.5,12.4,225.436s4.041-8.749,9.317-19.4S31.376,186.8,31.5,186.865" fill="#263238"/>
          <path id="Trazado_633700" data-name="Trazado 633700" d="M59.847,181.809c.086-.115,8.123,5.764,17.947,13.129s17.723,13.433,17.637,13.548-8.121-5.763-17.949-13.131-17.721-13.431-17.635-13.546" fill="#263238"/>
        </g>
      </g>
    </g>
    <g id="Grupo_946778" data-name="Grupo 946778" transform="translate(514.946 1231.992)">
      <g id="Grupo_946777" data-name="Grupo 946777" transform="translate(0 0)" clip-path="url(#clip-path-18)">
        <path id="Trazado_633713" data-name="Trazado 633713" d="M53,26.5A26.5,26.5,0,1,0,3.658,39.888H3.643l.076.1c1.017,1.714,2.29,2.937,3.576,4.737L22.68,65.105a4.787,4.787,0,0,0,7.639,0L45.45,45.058a57.051,57.051,0,0,0,3.849-5.1l.055-.071h-.01A26.352,26.352,0,0,0,53,26.5M26.5,38.037A11.662,11.662,0,1,1,38.162,26.376,11.662,11.662,0,0,1,26.5,38.037" transform="translate(0 0)" fill="#ff725e"/>
      </g>
    </g>
    <g id="Grupo_946776" data-name="Grupo 946776" transform="translate(643.931 1360.107)">
      <g id="Grupo_946775" data-name="Grupo 946775" transform="translate(0 0)" clip-path="url(#clip-path-19)">
        <path id="Trazado_633712" data-name="Trazado 633712" d="M26.562,21.488a10.836,10.836,0,0,0,8.824-8.023C36.952,7.687,33.832,1.81,28.414.336S17.337,2.355,15.77,8.134a10.82,10.82,0,0,0,3.647,11.449C3.7,17.826,0,34.434,0,34.434l35.695,9.7s5.244-16.388-9.133-22.647" transform="translate(0 -0.001)" fill="#6aceae"/>
      </g>
    </g>
    <g id="Grupo_946784" data-name="Grupo 946784" transform="translate(192.391 1183.025)">
      <g id="Grupo_946783" data-name="Grupo 946783" clip-path="url(#clip-path-20)">
        <path id="Trazado_633723" data-name="Trazado 633723" d="M156.454,26.226.911,25.431.977,12.348A11.909,11.909,0,0,1,12.946.5l131.85.674a11.785,11.785,0,0,1,11.725,11.846Z" transform="translate(0.263 0.145)" fill="#ebebeb"/>
        <path id="Trazado_633724" data-name="Trazado 633724" d="M88.668,37.922C79.85,28.737,71,29,71,29S48.612,26.4,41.029,49.255s13.055,26.7,13.055,26.7-.2,6.588,5.276,6.865c0,0,3.276.439,4.241-2.411a4.377,4.377,0,0,0,4.535,2.478,5.338,5.338,0,0,0,4.454-2.643,5.77,5.77,0,0,0,5.168,2.721c3.6-.138,3.831-4.895,3.947-6.8,0,0,14.175-.985,14.769-13.777,0,0,2.4-13.84-7.806-24.467M56.232,69.9a8.65,8.65,0,1,1,8.905-8.6,8.755,8.755,0,0,1-8.905,8.6m14.132,4.714-4.585-.023a.948.948,0,0,1-.836-1.387c.647-1.233,1.593-3.036,2.26-4.294a.905.905,0,0,1,1.592-.014l2.4,4.308a.948.948,0,0,1-.833,1.41m9.055-4.6a8.65,8.65,0,1,1,8.905-8.6,8.755,8.755,0,0,1-8.905,8.6" transform="translate(11.363 8.347)" fill="#e0e0e0"/>
        <path id="Trazado_633725" data-name="Trazado 633725" d="M100.229,93.446A5.5,5.5,0,0,0,89.5,91.727l-40.538-16.8a5.5,5.5,0,1,0-9.864.137,5.5,5.5,0,1,0,6.9,7.618h0L86.611,99.319a5.5,5.5,0,1,0,10.127-.786,5.494,5.494,0,0,0,3.491-5.087" transform="translate(10.281 19.368)" fill="#e0e0e0"/>
        <path id="Trazado_633726" data-name="Trazado 633726" d="M95.167,67.492a5.5,5.5,0,0,0-8.446,6.835L47.141,93.275a5.441,5.441,0,0,0-1.371-1.947,5.5,5.5,0,1,0-5.115,9.379,5.495,5.495,0,1,0,10.275-.044h0l39.51-19.114a5.5,5.5,0,1,0,6.179-8.06,5.5,5.5,0,0,0-1.454-6" transform="translate(10.561 19.076)" fill="#e0e0e0"/>
        <path id="Trazado_633727" data-name="Trazado 633727" d="M144.734,141.693h-.062l-132.634-.678A12.114,12.114,0,0,1,0,128.854L.6,12.038A12.1,12.1,0,0,1,12.694,0h.064L145.392.679A12.1,12.1,0,0,1,157.43,12.84l-.6,116.816a12.115,12.115,0,0,1-12.1,12.038m-.055-1.289h.055a10.825,10.825,0,0,0,10.811-10.756l.6-116.816A10.811,10.811,0,0,0,145.386,1.968L12.752,1.289h-.058A10.811,10.811,0,0,0,1.887,12.043l-.6,116.817a10.823,10.823,0,0,0,10.754,10.867Z" transform="translate(0)" fill="#e0e0e0"/>
        <path id="Trazado_633728" data-name="Trazado 633728" d="M18.06,11.093A4.372,4.372,0,1,1,13.711,6.7a4.374,4.374,0,0,1,4.349,4.395" transform="translate(2.69 1.934)" fill="#fff"/>
        <path id="Trazado_633729" data-name="Trazado 633729" d="M27.1,11.448a4.371,4.371,0,1,1-4.349-4.395A4.372,4.372,0,0,1,27.1,11.448" transform="translate(5.301 2.036)" fill="#fff"/>
        <path id="Trazado_633730" data-name="Trazado 633730" d="M36.148,11.8A4.371,4.371,0,1,1,31.8,7.407,4.373,4.373,0,0,1,36.148,11.8" transform="translate(7.913 2.139)" fill="#fff"/>
      </g>
    </g>
  </g>
</svg>
